<?xml version="1.0" encoding="utf-8"?>
<!-- Generator: Adobe Illustrator 25.0.1, SVG Export Plug-In . SVG Version: 6.00 Build 0)  -->
<svg version="1.1" id="Layer_1" xmlns="http://www.w3.org/2000/svg" xmlns:xlink="http://www.w3.org/1999/xlink" x="0px" y="0px"
	 viewBox="0 0 512 512" style="enable-background:new 0 0 512 512;" xml:space="preserve">
<style type="text/css">
	.st0{fill:url(#SVGID_1_);}
</style>
<g>
	<linearGradient id="SVGID_1_" gradientUnits="userSpaceOnUse" x1="37.5625" y1="474.4375" x2="474.4375" y2="37.5625">
		<stop  offset="0" style="stop-color:#463C87"/>
		<stop  offset="1" style="stop-color:#E24273"/>
	</linearGradient>
	<path class="st0" d="M458.5,31h-405C41,31,31,41,31,53.5v405C31,471,41,481,53.5,481h405c12.5,0,22.5-10,22.5-22.5v-405
		C481,41,471,31,458.5,31 M196,355.9h-40V156.1h40V355.9z M356,355.9H236v-40h120V355.9z M356,276H236v-40h120V276z M356,195.9H236
		v-40h120V195.9z"/>
</g>
</svg>
