<svg xmlns="http://www.w3.org/2000/svg" viewBox="0 0 1136.45 429.91"><defs><style>.cls-1{fill:#fff;}</style></defs><g id="Layer_2" data-name="Layer 2"><g id="Logos"><path class="cls-1" d="M24.1,330.31,0,0H44.89l10.4,165.39h1.42L70.88,0h36.86l15.59,165.39h1L135.62,0h40.64L151.69,330.31H106.32L89.79,189h-.48L75.13,330.31Z"/><path class="cls-1" d="M291.55,0V330.31H244.78V182.87H230.6V330.31H183.81V0H230.6V147.91h14.18V0Z"/><path class="cls-1" d="M349.68,0V330.31H302.89V0Z"/><path class="cls-1" d="M469.23,39.22H436.15V330.31H389.36V39.22H356.29V0H469.23Z"/><path class="cls-1" d="M523.09,39.22V147.91h31.19v35H523.09V291.09h43v39.22H476.31V0h86V39.22Z"/><path class="cls-1" d="M666.74,0V295.34H705v35H620V0Z"/><path class="cls-1" d="M773.53,247.14H753.68l-6.14,83.17H707.37L735.25,0h60L825,330.31H780.14Zm-17-35h14.18l-6.14-84.11h-1.42Z"/><path class="cls-1" d="M939.39,128.53q0,15.14-4.68,22.45T923,160.66q7,1.91,11.7,9.22t4.68,22.44v88.37q0,13.23-4.22,22.68a43.32,43.32,0,0,1-11,15.36,43.82,43.82,0,0,1-15.68,8.74,59.68,59.68,0,0,1-18.25,2.84h-58.6V0h58.6a59.67,59.67,0,0,1,18.25,2.83,42.19,42.19,0,0,1,15.68,9,45.57,45.57,0,0,1,11,15.83q4.2,9.69,4.22,22.92Zm-52.46,14.65q3.78,0,4.73-4.25a67.52,67.52,0,0,0,1-13.23V57.65q0-18.43-6.15-18.43h-8v104Zm5.68,52.45c0-6-.41-10.39-1.19-13.23s-2.44-4.25-5-4.25h-8V291.09H886q6.6,0,6.62-17.49Z"/><path class="cls-1" d="M997.51,39.22V147.91h31.18v35H997.51V291.09h43v39.22H950.72V0h86V39.22Z"/><path class="cls-1" d="M1095.8,0V295.34h38.27v35H1049V0Z"/><path class="cls-1" d="M27.17,429.06V378.11h6.18l27.89,40h.32v-40h6.28v50.95H61.67l-27.9-39.87h-.31v39.87Z"/><path class="cls-1" d="M131,429.06H99.42V378.11H131v5.72h-25.2v16.35h23.9v5.65h-23.9v17.51H131Z"/><path class="cls-1" d="M189,414.47H168.78l-5.13,14.59H157l18.78-50.95h6.29l18.78,50.95h-6.67Zm-18.39-5.4h16.52L179,385.85h-.21Z"/><path class="cls-1" d="M234.71,429.06h-6.36V378.11h19.46c9.81,0,16.24,6,16.24,15.18,0,7.1-3.85,12.61-10.24,14.62l11.79,21.15h-7.45L247.24,408.9H234.71Zm0-25.78h12.53c6.53,0,10.24-3.53,10.24-9.77s-4-9.75-10.52-9.75H234.71Z"/><path class="cls-1" d="M297.67,415c.6,5.51,5.83,9.14,13.1,9.14,6.88,0,11.89-3.63,11.89-8.64,0-4.31-3-7-9.84-8.73l-6.54-1.69c-9.39-2.4-13.56-6.53-13.56-13.45,0-8.47,7.42-14.41,18-14.41,10.14,0,17.48,6,17.77,14.55h-6.36c-.56-5.47-5-8.83-11.62-8.83s-11.19,3.43-11.19,8.41c0,3.84,2.82,6.14,9.74,7.94l5.34,1.41c10.55,2.65,14.82,6.71,14.82,14,0,9.32-7.34,15.15-19.06,15.15-10.81,0-18.29-5.87-18.89-14.87Z"/><path class="cls-1" d="M392.66,429.06v-23.2h-28v23.2h-6.36V378.11h6.36v22h28v-22H399v50.95Z"/><path class="cls-1" d="M475.57,403.6c0,16.17-9,26.31-23.48,26.31s-23.48-10.14-23.48-26.31,9-26.34,23.48-26.34S475.57,387.43,475.57,403.6Zm-40.42,0c0,12.54,6.53,20.44,16.94,20.44s17-7.9,17-20.44-6.54-20.48-17-20.48S435.15,391,435.15,403.6Z"/><path class="cls-1" d="M511.52,429.06h-6.35V378.11h19.45c9.82,0,16.24,6,16.24,15.18,0,7.1-3.84,12.61-10.23,14.62l11.79,21.15H535L524.06,408.9H511.52Zm0-25.78h12.54c6.53,0,10.24-3.53,10.24-9.77s-3.95-9.75-10.52-9.75H511.52Z"/><path class="cls-1" d="M602.11,429.06H570.54V378.11h31.57v5.72H576.9v16.35h23.9v5.65H576.9v17.51h25.21Z"/><path class="cls-1" d="M675.11,415c.6,5.51,5.82,9.14,13.1,9.14,6.88,0,11.89-3.63,11.89-8.64,0-4.31-3-7-9.85-8.73l-6.53-1.69c-9.39-2.4-13.56-6.53-13.56-13.45,0-8.47,7.42-14.41,18-14.41,10.13,0,17.48,6,17.76,14.55h-6.36c-.56-5.47-5-8.83-11.61-8.83s-11.19,3.43-11.19,8.41c0,3.84,2.82,6.14,9.74,7.94l5.34,1.41c10.55,2.65,14.82,6.71,14.82,14,0,9.32-7.35,15.15-19.06,15.15-10.81,0-18.29-5.87-18.89-14.87Z"/><path class="cls-1" d="M767.34,429.06H735.78V378.11h31.56v5.72h-25.2v16.35H766v5.65h-23.9v17.51h25.2Z"/><path class="cls-1" d="M803.76,429.06H797.4V378.11h19.46c9.81,0,16.24,6,16.24,15.18,0,7.1-3.85,12.61-10.24,14.62l11.79,21.15H827.2L816.29,408.9H803.76Zm0-25.78h12.53c6.53,0,10.24-3.53,10.24-9.77s-4-9.75-10.52-9.75H803.76Z"/><path class="cls-1" d="M877.49,429.06l-18.78-50.95h6.67l15.15,43.22h.21l15.14-43.22h6.68l-18.78,50.95Z"/><path class="cls-1" d="M930.07,429.06V378.11h6.36v50.95Z"/><path class="cls-1" d="M966,403.57c0-16,9-26.31,23-26.31,11.09,0,19.53,6.75,21.15,16.92h-6.43c-1.62-6.68-7.45-11.06-14.72-11.06-10,0-16.42,8.05-16.42,20.45S979,424,989,424c7.48,0,12.85-3.59,14.68-9.81h6.43c-2.33,10.06-9.89,15.68-21.15,15.68C974.93,429.91,966,419.7,966,403.57Z"/><path class="cls-1" d="M1070.87,429.06h-31.56V378.11h31.56v5.72h-25.21v16.35h23.9v5.65h-23.9v17.51h25.21Z"/><path class="cls-1" d="M1104.88,415c.6,5.51,5.82,9.14,13.1,9.14,6.89,0,11.9-3.63,11.9-8.64,0-4.31-3-7-9.85-8.73l-6.53-1.69c-9.4-2.4-13.56-6.53-13.56-13.45,0-8.47,7.42-14.41,18-14.41,10.14,0,17.48,6,17.76,14.55h-6.35c-.57-5.47-5-8.83-11.62-8.83s-11.19,3.43-11.19,8.41c0,3.84,2.83,6.14,9.75,7.94l5.32,1.41c10.56,2.65,14.84,6.71,14.84,14,0,9.32-7.35,15.15-19.07,15.15-10.8,0-18.29-5.87-18.89-14.87Z"/></g></g></svg>