<?xml version="1.0" standalone="no"?>
<!DOCTYPE svg PUBLIC "-//W3C//DTD SVG 20010904//EN"
 "http://www.w3.org/TR/2001/REC-SVG-20010904/DTD/svg10.dtd">
<svg version="1.0" xmlns="http://www.w3.org/2000/svg"
 width="100.000000pt" height="100.000000pt" viewBox="0 0 100.000000 100.000000"
 preserveAspectRatio="xMidYMid meet">

<g transform="translate(0.000000,100.000000) scale(0.100000,-0.100000)"
fill="#D60725" stroke="none">
<path d="M386 944 c-224 -54 -376 -287 -338 -516 62 -368 512 -515 773 -253
329 330 18 879 -435 769z m219 -39 c312 -81 418 -473 191 -701 -241 -240 -651
-107 -709 230 -50 295 226 546 518 471z"/>
<path d="M445 835 c-16 -15 -25 -36 -25 -55 0 -19 9 -40 25 -55 49 -50 135
-15 135 55 0 41 -39 80 -80 80 -19 0 -40 -9 -55 -25z m85 -30 c26 -32 -13 -81
-47 -59 -35 22 -23 74 17 74 10 0 23 -7 30 -15z"/>
<path d="M226 694 c-19 -19 -21 -58 -3 -71 6 -6 49 -23 94 -39 l83 -29 0 -68
c0 -40 -10 -110 -26 -169 -28 -113 -26 -145 12 -154 37 -9 57 15 84 101 13 41
26 75 30 75 4 0 17 -34 30 -75 27 -86 47 -110 84 -101 38 9 40 41 12 154 -16
59 -26 129 -26 169 l0 68 83 29 c99 35 107 40 107 77 0 22 -7 32 -26 41 -21
10 -39 7 -108 -15 -110 -36 -204 -37 -306 -2 -86 29 -103 31 -124 9z m114 -49
c103 -35 216 -35 323 1 43 14 81 23 84 20 10 -10 -3 -17 -94 -50 l-88 -31 -3
-82 c-2 -61 3 -106 23 -181 27 -109 29 -122 17 -122 -4 0 -26 54 -47 120 -28
87 -43 120 -55 120 -12 0 -27 -33 -55 -120 -21 -66 -43 -120 -47 -120 -12 0
-10 13 17 122 20 75 25 120 23 181 l-3 81 -50 18 c-118 43 -135 50 -135 59 0
13 9 12 90 -16z"/>
</g>
</svg>
