<svg xmlns="http://www.w3.org/2000/svg" viewBox="0 0 79.29 160.03"><defs><style>.cls-1{fill:#D60725;}</style></defs><g id="Layer_2" data-name="Layer 2"><g id="Layer_1-2" data-name="Layer 1"><path class="cls-1" d="M71,160H8.25A8.25,8.25,0,0,1,0,151.79V8.25A8.26,8.26,0,0,1,8.25,0H71a8.26,8.26,0,0,1,8.25,8.25V151.79A8.25,8.25,0,0,1,71,160ZM8.25,3.79A4.46,4.46,0,0,0,3.79,8.25V151.79a4.46,4.46,0,0,0,4.46,4.45H71a4.46,4.46,0,0,0,4.46-4.45V8.25A4.46,4.46,0,0,0,71,3.79Z"/><path class="cls-1" d="M39.65,151.49a8.55,8.55,0,1,1,8.54-8.56A8.56,8.56,0,0,1,39.65,151.49Zm0-13.31a4.76,4.76,0,1,0,4.76,4.75A4.77,4.77,0,0,0,39.65,138.18Z"/><path class="cls-1" d="M52.93,11.63H29.74A1.91,1.91,0,0,1,28.3,11L21.55,3.13A1.9,1.9,0,0,1,23,0H56.3A1.89,1.89,0,0,1,58,2.64l-3.37,7.85A1.89,1.89,0,0,1,52.93,11.63ZM30.61,7.84H51.68l1.75-4H27.12Z"/></g></g></svg>