<svg xmlns="http://www.w3.org/2000/svg" viewBox="0 0 176.19 124.57"><defs><style>.cls-1{fill:#D60725;}</style></defs><g id="Layer_2" data-name="Layer 2"><g id="Layer_1-2" data-name="Layer 1"><path class="cls-1" d="M12.31,15.36a4.95,4.95,0,1,1,5-4.94A5,5,0,0,1,12.31,15.36Zm0-6.1a1.16,1.16,0,1,0,1.16,1.16A1.16,1.16,0,0,0,12.31,9.26Z"/><path class="cls-1" d="M23.68,15.36a4.95,4.95,0,1,1,4.94-4.94A5,5,0,0,1,23.68,15.36Zm0-6.1a1.16,1.16,0,1,0,1.15,1.16A1.16,1.16,0,0,0,23.68,9.26Z"/><path class="cls-1" d="M35.05,15.36A4.95,4.95,0,1,1,40,10.42,4.94,4.94,0,0,1,35.05,15.36Zm0-6.1a1.16,1.16,0,1,0,1.15,1.16A1.15,1.15,0,0,0,35.05,9.26Z"/><path class="cls-1" d="M174.3,124.57H1.89A1.9,1.9,0,0,1,0,122.67V1.89A1.89,1.89,0,0,1,1.89,0H174.3a1.89,1.89,0,0,1,1.89,1.89V122.67A1.89,1.89,0,0,1,174.3,124.57ZM3.79,120.78H172.41V3.79H3.79Z"/><path class="cls-1" d="M174.3,19.73H1.89a1.9,1.9,0,0,1,0-3.79H174.3a1.9,1.9,0,0,1,0,3.79Z"/><path class="cls-1" d="M139.57,54.39H36.63a1.9,1.9,0,0,1-1.9-1.89V41.28a1.9,1.9,0,0,1,1.9-1.9H139.57a1.9,1.9,0,0,1,1.89,1.9V52.5A1.89,1.89,0,0,1,139.57,54.39Zm-101-3.79h99.15V43.17H38.52Z"/><path class="cls-1" d="M94.71,98.38H36.63a1.9,1.9,0,0,1-1.9-1.9V59.17a1.9,1.9,0,0,1,1.9-1.89H94.71a1.9,1.9,0,0,1,1.9,1.89V96.48A1.9,1.9,0,0,1,94.71,98.38ZM38.52,94.59h54.3V61.07H38.52Z"/><path class="cls-1" d="M139.57,79.72H102.38a1.89,1.89,0,0,1-1.89-1.89V59.17a1.89,1.89,0,0,1,1.89-1.89h37.19a1.89,1.89,0,0,1,1.89,1.89V77.83A1.89,1.89,0,0,1,139.57,79.72Zm-35.29-3.79h33.39V61.07H104.28Z"/><path class="cls-1" d="M139.57,98.38H102.38a1.9,1.9,0,0,1-1.89-1.9v-12a1.89,1.89,0,0,1,1.89-1.89h37.19a1.89,1.89,0,0,1,1.89,1.89v12A1.9,1.9,0,0,1,139.57,98.38Zm-35.29-3.79h33.39V86.4H104.28Z"/></g></g></svg>