<svg xmlns="http://www.w3.org/2000/svg" viewBox="0 0 134.51 127.24"><defs><style>.cls-1{fill:#231f20;}</style></defs><g id="Layer_2" data-name="Layer 2"><g id="Layer_1-2" data-name="Layer 1"><path class="cls-1" d="M132.62,127.24H1.89A1.9,1.9,0,0,1,0,125.34v-77a1.9,1.9,0,0,1,1.89-1.9H132.62a1.89,1.89,0,0,1,1.89,1.9v77A1.89,1.89,0,0,1,132.62,127.24ZM3.79,123.45H130.72V50.19H3.79Z"/><path class="cls-1" d="M132.62,50.19H1.89a1.9,1.9,0,0,1,0-3.79H130.72v-8H24.31a1.9,1.9,0,1,1,0-3.79H132.62a1.89,1.89,0,0,1,1.89,1.89V48.3A1.88,1.88,0,0,1,132.62,50.19Z"/><path class="cls-1" d="M111,50.19a1.89,1.89,0,0,1-1.14-3.41L125.7,35A1.89,1.89,0,1,1,128,38L112.12,49.82A1.91,1.91,0,0,1,111,50.19Z"/><path class="cls-1" d="M94.34,50.19a1.89,1.89,0,0,1-1.14-3.41L109.05,35a1.89,1.89,0,1,1,2.27,3L95.47,49.82A1.91,1.91,0,0,1,94.34,50.19Z"/><path class="cls-1" d="M77.69,50.19a1.89,1.89,0,0,1-1.13-3.41L92.41,35a1.89,1.89,0,1,1,2.26,3L78.82,49.82A1.89,1.89,0,0,1,77.69,50.19Z"/><path class="cls-1" d="M61.05,50.19a1.89,1.89,0,0,1-1.14-3.41L75.76,35A1.89,1.89,0,1,1,78,38L62.18,49.82A1.91,1.91,0,0,1,61.05,50.19Z"/><path class="cls-1" d="M44.4,50.19a1.89,1.89,0,0,1-1.14-3.41L59.11,35a1.89,1.89,0,1,1,2.27,3L45.53,49.82A1.91,1.91,0,0,1,44.4,50.19Z"/><path class="cls-1" d="M27.75,50.19a1.89,1.89,0,0,1-1.13-3.41L42.47,35a1.89,1.89,0,1,1,2.26,3L28.88,49.82A1.89,1.89,0,0,1,27.75,50.19Z"/><path class="cls-1" d="M21.89,34.83a1.9,1.9,0,0,1-.33-3.76L128.48,12l-1.41-7.9L15,24.09a1.89,1.89,0,0,1-.66-3.73L128.26,0a1.89,1.89,0,0,1,2.2,1.53l2.08,11.63a1.89,1.89,0,0,1-1.53,2.2L22.23,34.8Z"/><path class="cls-1" d="M109.37,19.22a1.85,1.85,0,0,1-1.29-.52A1.88,1.88,0,0,1,108,16L121.52,1.61a1.89,1.89,0,0,1,2.76,2.59L110.76,18.62A1.9,1.9,0,0,1,109.37,19.22Z"/><path class="cls-1" d="M93,22.14A1.89,1.89,0,0,1,91.6,19L105.13,4.53a1.9,1.9,0,1,1,2.76,2.6L94.37,21.54A1.9,1.9,0,0,1,93,22.14Z"/><path class="cls-1" d="M76.6,25.07a1.92,1.92,0,0,1-1.3-.52,1.9,1.9,0,0,1-.08-2.68L88.74,7.46a1.9,1.9,0,1,1,2.77,2.59L78,24.47A1.92,1.92,0,0,1,76.6,25.07Z"/><path class="cls-1" d="M60.21,28a1.93,1.93,0,0,1-1.3-.51,1.9,1.9,0,0,1-.08-2.68L72.35,10.38A1.9,1.9,0,0,1,75.12,13L61.59,27.39A1.88,1.88,0,0,1,60.21,28Z"/><path class="cls-1" d="M43.82,30.91a1.89,1.89,0,0,1-1.38-3.19L56,13.31a1.89,1.89,0,1,1,2.76,2.59L45.2,30.32A1.89,1.89,0,0,1,43.82,30.91Z"/><path class="cls-1" d="M27.43,33.84a1.85,1.85,0,0,1-1.29-.52,1.88,1.88,0,0,1-.09-2.67L39.58,16.23a1.89,1.89,0,0,1,2.76,2.59L28.82,33.24A1.94,1.94,0,0,1,27.43,33.84Z"/><path class="cls-1" d="M17.88,28.91a1.9,1.9,0,0,1-1.39-3.19L22,19.86a1.9,1.9,0,0,1,2.78,2.58L19.26,28.3A1.88,1.88,0,0,1,17.88,28.91Z"/><path class="cls-1" d="M25.91,50.19h-24A1.89,1.89,0,0,1,0,48.3V21.15a1.89,1.89,0,0,1,1.89-1.89h12a1.89,1.89,0,0,1,1.57.83l12,17.69a1.82,1.82,0,0,1,.33,1.06V48.3A1.89,1.89,0,0,1,25.91,50.19ZM3.79,46.4H24v-7L12.9,23H3.79Z"/><path class="cls-1" d="M106.51,95.8H28.66a1.9,1.9,0,1,1,0-3.79h77.85a1.9,1.9,0,1,1,0,3.79Z"/><path class="cls-1" d="M106.05,79.79H28.2a1.9,1.9,0,1,1,0-3.79h77.85a1.9,1.9,0,1,1,0,3.79Z"/></g></g></svg>