<svg xmlns="http://www.w3.org/2000/svg" viewBox="0 0 176.19 124.57"><defs><style>.cls-1{fill:#231f20;}</style></defs><g id="Layer_2" data-name="Layer 2"><g id="Layer_1-2" data-name="Layer 1"><path class="cls-1" d="M12.31,15.36a4.95,4.95,0,1,1,5-4.94A5,5,0,0,1,12.31,15.36Zm0-6.1a1.16,1.16,0,1,0,1.16,1.16A1.16,1.16,0,0,0,12.31,9.26Z"/><path class="cls-1" d="M23.68,15.36a4.95,4.95,0,1,1,4.94-4.94A5,5,0,0,1,23.68,15.36Zm0-6.1a1.16,1.16,0,1,0,1.15,1.16A1.16,1.16,0,0,0,23.68,9.26Z"/><path class="cls-1" d="M35.05,15.36A4.95,4.95,0,1,1,40,10.42,4.94,4.94,0,0,1,35.05,15.36Zm0-6.1a1.16,1.16,0,1,0,1.15,1.16A1.16,1.16,0,0,0,35.05,9.26Z"/><path class="cls-1" d="M174.3,124.57H1.89A1.9,1.9,0,0,1,0,122.67V1.89A1.89,1.89,0,0,1,1.89,0H174.3a1.89,1.89,0,0,1,1.89,1.89V122.67A1.89,1.89,0,0,1,174.3,124.57ZM3.79,120.78H172.4V3.79H3.79Z"/><path class="cls-1" d="M174.3,19.73H1.89a1.9,1.9,0,0,1,0-3.79H174.3a1.9,1.9,0,0,1,0,3.79Z"/><path class="cls-1" d="M139.56,54.39H36.63a1.9,1.9,0,0,1-1.9-1.89V41.28a1.9,1.9,0,0,1,1.9-1.9H139.56a1.9,1.9,0,0,1,1.9,1.9V52.5A1.9,1.9,0,0,1,139.56,54.39Zm-101-3.79h99.15V43.17H38.52Z"/><path class="cls-1" d="M139.56,98.38H81.48a1.9,1.9,0,0,1-1.89-1.9V59.17a1.89,1.89,0,0,1,1.89-1.89h58.08a1.9,1.9,0,0,1,1.9,1.89V96.48A1.9,1.9,0,0,1,139.56,98.38ZM83.38,94.59h54.29V61.07H83.38Z"/><path class="cls-1" d="M73.81,69H36.63a1.89,1.89,0,0,1-1.9-1.89v-7.9a1.9,1.9,0,0,1,1.9-1.89H73.81a1.89,1.89,0,0,1,1.89,1.89v7.9A1.88,1.88,0,0,1,73.81,69ZM38.52,65.18h33.4V61.07H38.52Z"/><path class="cls-1" d="M73.81,83.67H36.63a1.9,1.9,0,0,1-1.9-1.89v-7.9a1.9,1.9,0,0,1,1.9-1.9H73.81a1.89,1.89,0,0,1,1.89,1.9v7.9A1.89,1.89,0,0,1,73.81,83.67ZM38.52,79.88h33.4V75.77H38.52Z"/><path class="cls-1" d="M73.81,98.38H36.63a1.9,1.9,0,0,1-1.9-1.9V88.59a1.9,1.9,0,0,1,1.9-1.9H73.81a1.89,1.89,0,0,1,1.89,1.9v7.89A1.89,1.89,0,0,1,73.81,98.38ZM38.52,94.59h33.4V90.48H38.52Z"/><path class="cls-1" d="M134.38,74a1.89,1.89,0,0,1-1.34-.56l-7-7a1.9,1.9,0,1,1,2.68-2.68l7,7A1.9,1.9,0,0,1,134.38,74Z"/><path class="cls-1" d="M127.39,74a1.9,1.9,0,0,1-1.34-3.23l7-7a1.89,1.89,0,1,1,2.67,2.68l-7,7A1.9,1.9,0,0,1,127.39,74Z"/><path class="cls-1" d="M99.9,90.48a1.89,1.89,0,0,1-1.81-1.37l-2.89-10-2.69,10a1.92,1.92,0,0,1-2.33,1.34,1.88,1.88,0,0,1-1.33-2.32l4.46-16.54a1.89,1.89,0,0,1,1.81-1.4A1.83,1.83,0,0,1,97,71.53l4.77,16.53a1.89,1.89,0,0,1-1.83,2.42Z"/><path class="cls-1" d="M98.47,85.48H92a1.9,1.9,0,1,1,0-3.79h6.44a1.9,1.9,0,0,1,0,3.79Z"/><path class="cls-1" d="M107.55,90.48h-2.4a1.9,1.9,0,0,1-1.9-1.89V72.05a1.9,1.9,0,0,1,1.9-1.89h2.4a6.92,6.92,0,0,1,6.91,6.91v6.5A6.92,6.92,0,0,1,107.55,90.48ZM107,86.69h.51a3.12,3.12,0,0,0,3.12-3.12v-6.5A3.12,3.12,0,0,0,107.55,74H107Z"/></g></g></svg>