<svg xmlns="http://www.w3.org/2000/svg" viewBox="0 0 141.78 126.9"><defs><style>.cls-1{fill:#231f20;}</style></defs><g id="Layer_2" data-name="Layer 2"><g id="Layer_1-2" data-name="Layer 1"><path class="cls-1" d="M124.09,57.15a1.89,1.89,0,0,1-1.89-1.89,51.47,51.47,0,0,0-102.94,0,1.9,1.9,0,0,1-3.79,0,55.26,55.26,0,1,1,110.52,0A1.89,1.89,0,0,1,124.09,57.15Z"/><path class="cls-1" d="M124.09,63.18a1.89,1.89,0,0,1-1.89-1.89,51.47,51.47,0,0,0-102.94,0,1.9,1.9,0,0,1-3.79,0,55.26,55.26,0,1,1,110.52,0A1.9,1.9,0,0,1,124.09,63.18Z"/><path class="cls-1" d="M131.23,77.44h-7.14a1.9,1.9,0,0,1-1.89-1.9V50.29a1.9,1.9,0,0,1,1.89-1.9h7.14a10.56,10.56,0,0,1,10.55,10.55v8A10.56,10.56,0,0,1,131.23,77.44ZM126,73.65h5.24A6.77,6.77,0,0,0,138,66.89v-8a6.77,6.77,0,0,0-6.76-6.76H126Z"/><path class="cls-1" d="M17.68,77.44H10.55A10.56,10.56,0,0,1,0,66.89v-8A10.56,10.56,0,0,1,10.55,48.39h7.13a1.9,1.9,0,0,1,1.9,1.9V75.54A1.9,1.9,0,0,1,17.68,77.44ZM10.55,52.18a6.76,6.76,0,0,0-6.76,6.76v8a6.76,6.76,0,0,0,6.76,6.76h5.24V52.18Z"/><path class="cls-1" d="M60,121a2.43,2.43,0,0,1-.38,0A55.44,55.44,0,0,1,15.47,66.83a1.9,1.9,0,1,1,3.79,0,51.62,51.62,0,0,0,41.1,50.42A1.89,1.89,0,0,1,60,121Z"/><path class="cls-1" d="M74,126.9a5.48,5.48,0,0,1-.7,0h0l-10-1.2a5.92,5.92,0,0,1,1.41-11.75l10,1.19A5.92,5.92,0,0,1,74,126.9Zm-.26-3.8a2.18,2.18,0,0,0,2.38-1.86,2.14,2.14,0,0,0-1.87-2.38l-10-1.19a2.16,2.16,0,0,0-2.37,1.86,2.14,2.14,0,0,0,1.87,2.37Z"/><path class="cls-1" d="M124.09,119.47H111.36a1.89,1.89,0,0,1-1.9-1.89v-4.77a3.87,3.87,0,0,0-7.73,0v4.77a1.89,1.89,0,0,1-1.9,1.89H85.38a1.89,1.89,0,0,1-1.9-1.89v-11.7H80.56a7.66,7.66,0,1,1,0-15.32h2.92V78.86A1.9,1.9,0,0,1,85.38,77H97.94V74.11a7.66,7.66,0,0,1,15.31,0V77h10.84a1.9,1.9,0,0,1,1.9,1.89v13.6a1.89,1.89,0,0,1-1.9,1.89h-4.82a3.87,3.87,0,1,0,0,7.74h4.82A1.9,1.9,0,0,1,126,104v13.6A1.89,1.89,0,0,1,124.09,119.47Zm-10.84-3.78h9v-9.81h-2.93a7.66,7.66,0,1,1,0-15.32h2.93v-9.8H111.36a1.9,1.9,0,0,1-1.9-1.9V74.11a3.87,3.87,0,0,0-7.73,0v4.75a1.9,1.9,0,0,1-1.9,1.9H87.27v11.7a1.89,1.89,0,0,1-1.89,1.89H80.56a3.87,3.87,0,1,0,0,7.74h4.82A1.89,1.89,0,0,1,87.27,104v11.71H97.94v-2.88a7.66,7.66,0,0,1,15.31,0Z"/></g></g></svg>