<svg xmlns="http://www.w3.org/2000/svg" viewBox="0 0 130.3 141.03"><defs><style>.cls-1{fill:#231f20;}</style></defs><g id="Layer_2" data-name="Layer 2"><g id="Layer_1-2" data-name="Layer 1"><path class="cls-1" d="M107.51,112.08H98a1.9,1.9,0,0,1,0-3.79h9a1.86,1.86,0,0,1,.41-.08,20.8,20.8,0,0,0-1.65-41.53A20.58,20.58,0,0,0,96,69.07a1.89,1.89,0,0,1-2.77-1.82c.06-.71.11-1.41.11-2.12a28,28,0,0,0-56,0c0,.79,0,1.58.12,2.36a1.9,1.9,0,0,1-.86,1.75,1.87,1.87,0,0,1-1.95.06,20.8,20.8,0,1,0-10.1,39H35.08a1.9,1.9,0,0,1,0,3.79H24.6a24.6,24.6,0,1,1,9-47.48,31.78,31.78,0,0,1,63.54-.17,24.58,24.58,0,1,1,11,47.5A1.62,1.62,0,0,1,107.51,112.08Z"/><path class="cls-1" d="M17.29,19.11A7.68,7.68,0,1,1,25,11.43,7.68,7.68,0,0,1,17.29,19.11Zm0-11.57a3.89,3.89,0,1,0,3.89,3.89A3.89,3.89,0,0,0,17.29,7.54Z"/><path class="cls-1" d="M115,35a7.68,7.68,0,1,1,7.68-7.68A7.69,7.69,0,0,1,115,35Zm0-11.57a3.89,3.89,0,1,0,3.89,3.89A3.89,3.89,0,0,0,115,23.46Z"/><path class="cls-1" d="M90.22,23.46a7.68,7.68,0,1,1,7.68-7.68A7.69,7.69,0,0,1,90.22,23.46Zm0-11.57a3.89,3.89,0,1,0,3.89,3.89A3.9,3.9,0,0,0,90.22,11.89Z"/><path class="cls-1" d="M45,30.68A7.68,7.68,0,1,1,52.63,23,7.69,7.69,0,0,1,45,30.68Zm0-11.57A3.89,3.89,0,1,0,48.84,23,3.9,3.9,0,0,0,45,19.11Z"/><path class="cls-1" d="M66.54,37.14a1.9,1.9,0,0,1-1.9-1.89V1.89a1.9,1.9,0,0,1,3.79,0V35.25A1.89,1.89,0,0,1,66.54,37.14Z"/><path class="cls-1" d="M27.82,66.91a1.9,1.9,0,0,1-1.9-1.9V20.7L21,15.43a1.9,1.9,0,0,1,2.77-2.59l5.44,5.82a1.88,1.88,0,0,1,.51,1.3V65A1.89,1.89,0,0,1,27.82,66.91Z"/><path class="cls-1" d="M104.74,66.68a1.9,1.9,0,0,1-1.9-1.9V36.12a1.87,1.87,0,0,1,.51-1.29L108.8,29a1.9,1.9,0,1,1,2.77,2.59l-4.94,5.27V64.78A1.9,1.9,0,0,1,104.74,66.68Z"/><path class="cls-1" d="M45,44.5a1.89,1.89,0,0,1-1.89-1.9V28.78a1.9,1.9,0,0,1,3.79,0V42.6A1.9,1.9,0,0,1,45,44.5Z"/><path class="cls-1" d="M90.22,49.44a1.89,1.89,0,0,1-1.89-1.9v-26a1.9,1.9,0,1,1,3.79,0v26A1.9,1.9,0,0,1,90.22,49.44Z"/><path class="cls-1" d="M98,102.62H35.08a1.9,1.9,0,0,1-1.9-1.89V83.59a1.89,1.89,0,0,1,1.9-1.89H98a1.89,1.89,0,0,1,1.9,1.89v17.14A1.9,1.9,0,0,1,98,102.62ZM37,98.83H96.11V85.48H37Z"/><path class="cls-1" d="M98,119.76H35.08a1.9,1.9,0,0,1-1.9-1.9V100.73a1.9,1.9,0,0,1,1.9-1.9H98a1.9,1.9,0,0,1,1.9,1.9v17.13A1.9,1.9,0,0,1,98,119.76ZM37,116H96.11V102.62H37Z"/><path class="cls-1" d="M68.05,141a6.89,6.89,0,1,1,6.89-6.88A6.89,6.89,0,0,1,68.05,141Zm0-10a3.1,3.1,0,1,0,3.1,3.1A3.1,3.1,0,0,0,68.05,131.05Z"/><path class="cls-1" d="M93,141a6.89,6.89,0,1,1,6.89-6.88A6.89,6.89,0,0,1,93,141Zm0-10a3.1,3.1,0,1,0,3.1,3.1A3.1,3.1,0,0,0,93,131.05Z"/><path class="cls-1" d="M45.07,97.29a5.14,5.14,0,1,1,5.13-5.13A5.14,5.14,0,0,1,45.07,97.29Zm0-6.48a1.35,1.35,0,1,0,1.34,1.35A1.35,1.35,0,0,0,45.07,90.81Z"/><path class="cls-1" d="M57.3,97.29a5.14,5.14,0,1,1,5.14-5.13A5.13,5.13,0,0,1,57.3,97.29Zm0-6.48a1.35,1.35,0,1,0,1.35,1.35A1.35,1.35,0,0,0,57.3,90.81Z"/><path class="cls-1" d="M45.07,114.43a5.14,5.14,0,1,1,5.13-5.14A5.15,5.15,0,0,1,45.07,114.43Zm0-6.48a1.35,1.35,0,1,0,1.34,1.34A1.34,1.34,0,0,0,45.07,108Z"/><path class="cls-1" d="M57.3,114.43a5.14,5.14,0,1,1,5.14-5.14A5.14,5.14,0,0,1,57.3,114.43Zm0-6.48a1.35,1.35,0,1,0,1.35,1.34A1.34,1.34,0,0,0,57.3,108Z"/><path class="cls-1" d="M40.07,141A6.89,6.89,0,1,1,47,134.15,6.89,6.89,0,0,1,40.07,141Zm0-10a3.1,3.1,0,1,0,3.1,3.1A3.1,3.1,0,0,0,40.07,131.05Z"/><path class="cls-1" d="M68.05,131.05a1.9,1.9,0,0,1-1.89-1.9V117.86a1.9,1.9,0,0,1,3.79,0v11.29A1.9,1.9,0,0,1,68.05,131.05Z"/><path class="cls-1" d="M88,136H73a1.9,1.9,0,0,1,0-3.79H88A1.9,1.9,0,0,1,88,136Z"/><path class="cls-1" d="M63.06,136h-18a1.9,1.9,0,1,1,0-3.79h18a1.9,1.9,0,0,1,0,3.79Z"/></g></g></svg>