<svg xmlns="http://www.w3.org/2000/svg" viewBox="0 0 130.3 140.85"><defs><style>.cls-1{fill:#231f20;}</style></defs><g id="Layer_2" data-name="Layer 2"><g id="Layer_1-2" data-name="Layer 1"><path class="cls-1" d="M66.64,140.85a32.48,32.48,0,0,1-5.74-.5,1.89,1.89,0,0,1-1.52-1.44l-.84-3.65A28.47,28.47,0,0,1,51.37,132L48,133.75a1.89,1.89,0,0,1-2.06-.21A33.3,33.3,0,0,1,41,128.61a1.91,1.91,0,0,1-.22-2.06l1.74-3.4A28.24,28.24,0,0,1,39.23,116l-3.65-.83a1.87,1.87,0,0,1-1.44-1.51,33.35,33.35,0,0,1-.52-5.83q0-.64,0-1.29a1.88,1.88,0,0,1,1.15-1.67l3.6-1.53a28.35,28.35,0,0,1,2.05-7l-2.26-3a1.89,1.89,0,0,1-.12-2.1,33.46,33.46,0,0,1,4.49-6,1.9,1.9,0,0,1,1.94-.51l3.81,1.17a29.16,29.16,0,0,1,5.34-3.55l.19-3.77a1.91,1.91,0,0,1,1.23-1.68A32.91,32.91,0,0,1,62.8,75a1.92,1.92,0,0,1,1.81.85l2.18,3.35a28.61,28.61,0,0,1,5.63.59L75,77a1.86,1.86,0,0,1,2-.51A32.4,32.4,0,0,1,84.45,80a1.89,1.89,0,0,1,.86,1.82l-.49,3.92a28.43,28.43,0,0,1,3.81,3.79l3.92-.49a1.9,1.9,0,0,1,1.83.84,32.84,32.84,0,0,1,3.56,7.41,1.9,1.9,0,0,1-.5,2l-2.82,2.63a28.91,28.91,0,0,1,.61,5.65l3.36,2.17a1.93,1.93,0,0,1,.86,1.8,32.39,32.39,0,0,1-1.84,7.73,1.87,1.87,0,0,1-1.67,1.23l-3.77.2a28.86,28.86,0,0,1-3.55,5.39l1.18,3.8a1.89,1.89,0,0,1-.5,1.94,32.57,32.57,0,0,1-6,4.5,1.88,1.88,0,0,1-2.09-.12l-3-2.25a27.92,27.92,0,0,1-7,2.08l-1.51,3.6A1.93,1.93,0,0,1,68,140.83C67.56,140.85,67.1,140.85,66.64,140.85Zm-3.86-4a29.87,29.87,0,0,0,3.88.25l1.45-3.46a1.88,1.88,0,0,1,1.52-1.14,24.72,24.72,0,0,0,8-2.38,1.89,1.89,0,0,1,2,.19l2.86,2.16a30,30,0,0,0,3.39-2.55l-1.14-3.65a1.93,1.93,0,0,1,.4-1.83,24.85,24.85,0,0,0,4.13-6.3,1.89,1.89,0,0,1,1.63-1.1l3.62-.19a30.15,30.15,0,0,0,1.06-4.51l-3.23-2.09a1.88,1.88,0,0,1-.87-1.67v-.71a24.8,24.8,0,0,0-.75-6.07,1.88,1.88,0,0,1,.55-1.85l2.7-2.52A28.39,28.39,0,0,0,91.82,93l-3.77.48a1.91,1.91,0,0,1-1.74-.73,24.81,24.81,0,0,0-4.64-4.63,1.9,1.9,0,0,1-.74-1.74l.47-3.76A28.84,28.84,0,0,0,77,80.49l-2.52,2.72a1.93,1.93,0,0,1-1.85.55,24.89,24.89,0,0,0-6-.73l-.83,0a1.9,1.9,0,0,1-1.63-.87L62.08,79A29.15,29.15,0,0,0,57.56,80l-.18,3.62a1.88,1.88,0,0,1-1.09,1.63A25,25,0,0,0,50,89.42a1.87,1.87,0,0,1-1.82.41L44.54,88.7A30.37,30.37,0,0,0,42,92.12L44.16,95a1.87,1.87,0,0,1,.19,2,24.86,24.86,0,0,0-2.34,8,1.9,1.9,0,0,1-1.14,1.52l-3.46,1.47a29.63,29.63,0,0,0,.26,3.88l3.51.8a1.89,1.89,0,0,1,1.41,1.38,25,25,0,0,0,3.65,8,1.91,1.91,0,0,1,.14,1.94l-1.67,3.27a30,30,0,0,0,2.65,2.64l3.26-1.67a1.92,1.92,0,0,1,2,.12,24.27,24.27,0,0,0,8,3.64A1.9,1.9,0,0,1,62,133.3Zm3.86-12.88a16.1,16.1,0,1,1,16.09-16.1A16.11,16.11,0,0,1,66.64,123.93Zm0-28.4a12.31,12.31,0,1,0,12.3,12.3A12.32,12.32,0,0,0,66.64,95.53Z"/><path class="cls-1" d="M107.51,123.65H89.25a1.9,1.9,0,1,1,0-3.79H107a1.75,1.75,0,0,1,.41-.08,20.8,20.8,0,0,0-1.65-41.53A20.55,20.55,0,0,0,96,80.64a1.9,1.9,0,0,1-2.77-1.83c.06-.7.11-1.4.11-2.11a28,28,0,0,0-56,0c0,.8,0,1.58.12,2.36a1.9,1.9,0,0,1-.86,1.75,1.87,1.87,0,0,1-1.95.06,20.8,20.8,0,1,0-10.1,39H43.88a1.9,1.9,0,0,1,0,3.79H24.6a24.6,24.6,0,1,1,9-47.48A31.78,31.78,0,0,1,97.15,76a24.59,24.59,0,1,1,11,47.51A1.77,1.77,0,0,1,107.51,123.65Z"/><path class="cls-1" d="M17.29,30.68A7.68,7.68,0,1,1,25,23,7.68,7.68,0,0,1,17.29,30.68Zm0-11.57A3.89,3.89,0,1,0,21.18,23,3.89,3.89,0,0,0,17.29,19.11Z"/><path class="cls-1" d="M115,46.6a7.68,7.68,0,1,1,7.68-7.68A7.69,7.69,0,0,1,115,46.6ZM115,35a3.89,3.89,0,1,0,3.89,3.89A3.89,3.89,0,0,0,115,35Z"/><path class="cls-1" d="M66.54,15.36a7.68,7.68,0,1,1,7.68-7.68A7.69,7.69,0,0,1,66.54,15.36Zm0-11.57a3.89,3.89,0,1,0,3.89,3.89A3.89,3.89,0,0,0,66.54,3.79Z"/><path class="cls-1" d="M90.22,35a7.68,7.68,0,1,1,7.68-7.68A7.69,7.69,0,0,1,90.22,35Zm0-11.57a3.89,3.89,0,1,0,3.89,3.89A3.9,3.9,0,0,0,90.22,23.46Z"/><path class="cls-1" d="M45,42.25a7.68,7.68,0,1,1,7.68-7.68A7.69,7.69,0,0,1,45,42.25Zm0-11.57a3.89,3.89,0,1,0,3.89,3.89A3.9,3.9,0,0,0,45,30.68Z"/><path class="cls-1" d="M66.54,48.71a1.9,1.9,0,0,1-1.9-1.89V13.46a1.9,1.9,0,0,1,3.79,0V46.82A1.89,1.89,0,0,1,66.54,48.71Z"/><path class="cls-1" d="M27.82,78.48a1.9,1.9,0,0,1-1.9-1.89V32.27L21,27a1.9,1.9,0,0,1,2.77-2.59l5.44,5.82a1.9,1.9,0,0,1,.51,1.3V76.59A1.89,1.89,0,0,1,27.82,78.48Z"/><path class="cls-1" d="M104.74,78.25a1.9,1.9,0,0,1-1.9-1.9V47.69a1.87,1.87,0,0,1,.51-1.29l5.45-5.82a1.9,1.9,0,0,1,2.77,2.59l-4.94,5.27V76.35A1.9,1.9,0,0,1,104.74,78.25Z"/><path class="cls-1" d="M45,56.07a1.89,1.89,0,0,1-1.89-1.9V40.35a1.9,1.9,0,0,1,3.79,0V54.17A1.9,1.9,0,0,1,45,56.07Z"/><path class="cls-1" d="M90.22,61a1.89,1.89,0,0,1-1.89-1.9v-26a1.9,1.9,0,0,1,3.79,0v26A1.9,1.9,0,0,1,90.22,61Z"/></g></g></svg>