<svg xmlns="http://www.w3.org/2000/svg" viewBox="0 0 105.24 112.48"><defs><style>.cls-1{fill:#231f20;}</style></defs><g id="Layer_2" data-name="Layer 2"><g id="Layer_1-2" data-name="Layer 1"><path class="cls-1" d="M103.35,112.48H26.24a1.89,1.89,0,0,1-1.89-1.89V90.1a1.9,1.9,0,0,1,3.79,0v18.59h73.31V3.79H28.14V34.92a1.9,1.9,0,0,1-3.79,0v-33A1.89,1.89,0,0,1,26.24,0h77.11a1.89,1.89,0,0,1,1.89,1.89v108.7A1.89,1.89,0,0,1,103.35,112.48Z"/><path class="cls-1" d="M26.24,73.53a1.9,1.9,0,0,1-1.89-1.9V53.39a1.9,1.9,0,0,1,3.79,0V71.63A1.9,1.9,0,0,1,26.24,73.53Z"/><path class="cls-1" d="M36.66,14.89a4.94,4.94,0,1,1,5-4.94A4.94,4.94,0,0,1,36.66,14.89Zm0-6.09A1.15,1.15,0,1,0,37.82,10,1.15,1.15,0,0,0,36.66,8.8Z"/><path class="cls-1" d="M48,14.89A4.94,4.94,0,1,1,53,10,4.94,4.94,0,0,1,48,14.89ZM48,8.8A1.15,1.15,0,1,0,49.19,10,1.15,1.15,0,0,0,48,8.8Z"/><path class="cls-1" d="M59.4,14.89A4.94,4.94,0,1,1,64.34,10,4.94,4.94,0,0,1,59.4,14.89Zm0-6.09A1.15,1.15,0,1,0,60.55,10,1.14,1.14,0,0,0,59.4,8.8Z"/><path class="cls-1" d="M103.35,19.27H26.24a1.9,1.9,0,0,1,0-3.79h77.11a1.9,1.9,0,0,1,0,3.79Z"/><path class="cls-1" d="M68.21,55.28H11.06a3.74,3.74,0,0,1-3.74-3.73V41.11L.8,36.46A1.89,1.89,0,0,1,1.89,33H68.21a3.74,3.74,0,0,1,3.73,3.74V51.55A3.73,3.73,0,0,1,68.21,55.28ZM7.82,36.81l2.5,1.78a1.88,1.88,0,0,1,.79,1.54V51.55l57,0V36.76Z"/><path class="cls-1" d="M76.7,92H20.59a4.25,4.25,0,0,1-4.25-4.25V77.82L9.81,73.18a1.89,1.89,0,0,1,1.1-3.44H76.7A4.25,4.25,0,0,1,81,74V87.75A4.26,4.26,0,0,1,76.7,92ZM16.84,73.53l2.49,1.77a1.89,1.89,0,0,1,.8,1.54V87.75a.46.46,0,0,0,.46.46H76.7a.47.47,0,0,0,.47-.46V74a.46.46,0,0,0-.47-.46Z"/></g></g></svg>