<svg xmlns="http://www.w3.org/2000/svg" viewBox="0 0 130.97 124.57"><defs><style>.cls-1{fill:#231f20;}</style></defs><g id="Layer_2" data-name="Layer 2"><g id="Layer_1-2" data-name="Layer 1"><path class="cls-1" d="M96.94,68H34a1.89,1.89,0,0,1-1.89-1.89V49A1.89,1.89,0,0,1,34,47.06H96.94a1.9,1.9,0,0,1,1.9,1.9V66.1A1.9,1.9,0,0,1,96.94,68Zm-61-3.79H95.05V50.85H35.92Z"/><path class="cls-1" d="M96.94,85.13H34a1.89,1.89,0,0,1-1.89-1.9V66.1A1.89,1.89,0,0,1,34,64.2H96.94a1.9,1.9,0,0,1,1.9,1.9V83.23A1.9,1.9,0,0,1,96.94,85.13Zm-61-3.79H95.05V68H35.92Z"/><path class="cls-1" d="M12.31,15.36a4.94,4.94,0,1,1,5-4.94A5,5,0,0,1,12.31,15.36Zm0-6.09a1.15,1.15,0,1,0,1.16,1.15A1.15,1.15,0,0,0,12.31,9.27Z"/><path class="cls-1" d="M23.68,15.36a4.94,4.94,0,1,1,4.95-4.94A4.94,4.94,0,0,1,23.68,15.36Zm0-6.09a1.15,1.15,0,1,0,1.16,1.15A1.15,1.15,0,0,0,23.68,9.27Z"/><path class="cls-1" d="M34.19,15.36a4.94,4.94,0,1,1,4.94-4.94A5,5,0,0,1,34.19,15.36Zm0-6.09a1.15,1.15,0,1,0,1.15,1.15A1.15,1.15,0,0,0,34.19,9.27Z"/><path class="cls-1" d="M129.07,124.57H1.89A1.9,1.9,0,0,1,0,122.67V1.89A1.89,1.89,0,0,1,1.89,0H129.07A1.9,1.9,0,0,1,131,1.89V122.67A1.9,1.9,0,0,1,129.07,124.57ZM3.79,120.78H127.18V3.79H3.79Z"/><path class="cls-1" d="M129.07,19.73H1.89a1.9,1.9,0,0,1,0-3.79H129.07a1.9,1.9,0,1,1,0,3.79Z"/><path class="cls-1" d="M67,106.41a6.89,6.89,0,1,1,6.89-6.89A6.89,6.89,0,0,1,67,106.41Zm0-10a3.1,3.1,0,1,0,3.11,3.1A3.09,3.09,0,0,0,67,96.42Z"/><path class="cls-1" d="M92,106.41a6.89,6.89,0,1,1,6.89-6.89A6.9,6.9,0,0,1,92,106.41Zm0-10a3.1,3.1,0,1,0,3.1,3.1A3.1,3.1,0,0,0,92,96.42Z"/><path class="cls-1" d="M44,62.66a5.14,5.14,0,1,1,5.13-5.13A5.13,5.13,0,0,1,44,62.66Zm0-6.48a1.35,1.35,0,1,0,0,2.69,1.35,1.35,0,0,0,0-2.69Z"/><path class="cls-1" d="M56.24,62.66a5.14,5.14,0,1,1,5.14-5.13A5.13,5.13,0,0,1,56.24,62.66Zm0-6.48a1.35,1.35,0,1,0,1.35,1.35A1.35,1.35,0,0,0,56.24,56.18Z"/><path class="cls-1" d="M44,79.8a5.14,5.14,0,1,1,5.13-5.14A5.14,5.14,0,0,1,44,79.8Zm0-6.48a1.35,1.35,0,1,0,1.34,1.34A1.35,1.35,0,0,0,44,73.32Z"/><path class="cls-1" d="M56.24,79.8a5.14,5.14,0,1,1,5.14-5.14A5.14,5.14,0,0,1,56.24,79.8Zm0-6.48a1.35,1.35,0,1,0,1.35,1.34A1.34,1.34,0,0,0,56.24,73.32Z"/><path class="cls-1" d="M39,106.41a6.89,6.89,0,1,1,6.88-6.89A6.9,6.9,0,0,1,39,106.41Zm0-10a3.1,3.1,0,1,0,3.09,3.1A3.1,3.1,0,0,0,39,96.42Z"/><path class="cls-1" d="M67,96.42a1.9,1.9,0,0,1-1.89-1.9V83.23a1.9,1.9,0,0,1,3.79,0V94.52A1.9,1.9,0,0,1,67,96.42Z"/><path class="cls-1" d="M87,101.41H72a1.9,1.9,0,0,1,0-3.79H87a1.9,1.9,0,0,1,0,3.79Z"/><path class="cls-1" d="M62,101.41H44a1.9,1.9,0,1,1,0-3.79H62a1.9,1.9,0,1,1,0,3.79Z"/></g></g></svg>