<svg xmlns="http://www.w3.org/2000/svg" viewBox="0 0 176.19 124.57"><defs><style>.cls-1{fill:#231f20;}</style></defs><g id="Layer_2" data-name="Layer 2"><g id="Layer_1-2" data-name="Layer 1"><path class="cls-1" d="M12.31,15.36a4.94,4.94,0,1,1,5-4.94A5,5,0,0,1,12.31,15.36Zm0-6.09a1.15,1.15,0,1,0,1.16,1.15A1.15,1.15,0,0,0,12.31,9.27Z"/><path class="cls-1" d="M23.68,15.36a4.94,4.94,0,1,1,4.94-4.94A5,5,0,0,1,23.68,15.36Zm0-6.09a1.15,1.15,0,1,0,1.15,1.15A1.15,1.15,0,0,0,23.68,9.27Z"/><path class="cls-1" d="M35.05,15.36A4.94,4.94,0,1,1,40,10.42,4.94,4.94,0,0,1,35.05,15.36Zm0-6.09a1.15,1.15,0,1,0,1.15,1.15A1.15,1.15,0,0,0,35.05,9.27Z"/><path class="cls-1" d="M174.3,124.57H1.89A1.9,1.9,0,0,1,0,122.67V1.89A1.89,1.89,0,0,1,1.89,0H174.3a1.89,1.89,0,0,1,1.89,1.89V122.67A1.89,1.89,0,0,1,174.3,124.57ZM3.79,120.78H172.41V3.79H3.79Z"/><path class="cls-1" d="M174.3,19.73H1.89a1.9,1.9,0,0,1,0-3.79H174.3a1.9,1.9,0,0,1,0,3.79Z"/><path class="cls-1" d="M62.82,90.43a1.89,1.89,0,0,1-1.34-.56L40,68.44a1.9,1.9,0,0,1,0-2.68L61.48,44.32A1.9,1.9,0,0,1,64.16,47L44.06,67.1l20.1,20.09a1.9,1.9,0,0,1-1.34,3.24Z"/><path class="cls-1" d="M118.81,90.43a1.9,1.9,0,0,1-1.34-3.24l20.1-20.09L117.47,47a1.9,1.9,0,1,1,2.68-2.68l21.44,21.44a1.9,1.9,0,0,1,0,2.68L120.15,89.87A1.89,1.89,0,0,1,118.81,90.43Z"/></g></g></svg>