<svg xmlns="http://www.w3.org/2000/svg" viewBox="0 0 188.9 201.13"><defs><style>.cls-1{fill:#fff;}.cls-2{fill:#d40725;}</style></defs><g id="Layer_2" data-name="Layer 2"><g id="Layer_1-2" data-name="Layer 1"><rect class="cls-1" x="99.8" y="35.37" width="88.09" height="144.26"/><path d="M188.9,180.64H98.79V34.36H188.9Zm-88.09-2h86.07V36.38H100.81Z"/><rect class="cls-1" x="111.85" y="46.87" width="65.15" height="62.95"/><path d="M178,110.83H110.84v-65H178Zm-65.14-2H176V47.88H112.86Z"/><line class="cls-1" x1="111.85" y1="125.47" x2="177" y2="125.47"/><rect x="111.85" y="124.46" width="65.15" height="2.02"/><line class="cls-1" x1="177" y1="138.37" x2="111.85" y2="138.37"/><rect x="111.85" y="137.36" width="65.15" height="2.02"/><line class="cls-1" x1="177" y1="151.27" x2="111.85" y2="151.27"/><rect x="111.85" y="150.26" width="65.15" height="2.02"/><circle class="cls-1" cx="144.42" cy="73.14" r="11.12"/><path d="M144.42,85.27a12.13,12.13,0,1,1,12.13-12.13A12.14,12.14,0,0,1,144.42,85.27Zm0-22.24a10.11,10.11,0,1,0,10.11,10.11A10.12,10.12,0,0,0,144.42,63Z"/><path d="M171.68,109.82h-2a24.48,24.48,0,1,0-48.95,0h-2a26.5,26.5,0,0,1,53,0Z"/><rect class="cls-1" x="78.95" y="1.01" width="88.09" height="144.26"/><path d="M168.05,146.28H77.94V0h90.11Zm-88.09-2H166V2H80Z"/><rect class="cls-1" x="91" y="12.5" width="65.15" height="62.95"/><path d="M157.16,76.47H90v-65h67.17ZM92,74.45h63.13V13.51H92Z"/><line class="cls-1" x1="91" y1="91.1" x2="156.15" y2="91.1"/><rect x="91" y="90.09" width="65.15" height="2.02"/><line class="cls-1" x1="156.15" y1="104.01" x2="91" y2="104.01"/><rect x="91" y="103" width="65.15" height="2.02"/><line class="cls-1" x1="156.15" y1="116.91" x2="91" y2="116.91"/><rect x="91" y="115.9" width="65.15" height="2.02"/><circle class="cls-1" cx="123.58" cy="38.78" r="11.12"/><path d="M123.58,50.9A12.13,12.13,0,1,1,135.7,38.78,12.14,12.14,0,0,1,123.58,50.9Zm0-22.23a10.11,10.11,0,1,0,10.1,10.11A10.11,10.11,0,0,0,123.58,28.67Z"/><path d="M150.83,75.46h-2a24.47,24.47,0,1,0-48.94,0h-2a26.49,26.49,0,1,1,53,0Z"/><rect class="cls-1" x="55.75" y="22.72" width="88.09" height="144.26"/><path d="M144.85,168H54.75V21.71h90.1Zm-88.09-2h86.07V23.73H56.76Z"/><rect class="cls-1" x="67.8" y="34.22" width="65.15" height="62.95"/><path d="M134,98.18H66.79v-65H134Zm-65.15-2h63.13V35.23H68.81Z"/><line class="cls-1" x1="67.8" y1="112.82" x2="132.95" y2="112.82"/><rect x="67.8" y="111.81" width="65.15" height="2.02"/><line class="cls-1" x1="132.95" y1="125.72" x2="67.8" y2="125.72"/><rect x="67.8" y="124.71" width="65.15" height="2.02"/><line class="cls-1" x1="132.95" y1="138.62" x2="67.8" y2="138.62"/><rect x="67.8" y="137.61" width="65.15" height="2.02"/><circle class="cls-1" cx="100.38" cy="60.49" r="11.12"/><path d="M100.38,72.62A12.13,12.13,0,1,1,112.5,60.49,12.14,12.14,0,0,1,100.38,72.62Zm0-22.24a10.11,10.11,0,1,0,10.1,10.11A10.12,10.12,0,0,0,100.38,50.38Z"/><path d="M127.63,97.17h-2a24.47,24.47,0,0,0-48.94,0h-2a26.49,26.49,0,0,1,53,0Z"/><path class="cls-1" d="M29.54,166s7.35,19.84,19.12,33.88l14.23-7.28s-17.75-23-10-34S29.54,166,29.54,166Z"/><path d="M48.4,201.13l-.51-.62c-11.75-14-19.22-34-19.29-34.17l-.3-.8.73-.43c8.51-5,23.16-13.09,25.64-10.39,1.1,1.19.06,3-1,4.47-7.23,10.28,9.81,32.54,10,32.77l.74,1ZM30.79,166.42c1.47,3.74,8.2,20.06,18.13,32.18l12.45-6.38c-3.36-4.6-16.55-23.9-9.31-34.2a5.89,5.89,0,0,0,1-1.93C51,155.65,40.17,160.93,30.79,166.42Z"/><path class="cls-1" d="M110.06,116.33c9.62,18.79,13.32,36.13,8.21,38.74a3.71,3.71,0,0,1-2.84.1,16.66,16.66,0,0,0-2.75-1.32C98.56,148.32,71.63,153,44.35,167a197.56,197.56,0,0,0-19.08,11.06l-.76.43c-7.78,4-17.43.59-21.6-7.54S1.6,153,9.37,149h0c1.19-.39,2.39-.83,3.6-1.28A164.36,164.36,0,0,0,30.5,140c27.55-14.11,47.21-33.49,50.69-48.24a19.82,19.82,0,0,0,.37-2,4,4,0,0,1,1.87-2.66C88.53,84.44,100.45,97.57,110.06,116.33Z"/><path d="M17.58,181.17a16.81,16.81,0,0,1-5.56-1A17.89,17.89,0,0,1,2,171.4c-4.41-8.62-1.32-19.07,6.9-23.31,1.35-.45,2.53-.89,3.73-1.33A167.07,167.07,0,0,0,30,139.05c26.5-13.57,46.66-32.69,50.17-47.57a17.43,17.43,0,0,0,.34-1.88A5,5,0,0,1,83,86.15c3.72-1.91,9,2.67,12.83,6.84,5.08,5.6,10.46,13.72,15.16,22.88h0c4.69,9.17,8.14,18.29,9.72,25.69,1.17,5.52,1.78,12.5-1.94,14.41a4.75,4.75,0,0,1-3.6.16l-.24-.1a14.35,14.35,0,0,0-2.57-1.23c-14.24-5.58-41.36-.31-67.52,13.08a198.83,198.83,0,0,0-19,11l-.81.47A16.29,16.29,0,0,1,17.58,181.17ZM84.9,87.72a2.18,2.18,0,0,0-1,.23,3,3,0,0,0-1.36,2,14.46,14.46,0,0,1-.36,2C78.53,107.37,58,127,31,140.85a168,168,0,0,1-17.61,7.8c-1.24.46-2.44.9-3.65,1.29-7.1,3.68-9.8,12.91-5.89,20.54a15.89,15.89,0,0,0,8.88,7.82,14.33,14.33,0,0,0,11.36-.71l.71-.42a198.85,198.85,0,0,1,19.13-11.08c26.64-13.65,54.43-18.94,69.16-13.18a16.89,16.89,0,0,1,2.79,1.33,2.74,2.74,0,0,0,2-.07c2-1,2.3-5.56.89-12.19-1.53-7.23-4.92-16.17-9.54-25.19s-9.89-17-14.86-22.44C90.43,90.09,87,87.72,84.9,87.72Z"/><ellipse class="cls-1" cx="100.78" cy="121.09" rx="10.16" ry="37.96" transform="translate(-44.13 59.27) rotate(-27.13)"/><path d="M116.69,156.21c-6.82,0-18-14.71-25.85-30C82.23,109.38,76.56,89.72,83,86.41c3.67-1.86,8.91,2.69,12.67,6.84,5,5.57,10.38,13.65,15,22.75,8.61,16.81,14.28,36.47,7.82,39.78A4.07,4.07,0,0,1,116.69,156.21ZM84.91,88a2.16,2.16,0,0,0-1,.22c-3.85,2-1.23,17.68,8.7,37.06s21.13,30.69,25,28.71,1.23-17.68-8.7-37.06c-4.58-9-9.82-16.87-14.74-22.31C90.35,90.36,87,88,84.91,88Z"/><path class="cls-2" d="M88.76,119.28l4.09-2.1a7.12,7.12,0,0,1,9.56,3.08h0a7.12,7.12,0,0,1-3.08,9.56L95.13,132S91.45,125.41,88.76,119.28Z"/><path d="M95.14,133a1,1,0,0,1-.89-.51c0-.07-3.74-6.67-6.41-12.77a1,1,0,0,1,.46-1.31l4.09-2.1a8.11,8.11,0,0,1,7.4,14.43l-4.2,2.15A.91.91,0,0,1,95.14,133Zm-5.07-13.23c2,4.47,4.46,9,5.47,10.88l3.33-1.7a6.09,6.09,0,0,0-5.56-10.84Z"/></g></g></svg>