<svg xmlns="http://www.w3.org/2000/svg" viewBox="0 0 176.19 124.56"><defs><style>.cls-1{fill:#231f20;}</style></defs><g id="Layer_2" data-name="Layer 2"><g id="Layer_1-2" data-name="Layer 1"><path class="cls-1" d="M12.31,15.36a4.95,4.95,0,1,1,5-4.94A5,5,0,0,1,12.31,15.36Zm0-6.1a1.16,1.16,0,1,0,1.16,1.16A1.16,1.16,0,0,0,12.31,9.26Z"/><path class="cls-1" d="M23.68,15.36a4.95,4.95,0,1,1,4.95-4.94A5,5,0,0,1,23.68,15.36Zm0-6.1a1.16,1.16,0,1,0,1.16,1.16A1.16,1.16,0,0,0,23.68,9.26Z"/><path class="cls-1" d="M35.05,15.36A4.95,4.95,0,1,1,40,10.42,4.94,4.94,0,0,1,35.05,15.36Zm0-6.1a1.16,1.16,0,1,0,1.15,1.16A1.15,1.15,0,0,0,35.05,9.26Z"/><path class="cls-1" d="M174.3,124.56H1.89A1.89,1.89,0,0,1,0,122.67V1.89A1.89,1.89,0,0,1,1.89,0H174.3a1.89,1.89,0,0,1,1.89,1.89V122.67A1.88,1.88,0,0,1,174.3,124.56ZM3.79,120.77H172.41V3.79H3.79Z"/><path class="cls-1" d="M174.3,19.73H1.89a1.9,1.9,0,0,1,0-3.79H174.3a1.9,1.9,0,0,1,0,3.79Z"/><path class="cls-1" d="M45.77,92.67a1.88,1.88,0,0,1-1.34-.55L23,70.68A1.9,1.9,0,0,1,23,68L44.43,46.56a1.9,1.9,0,0,1,2.68,2.68L27,69.34l20.1,20.1a1.89,1.89,0,0,1-1.34,3.23Z"/><path class="cls-1" d="M132,92.67a1.89,1.89,0,0,1-1.33-3.23l20.09-20.1-20.09-20.1a1.89,1.89,0,1,1,2.67-2.68L154.79,68a1.9,1.9,0,0,1,0,2.68L133.35,92.12A1.88,1.88,0,0,1,132,92.67Z"/><path d="M78.78,80.26a14.89,14.89,0,0,1-6.44,1.3c-6.76,0-11.17-4.58-11.17-11.45s4.73-11.91,12-11.91a13.75,13.75,0,0,1,5.66,1.16L78,62.52a9.4,9.4,0,0,0-4.73-1.07c-5.14,0-7.92,3.8-7.92,8.48,0,5.19,3.34,8.39,7.78,8.39a11.61,11.61,0,0,0,5-1.11Z"/><path d="M83,76.93a10.66,10.66,0,0,0,5.37,1.62c3,0,4.36-1.48,4.36-3.34s-1.16-3-4.17-4.12c-4-1.44-5.93-3.66-5.93-6.35,0-3.62,2.92-6.58,7.74-6.58a11.19,11.19,0,0,1,5.51,1.39l-1,3a8.67,8.67,0,0,0-4.58-1.3c-2.41,0-3.76,1.39-3.76,3.06,0,1.85,1.35,2.68,4.26,3.8,3.9,1.48,5.89,3.43,5.89,6.76,0,3.94-3.06,6.72-8.39,6.72A12.78,12.78,0,0,1,82,80Z"/><path d="M101.35,76.93a10.66,10.66,0,0,0,5.38,1.62c3,0,4.35-1.48,4.35-3.34s-1.16-3-4.17-4.12c-4-1.44-5.93-3.66-5.93-6.35,0-3.62,2.92-6.58,7.74-6.58a11.19,11.19,0,0,1,5.51,1.39l-1,3a8.67,8.67,0,0,0-4.58-1.3c-2.41,0-3.76,1.39-3.76,3.06,0,1.85,1.35,2.68,4.27,3.8C113,69.56,115,71.51,115,74.84c0,3.94-3.06,6.72-8.39,6.72a12.78,12.78,0,0,1-6.3-1.53Z"/></g></g></svg>