<svg xmlns="http://www.w3.org/2000/svg" viewBox="0 0 163.26 142.51"><defs><style>.cls-1{fill:#231f20;}</style></defs><g id="Layer_2" data-name="Layer 2"><g id="Layer_1-2" data-name="Layer 1"><path class="cls-1" d="M12.31,15.36a4.94,4.94,0,1,1,5-4.94A5,5,0,0,1,12.31,15.36Zm0-6.09a1.15,1.15,0,1,0,1.16,1.15A1.15,1.15,0,0,0,12.31,9.27Z"/><path class="cls-1" d="M23.68,15.36a4.94,4.94,0,1,1,4.95-4.94A5,5,0,0,1,23.68,15.36Zm0-6.09a1.15,1.15,0,1,0,1.16,1.15A1.15,1.15,0,0,0,23.68,9.27Z"/><path class="cls-1" d="M34.19,15.36a4.94,4.94,0,1,1,4.94-4.94A4.94,4.94,0,0,1,34.19,15.36Zm0-6.09a1.15,1.15,0,1,0,0,2.3,1.15,1.15,0,0,0,0-2.3Z"/><path class="cls-1" d="M53,124.56H1.89A1.89,1.89,0,0,1,0,122.67V1.89A1.89,1.89,0,0,1,1.89,0H129.07A1.9,1.9,0,0,1,131,1.89V38.37a1.9,1.9,0,1,1-3.79,0V3.79H3.79v117H53a1.9,1.9,0,0,1,0,3.79Z"/><path class="cls-1" d="M129.07,19.73H1.89a1.9,1.9,0,0,1,0-3.79H129.07a1.9,1.9,0,1,1,0,3.79Z"/><path class="cls-1" d="M40,91.07a1.89,1.89,0,0,1-1.34-.56L17.22,69.08a1.93,1.93,0,0,1-.55-1.34,1.89,1.89,0,0,1,.55-1.34L38.66,45a1.9,1.9,0,1,1,2.68,2.68l-20.1,20.1,20.1,20.09A1.9,1.9,0,0,1,40,91.07Z"/><path class="cls-1" d="M62.69,53a4.94,4.94,0,1,1,4.94-4.94A4.94,4.94,0,0,1,62.69,53Zm0-6.09a1.15,1.15,0,1,0,1.16,1.15A1.16,1.16,0,0,0,62.69,46.93Z"/><path class="cls-1" d="M74.06,53A4.94,4.94,0,1,1,79,48.08,4.94,4.94,0,0,1,74.06,53Zm0-6.09a1.15,1.15,0,1,0,1.15,1.15A1.16,1.16,0,0,0,74.06,46.93Z"/><path class="cls-1" d="M84.56,53a4.94,4.94,0,1,1,5-4.94A4.94,4.94,0,0,1,84.56,53Zm0-6.09a1.15,1.15,0,1,0,1.16,1.15A1.16,1.16,0,0,0,84.56,46.93Z"/><path class="cls-1" d="M161.37,142.51H53.92a1.9,1.9,0,0,1-1.9-1.9V39.56a1.9,1.9,0,0,1,1.9-1.9H161.37a1.9,1.9,0,0,1,1.89,1.9V140.61A1.9,1.9,0,0,1,161.37,142.51ZM55.81,138.72H159.47V41.45H55.81Z"/><path class="cls-1" d="M161.37,57.4H53.92a1.9,1.9,0,1,1,0-3.79H161.37a1.9,1.9,0,0,1,0,3.79Z"/><path class="cls-1" d="M150.3,85H65.48a1.89,1.89,0,0,1-1.89-1.89V67.74a1.9,1.9,0,0,1,1.89-1.9H150.3a1.9,1.9,0,0,1,1.9,1.9v15.4A1.89,1.89,0,0,1,150.3,85ZM67.38,81.24h81V69.63h-81Z"/><path class="cls-1" d="M113.06,132.39H65.48a1.89,1.89,0,0,1-1.89-1.89V90.08a1.89,1.89,0,0,1,1.89-1.89h47.58A1.89,1.89,0,0,1,115,90.08V130.5A1.89,1.89,0,0,1,113.06,132.39ZM67.38,128.6h43.78V92H67.38Z"/><path class="cls-1" d="M113.06,132.39a1.91,1.91,0,0,1-1.23-.45L64.26,91.53a1.89,1.89,0,0,1,2.45-2.89l47.57,40.41a1.89,1.89,0,0,1-1.22,3.34Z"/><path class="cls-1" d="M65.48,132.39a1.89,1.89,0,0,1-1.22-3.34l47.57-40.41a1.89,1.89,0,1,1,2.45,2.89L66.71,131.94A1.91,1.91,0,0,1,65.48,132.39Z"/><path class="cls-1" d="M150.05,98.52H120.21a1.89,1.89,0,1,1,0-3.78h29.84a1.89,1.89,0,0,1,0,3.78Z"/><path class="cls-1" d="M150.05,112.73H120.21a1.9,1.9,0,0,1,0-3.79h29.84a1.9,1.9,0,0,1,0,3.79Z"/><path class="cls-1" d="M150.05,126.94H120.21a1.9,1.9,0,0,1,0-3.79h29.84a1.9,1.9,0,0,1,0,3.79Z"/></g></g></svg>