<svg xmlns="http://www.w3.org/2000/svg" viewBox="0 0 137.24 150.55"><defs><style>.cls-1{fill:#231f20;}</style></defs><g id="Layer_2" data-name="Layer 2"><g id="Layer_1-2" data-name="Layer 1"><path class="cls-1" d="M76.07,130.23H61.17a1.88,1.88,0,0,1-1.89-1.89V48a1.89,1.89,0,0,1,1.89-1.9h14.9A1.9,1.9,0,0,1,78,48v80.31A1.89,1.89,0,0,1,76.07,130.23Zm-13-3.78H74.18V49.92H63.06Z"/><path class="cls-1" d="M119.67,130.23h-14.9a1.89,1.89,0,0,1-1.9-1.89V48a1.9,1.9,0,0,1,1.9-1.9h14.9a1.89,1.89,0,0,1,1.89,1.9v80.31A1.88,1.88,0,0,1,119.67,130.23Zm-13-3.78h11.12V49.92H106.66Z"/><path class="cls-1" d="M31.62,130.23H16.71a1.89,1.89,0,0,1-1.89-1.89V48a1.9,1.9,0,0,1,1.89-1.9H31.62A1.9,1.9,0,0,1,33.51,48v80.31A1.89,1.89,0,0,1,31.62,130.23Zm-13-3.78H29.72V49.92H18.61Z"/><path class="cls-1" d="M135.35,46.7H1.89A1.9,1.9,0,0,1,0,44.8V31.1a1.89,1.89,0,0,1,1.89-1.89H135.35a1.89,1.89,0,0,1,1.89,1.89V44.8A1.89,1.89,0,0,1,135.35,46.7ZM3.79,42.91H133.45V33H3.79Z"/><path class="cls-1" d="M135.35,139.42H1.89A1.9,1.9,0,0,1,0,137.52V132a1.9,1.9,0,0,1,1.89-1.9H135.35a1.89,1.89,0,0,1,1.89,1.9v5.56A1.89,1.89,0,0,1,135.35,139.42ZM3.79,135.63H133.45v-1.78H3.79Z"/><path class="cls-1" d="M135.35,145H1.89A1.89,1.89,0,0,1,0,143.09v-5.57a1.89,1.89,0,0,1,1.89-1.89H135.35a1.89,1.89,0,0,1,1.89,1.89v5.57A1.88,1.88,0,0,1,135.35,145ZM3.79,141.2H133.45v-1.78H3.79Z"/><path class="cls-1" d="M135.35,150.55H1.89A1.89,1.89,0,0,1,0,148.66v-5.57a1.89,1.89,0,0,1,1.89-1.89H135.35a1.88,1.88,0,0,1,1.89,1.89v5.57A1.88,1.88,0,0,1,135.35,150.55ZM3.79,146.76H133.45V145H3.79Z"/><path class="cls-1" d="M39.59,50.2H8.74a1.9,1.9,0,1,1,0-3.79H39.59a1.9,1.9,0,1,1,0,3.79Z"/><path class="cls-1" d="M84.05,50.2H53.19a1.9,1.9,0,0,1,0-3.79H84.05a1.9,1.9,0,0,1,0,3.79Z"/><path class="cls-1" d="M127.48,50.2H96.62a1.9,1.9,0,0,1,0-3.79h30.86a1.9,1.9,0,0,1,0,3.79Z"/><path class="cls-1" d="M39.76,130.51H8.9a1.9,1.9,0,0,1,0-3.79H39.76a1.9,1.9,0,1,1,0,3.79Z"/><path class="cls-1" d="M84.05,130.51H53.19a1.9,1.9,0,0,1,0-3.79H84.05a1.9,1.9,0,0,1,0,3.79Z"/><path class="cls-1" d="M127.65,130.51H96.79a1.9,1.9,0,1,1,0-3.79h30.86a1.9,1.9,0,0,1,0,3.79Z"/><path class="cls-1" d="M130.24,33H7a1.9,1.9,0,0,1-.81-3.61L67.81.18a1.91,1.91,0,0,1,1.62,0l61.63,29.21a1.9,1.9,0,0,1-.82,3.61ZM15.42,29.21h106.4L68.62,4Z"/><path class="cls-1" d="M68.62,24.85a5.62,5.62,0,1,1,5.62-5.62A5.62,5.62,0,0,1,68.62,24.85Zm0-7.44a1.83,1.83,0,1,0,1.83,1.82A1.83,1.83,0,0,0,68.62,17.41Z"/></g></g></svg>