<svg xmlns="http://www.w3.org/2000/svg" viewBox="0 0 86.85 172.42"><defs><style>.cls-1{fill:#231f20;}</style></defs><g id="Layer_2" data-name="Layer 2"><g id="Layer_1-2" data-name="Layer 1"><path class="cls-1" d="M49,171.14H1.89A1.89,1.89,0,0,1,0,169.25V8.37A1.89,1.89,0,0,1,1.89,6.48H49a1.89,1.89,0,0,1,1.89,1.89V169.25A1.89,1.89,0,0,1,49,171.14ZM3.79,167.35H47.13V10.27H3.79Z"/><path class="cls-1" d="M49,38.45H1.89a1.9,1.9,0,0,1,0-3.79H49a1.9,1.9,0,0,1,0,3.79Z"/><path class="cls-1" d="M49,67.77H1.89a1.9,1.9,0,0,1,0-3.79H49a1.9,1.9,0,0,1,0,3.79Z"/><path class="cls-1" d="M49,96.39H1.89a1.9,1.9,0,0,1,0-3.79H49a1.9,1.9,0,0,1,0,3.79Z"/><path class="cls-1" d="M49,125H1.89a1.9,1.9,0,0,1,0-3.79H49A1.9,1.9,0,0,1,49,125Z"/><path class="cls-1" d="M48.78,169.25h-.19a1.9,1.9,0,0,1-1.7-2.07L62.07,8.93,18.93,4.79l-.36,3.77a1.89,1.89,0,1,1-3.77-.37l.54-5.65A1.9,1.9,0,0,1,17.41.83L64.32,5.34A1.85,1.85,0,0,1,65.6,6,1.91,1.91,0,0,1,66,7.4L50.66,167.54A1.89,1.89,0,0,1,48.78,169.25Z"/><path class="cls-1" d="M61.45,37.17h-.18L48.84,36a1.89,1.89,0,0,1,.37-3.77l12.42,1.2a1.89,1.89,0,0,1-.18,3.78Z"/><path class="cls-1" d="M58.65,66.35h-.18l-9.63-.93a1.89,1.89,0,0,1,.37-3.77l9.62.92a1.89,1.89,0,0,1-.18,3.78Z"/><path class="cls-1" d="M55.92,94.84h-.19l-6.89-.66a1.9,1.9,0,0,1-1.7-2.07,1.86,1.86,0,0,1,2.07-1.7l6.89.66a1.89,1.89,0,0,1-.18,3.78Z"/><path class="cls-1" d="M53.18,123.32H53l-4.12-.4a1.89,1.89,0,0,1-1.7-2.07,1.85,1.85,0,0,1,2.07-1.7l4.11.39a1.89,1.89,0,0,1-.18,3.78Z"/><path class="cls-1" d="M50.73,170.08l-.31,0a1.9,1.9,0,0,1-1.57-2.17l25.08-157L31.13,4.06l0,.11a1.86,1.86,0,0,1-2.17,1.57,1.89,1.89,0,0,1-1.57-2.17l.32-2A1.88,1.88,0,0,1,29.86,0L76.4,7.46a1.88,1.88,0,0,1,1.23.76A1.86,1.86,0,0,1,78,9.63L52.59,168.49A1.88,1.88,0,0,1,50.73,170.08Z"/><path class="cls-1" d="M71.66,39.05l-.3,0L61.15,37.39a1.88,1.88,0,0,1-1.57-2.16,1.91,1.91,0,0,1,2.17-1.58L72,35.28a1.9,1.9,0,0,1-.29,3.77Z"/><path class="cls-1" d="M67,68a1.51,1.51,0,0,1-.3,0l-8.38-1.34a1.9,1.9,0,0,1-1.57-2.17A1.87,1.87,0,0,1,59,62.9l8.38,1.34A1.89,1.89,0,0,1,67,68Z"/><path class="cls-1" d="M62.52,96.26l-.3,0-6.6-1.06a1.89,1.89,0,1,1,.6-3.74l6.59,1.06a1.89,1.89,0,0,1-.29,3.76Z"/><path class="cls-1" d="M58,124.52l-.3,0-4.16-.67a1.89,1.89,0,1,1,.6-3.74l4.16.66a1.9,1.9,0,0,1-.3,3.77Z"/><path class="cls-1" d="M51,172.42a1.87,1.87,0,0,1-.4,0,1.9,1.9,0,0,1-1.45-2.25L82.7,14.73l-7.32-1.58a1.9,1.9,0,0,1,.8-3.71l9.18,2a1.9,1.9,0,0,1,1.45,2.25L52.89,170.93A1.9,1.9,0,0,1,51,172.42Z"/><path class="cls-1" d="M79,42.71a1.87,1.87,0,0,1-.4,0l-7.35-1.59a1.89,1.89,0,1,1,.79-3.7L79.41,39a1.89,1.89,0,0,1-.4,3.74Z"/><path class="cls-1" d="M72.83,71.38a1.9,1.9,0,0,1-.4,0l-5.8-1.25a1.89,1.89,0,1,1,.8-3.7l5.8,1.25a1.9,1.9,0,0,1-.4,3.75Z"/><path class="cls-1" d="M66.8,99.35a1.81,1.81,0,0,1-.4,0l-4.62-1a1.89,1.89,0,0,1,.8-3.7l4.62,1a1.9,1.9,0,0,1-.4,3.75Z"/><path class="cls-1" d="M60.76,127.32a1.87,1.87,0,0,1-.4,0l-2.76-.6a1.89,1.89,0,1,1,.8-3.7l2.76.6a1.89,1.89,0,0,1-.4,3.74Z"/></g></g></svg>