<svg xmlns="http://www.w3.org/2000/svg" viewBox="0 0 219.85 217.6"><defs><style>.cls-1{fill:#d40725;}.cls-2{fill:#231f20;}</style></defs><g id="Layer_2" data-name="Layer 2"><g id="Layer_1-2" data-name="Layer 1"><path class="cls-1" d="M127.11,111.34H85.53A12.12,12.12,0,0,1,73.41,99.22h0A12.12,12.12,0,0,1,85.53,87.1h53.81A37.69,37.69,0,0,1,168.54,101h0a37.68,37.68,0,0,0,29.19,13.85h21.39v78.63h-92Z"/><rect class="cls-1" x="11.23" y="91.09" width="24.24" height="37.97" rx="8.35" transform="translate(133.42 86.72) rotate(90)"/><rect class="cls-1" x="14.04" y="108.88" width="24.24" height="50.88" rx="8.35" transform="translate(160.48 108.15) rotate(90)"/><rect class="cls-1" x="13.99" y="139.57" width="24.24" height="37.97" rx="8.35" transform="translate(184.66 132.45) rotate(90)"/><rect class="cls-1" x="12.59" y="167.45" width="24.24" height="30.7" rx="8.35" transform="translate(207.51 158.09) rotate(90)"/><path class="cls-2" d="M114.58,209.2c-7.3,0-13.25-4.9-13.25-10.92V148.35a.73.73,0,0,1,.73-.73.72.72,0,0,1,.72.73v49.93c0,5.22,5.3,9.47,11.8,9.47s11.8-4.25,11.8-9.47V111.34a.73.73,0,0,1,1.46,0v86.94C127.84,204.3,121.89,209.2,114.58,209.2Z"/><path class="cls-2" d="M89.53,217.6c-7.31,0-13.25-4.62-13.25-10.3V148.72A.73.73,0,0,1,77,148a.73.73,0,0,1,.73.73V207.3c0,4.88,5.29,8.85,11.8,8.85s11.8-4,11.8-8.85V148.72a.73.73,0,0,1,.73-.73.73.73,0,0,1,.72.73V207.3C102.78,213,96.84,217.6,89.53,217.6Z"/><path class="cls-2" d="M64.48,214c-7.31,0-13.26-4.67-13.26-10.41V152.36a.73.73,0,0,1,.73-.73.73.73,0,0,1,.72.73v51.19c0,4.94,5.3,9,11.81,9s11.8-4,11.8-9V152.36a.73.73,0,0,1,.72-.73.73.73,0,0,1,.73.73v51.19C77.73,209.29,71.78,214,64.48,214Z"/><path class="cls-2" d="M39.42,206.47c-7.31,0-13.25-5.23-13.25-11.66a.73.73,0,0,1,1.45,0c0,5.63,5.3,10.21,11.8,10.21s11.8-4.58,11.8-10.21V152.6a.73.73,0,0,1,.73-.73.73.73,0,0,1,.72.73v42.21C52.67,201.24,46.73,206.47,39.42,206.47Z"/><path class="cls-2" d="M219.12,194.15h-92a.73.73,0,1,1,0-1.45H218.4V115.52H197.73A38.29,38.29,0,0,1,168,101.41a36.82,36.82,0,0,0-28.63-13.58H85.53a11.4,11.4,0,0,0,0,22.79h46.79a.72.72,0,0,1,.73.72.73.73,0,0,1-.73.73H85.53a12.85,12.85,0,0,1,0-25.7h53.81a38.28,38.28,0,0,1,29.76,14.12,36.82,36.82,0,0,0,28.63,13.58h21.39a.73.73,0,0,1,.73.73v78.63A.73.73,0,0,1,219.12,194.15Z"/><path class="cls-2" d="M26.9,98.68a.73.73,0,0,1-.73-.73V.73A.72.72,0,0,1,26.9,0h93.18a.73.73,0,0,1,.73.73V22.12a36.84,36.84,0,0,0,13.58,28.63A38.27,38.27,0,0,1,148.5,80.5v7.68a.72.72,0,0,1-.72.72.73.73,0,0,1-.73-.72V80.5a36.84,36.84,0,0,0-13.58-28.63,38.26,38.26,0,0,1-14.12-29.75V1.45H27.62V98A.73.73,0,0,1,26.9,98.68Z"/><path class="cls-2" d="M30.22,122.92H16.49a12.85,12.85,0,0,1,0-25.7H30.22a12.85,12.85,0,0,1,0,25.7ZM16.49,98.68a11.4,11.4,0,1,0,0,22.79H30.22a11.4,11.4,0,0,0,0-22.79Z"/><path class="cls-2" d="M39.48,147.16H12.85a12.85,12.85,0,1,1,0-25.69H39.48a12.85,12.85,0,1,1,0,25.69ZM12.85,122.92a11.41,11.41,0,0,0-11.4,11.39h0a11.41,11.41,0,0,0,11.4,11.4H39.48a11.4,11.4,0,1,0,0-22.79Z"/><path class="cls-2" d="M33,171.4H19.24a12.85,12.85,0,0,1,0-25.69H33a12.85,12.85,0,1,1,0,25.69ZM19.24,147.16a11.4,11.4,0,0,0,0,22.79H33a11.4,11.4,0,0,0,0-22.79Z"/><path class="cls-2" d="M27.94,195.65H21.48a12.85,12.85,0,0,1,0-25.7h6.46a12.85,12.85,0,0,1,0,25.7ZM21.48,171.4a11.4,11.4,0,1,0,0,22.79h6.46a11.4,11.4,0,0,0,0-22.79Z"/></g></g></svg>