<svg id="a7aa4145-0e2e-4420-b3cc-e40ae5be813f" data-name="Layer 1" xmlns="http://www.w3.org/2000/svg" viewBox="0 0 156.79 108.92"><path d="M155.1,0H1.69A1.67,1.67,0,0,0,0,1.66v105.6a1.67,1.67,0,0,0,1.69,1.66H155.1a1.68,1.68,0,0,0,1.69-1.66V1.66A1.68,1.68,0,0,0,155.1,0Zm-1.68,105.6H3.37V3.31h150Z" fill="#231f20"/><path d="M55.39,87.6c8.55,0,15.26-2.11,18.28-3.69l-2-8.67a33,33,0,0,1-14.2,3.15c-12.63,0-22.1-9.08-22.1-23.8,0-13.28,7.9-24.07,22.49-24.07,6.31,0,10.66,1.45,13.41,3l2.64-8.95a38.71,38.71,0,0,0-16-3.28c-20.78,0-34.19,14.2-34.19,33.79S36.19,87.6,55.39,87.6Z" fill="#231f20"/><path d="M114.54,87.6c8.55,0,15.26-2.11,18.28-3.69l-2-8.67a33,33,0,0,1-14.2,3.15c-12.62,0-22.1-9.08-22.1-23.8,0-13.28,7.9-24.07,22.5-24.07,6.3,0,10.65,1.45,13.4,3l2.64-8.95a38.7,38.7,0,0,0-16-3.28c-20.79,0-34.2,14.2-34.2,33.79S95.34,87.6,114.54,87.6Z" fill="#231f20"/></svg>