<svg id="e10ce5f8-46e2-42c8-9548-1912e54a4514" data-name="Layer 1" xmlns="http://www.w3.org/2000/svg" viewBox="0 0 106.75 150.94"><path d="M106.75,41.16h-.15L72.1,0H1.62A1.63,1.63,0,0,0,0,1.62v147.7a1.63,1.63,0,0,0,1.62,1.62H105.09a1.63,1.63,0,0,0,1.62-1.62V44.4h0Zm-5.1,0H71.81V5.56ZM3.25,147.69V3.25H68.56V42.78a1.62,1.62,0,0,0,1.62,1.62h33.28V147.69Z" fill="#231f20"/><path d="M85.86,96.1H22.7a1.16,1.16,0,0,0-1.16,1.16v6.88a1.16,1.16,0,0,0,1.16,1.17H85.86A1.16,1.16,0,0,0,87,104.14V97.26A1.16,1.16,0,0,0,85.86,96.1ZM84.7,103H23.86V98.42H84.7Z" fill="#231f20"/><path d="M85.86,109.85H22.7A1.16,1.16,0,0,0,21.54,111v6.89a1.16,1.16,0,0,0,1.16,1.16H85.86A1.16,1.16,0,0,0,87,117.9V111A1.16,1.16,0,0,0,85.86,109.85Zm-1.16,6.88H23.86v-4.56H84.7Z" fill="#231f20"/><path d="M85.86,123.6H22.7a1.16,1.16,0,0,0-1.16,1.16v6.89a1.16,1.16,0,0,0,1.16,1.16H85.86A1.16,1.16,0,0,0,87,131.65v-6.89A1.16,1.16,0,0,0,85.86,123.6Zm-1.16,6.89H23.86v-4.56H84.7Z" fill="#231f20"/><path d="M48.22,85.22h3.22A9.28,9.28,0,0,0,60.71,76V67.24A9.27,9.27,0,0,0,51.44,58H48.22a2.54,2.54,0,0,0-2.54,2.54V82.68A2.54,2.54,0,0,0,48.22,85.22Zm2.54-22.16h.68a4.19,4.19,0,0,1,4.19,4.18V76a4.2,4.2,0,0,1-4.19,4.19h-.68Z" fill="#231f20"/><path d="M23.25,86.42a1.9,1.9,0,0,0,1.89-1.9v-8h1.69c4.89,0,8.88-3,8.88-6.73V63.5c0-3.71-4-6.72-8.88-6.72H23.75a2.31,2.31,0,0,0-2.39,1.56h0v0a2.13,2.13,0,0,0,0,.25V74.7a2.42,2.42,0,0,0,0,.25v9.57A1.9,1.9,0,0,0,23.25,86.42Zm2.93-26h.65c2.21,0,4,1.37,4,3v6.31c0,1.68-1.8,3-4,3h-.65Z" fill="#231f20"/><path d="M86.47,58.08h-15a.75.75,0,0,0-.77.74V61.9s0,.06,0,.1v7.57a1.08,1.08,0,0,0,0,.19v3.07a1.38,1.38,0,0,0,0,.2V83.37a1.9,1.9,0,0,0,3.79,0v-9.8H85a.72.72,0,0,0,.69-.74V69.76A.72.72,0,0,0,85,69H74.51V62.63h12a.75.75,0,0,0,.77-.73V58.82A.75.75,0,0,0,86.47,58.08Z" fill="#231f20"/></svg>