<svg id="ae89b644-b533-4382-b30d-def0de4134b1" data-name="Layer 1" xmlns="http://www.w3.org/2000/svg" viewBox="0 0 117.34 160.03"><path d="M39.65,134.39a8.55,8.55,0,1,0,8.54,8.54A8.55,8.55,0,0,0,39.65,134.39Zm0,13.31a4.76,4.76,0,1,1,4.76-4.77A4.78,4.78,0,0,1,39.65,147.7Z" fill="#231f20"/><path d="M117.13,150.68l-26.65-51A33.59,33.59,0,0,0,81,39.44c-.57-.16-1.14-.3-1.71-.43V8.25A8.26,8.26,0,0,0,71,0H8.25A8.26,8.26,0,0,0,0,8.25V151.79A8.25,8.25,0,0,0,8.25,160H71a8.25,8.25,0,0,0,8.25-8.24V104.54a34,34,0,0,0,7.92-2.9l26.56,50.8a1.9,1.9,0,1,0,3.36-1.76ZM53.43,3.79,51.68,7.84H30.61l-3.49-4Zm22.07,148A4.46,4.46,0,0,1,71,156.24H8.25a4.46,4.46,0,0,1-4.46-4.45V8.25A4.46,4.46,0,0,1,8.25,3.79H22.12L28.3,11a1.91,1.91,0,0,0,1.44.65H52.93a1.89,1.89,0,0,0,1.74-1.14l2.88-6.7H71A4.46,4.46,0,0,1,75.5,8.25V38.37a33.62,33.62,0,0,0-12.87,65.75,33.3,33.3,0,0,0,12.87,1.07ZM63.66,100.48A29.83,29.83,0,0,1,75.5,42.18v.16h1a28.48,28.48,0,0,1,3.43.75,29.83,29.83,0,0,1-16.31,57.39Z" fill="#231f20"/></svg>