<svg id="bb5473d6-25e0-4589-a2a8-a7aad87ab45d" data-name="Layer 1" xmlns="http://www.w3.org/2000/svg" viewBox="0 0 110.82 110.79"><path d="M109.36,58.46l-5.66-3.65a48.91,48.91,0,0,0-1-9.51l4.75-4.44a3.19,3.19,0,0,0,.84-3.35,55.31,55.31,0,0,0-6-12.46,3.14,3.14,0,0,0-3.07-1.42l-6.6.83a48.83,48.83,0,0,0-6.4-6.38l.81-6.6a3.19,3.19,0,0,0-1.44-3.07,55.73,55.73,0,0,0-12.49-6,3.2,3.2,0,0,0-3.35.86L65.3,8.08a48.23,48.23,0,0,0-9.47-1L52.17,1.45A3.19,3.19,0,0,0,49.12,0a54.52,54.52,0,0,0-13,3.14A3.19,3.19,0,0,0,34,6l-.31,6.34a48.18,48.18,0,0,0-9,6l-6.41-2a3.16,3.16,0,0,0-3.26.86A55.64,55.64,0,0,0,7.48,27.36a3.2,3.2,0,0,0,.22,3.53l3.8,5A47.41,47.41,0,0,0,8.05,47.65L2,50.22A3.21,3.21,0,0,0,0,53c0,.73,0,1.45,0,2.18A55.37,55.37,0,0,0,.87,65,3.18,3.18,0,0,0,3.3,67.57L9.45,69A47.75,47.75,0,0,0,14.94,81L12,86.73a3.19,3.19,0,0,0,.36,3.45,55.87,55.87,0,0,0,8.32,8.31,3.19,3.19,0,0,0,3.46.35l5.71-2.94a47.63,47.63,0,0,0,12.07,5.48l1.42,6.15A3.19,3.19,0,0,0,45.92,110a55.34,55.34,0,0,0,9.66.84c.77,0,1.55,0,2.31,0a3.18,3.18,0,0,0,2.8-2l2.55-6.06a47.32,47.32,0,0,0,11.81-3.51l5,3.79a3.2,3.2,0,0,0,3.52.21,55.51,55.51,0,0,0,10.12-7.59,3.18,3.18,0,0,0,.86-3.26l-2-6.4a48.51,48.51,0,0,0,6-9.07l6.34-.33a3.17,3.17,0,0,0,2.82-2.07,54.93,54.93,0,0,0,3.09-13A3.22,3.22,0,0,0,109.36,58.46Zm-7,11.86-6.08.32a3.19,3.19,0,0,0-2.74,1.86,41.49,41.49,0,0,1-7,10.6A3.2,3.2,0,0,0,86,86.18l1.92,6.15a48.92,48.92,0,0,1-5.71,4.29L77.35,93A3.18,3.18,0,0,0,74,92.68a41.43,41.43,0,0,1-13.4,4,3.18,3.18,0,0,0-2.56,1.93l-2.45,5.83a26.39,26.39,0,0,1-6.52-.43l-1.36-5.91a3.2,3.2,0,0,0-2.34-2.38,41.41,41.41,0,0,1-13.5-6.11,3.13,3.13,0,0,0-3.27-.21L23.13,92.2a49.4,49.4,0,0,1-4.46-4.46l2.8-5.49A3.2,3.2,0,0,0,21.25,79,41.54,41.54,0,0,1,15.1,65.5a3.17,3.17,0,0,0-2.38-2.33l-5.9-1.34a49.32,49.32,0,0,1-.44-6.54l5.83-2.48a3.17,3.17,0,0,0,1.92-2.56,41,41,0,0,1,3.93-13.36,3.19,3.19,0,0,0-.32-3.33l-3.65-4.8A50.12,50.12,0,0,1,18.38,23l6.16,1.88a3.16,3.16,0,0,0,3.07-.67,41.92,41.92,0,0,1,10.54-7A3.19,3.19,0,0,0,40,14.53l.3-6.09a48,48,0,0,1,7.62-1.82L51.43,12a3.49,3.49,0,0,0,2.76,1.45l1.39,0a41.08,41.08,0,0,1,10,1.23,3.23,3.23,0,0,0,3.12-.93L73,9.18a50.27,50.27,0,0,1,7.44,3.56l-.78,6.34A3.18,3.18,0,0,0,80.88,22a42,42,0,0,1,7.81,7.79A3.12,3.12,0,0,0,91.61,31l6.34-.8a48.91,48.91,0,0,1,3.59,7.43L97,41.89A3.19,3.19,0,0,0,96.06,45a41.83,41.83,0,0,1,1.27,10.22l0,1.23a3.21,3.21,0,0,0,1.45,2.77l5.44,3.51A48.11,48.11,0,0,1,102.41,70.32Z" fill="#231f20"/><path d="M55.58,28.13A27.09,27.09,0,1,0,82.67,55.22,27.12,27.12,0,0,0,55.58,28.13Zm0,47.8A20.71,20.71,0,1,1,76.29,55.22,20.73,20.73,0,0,1,55.58,75.93Z" fill="#231f20"/><path d="M65.41,45.28,50.2,62l-4.75-5.7a1.59,1.59,0,1,0-2.44,2l5.92,7.11a1.58,1.58,0,0,0,1.18.57h0a1.59,1.59,0,0,0,1.17-.52L67.76,47.42a1.59,1.59,0,0,0-2.35-2.14Z" fill="#231f20"/></svg>