<svg id="fda52e9d-6fc5-42d2-aac7-61ad3ef70662" data-name="Layer 1" xmlns="http://www.w3.org/2000/svg" viewBox="0 0 209.66 124.57"><path d="M12.31,15.36a4.95,4.95,0,1,0-4.94-4.94A5,5,0,0,0,12.31,15.36Zm0-6.1a1.16,1.16,0,1,1-1.15,1.16A1.16,1.16,0,0,1,12.31,9.26Z" fill="#231f20"/><path d="M23.68,15.36a4.95,4.95,0,1,0-4.94-4.94A4.94,4.94,0,0,0,23.68,15.36Zm0-6.1a1.16,1.16,0,1,1-1.15,1.16A1.15,1.15,0,0,1,23.68,9.26Z" fill="#231f20"/><path d="M35.05,15.36a4.95,4.95,0,1,0-4.94-4.94A5,5,0,0,0,35.05,15.36Zm0-6.1a1.16,1.16,0,1,1-1.16,1.16A1.15,1.15,0,0,1,35.05,9.26Z" fill="#231f20"/><path d="M73.81,57.28H36.63a1.9,1.9,0,0,0-1.9,1.89v7.9A1.89,1.89,0,0,0,36.63,69H73.81a1.88,1.88,0,0,0,1.89-1.89v-7.9A1.89,1.89,0,0,0,73.81,57.28Zm-1.89,7.9H38.52V61.07h33.4Z" fill="#231f20"/><path d="M73.81,72H36.63a1.9,1.9,0,0,0-1.9,1.9v7.9a1.9,1.9,0,0,0,1.9,1.89H73.81a1.89,1.89,0,0,0,1.89-1.89v-7.9A1.89,1.89,0,0,0,73.81,72Zm-1.89,7.9H38.52V75.77h33.4Z" fill="#231f20"/><path d="M73.81,86.69H36.63a1.9,1.9,0,0,0-1.9,1.9v7.89a1.9,1.9,0,0,0,1.9,1.9H73.81a1.89,1.89,0,0,0,1.89-1.9V88.59A1.89,1.89,0,0,0,73.81,86.69Zm-1.89,7.9H38.52V90.48h33.4Z" fill="#231f20"/><path d="M90.18,90.42a1.92,1.92,0,0,0,2.33-1.34l1-3.6H97l1,3.63a1.89,1.89,0,0,0,1.82,1.37,1.86,1.86,0,0,0,.52-.07,1.9,1.9,0,0,0,1.3-2.35L97,71.53a1.82,1.82,0,0,0-1.84-1.37,1.89,1.89,0,0,0-1.81,1.4L88.85,88.1A1.88,1.88,0,0,0,90.18,90.42Zm5-11.32.74,2.59H94.5Z" fill="#231f20"/><path d="M209.1,120,176.19,87.21V1.89A1.89,1.89,0,0,0,174.3,0H1.89A1.89,1.89,0,0,0,0,1.89V122.67a1.9,1.9,0,0,0,1.89,1.9H174.3a1.89,1.89,0,0,0,1.89-1.9V92.56l30.24,30.08A1.89,1.89,0,1,0,209.1,120ZM108.61,61.07a33.77,33.77,0,0,0,2.4,10,6.89,6.89,0,0,0-3.46-.94h-2.4a1.9,1.9,0,0,0-1.9,1.89V88.59a1.9,1.9,0,0,0,1.9,1.89h2.4a6.92,6.92,0,0,0,6.91-6.91V77.45A33.72,33.72,0,0,0,137.67,91.7v2.89H83.38V61.07Zm.81-10.47H38.52V43.17h73.63A33.55,33.55,0,0,0,109.42,50.6Zm1.25,26.47v6.5a3.12,3.12,0,0,1-3.12,3.12H107V74h.51A3.12,3.12,0,0,1,110.67,77.07Zm1.64-17.82A29.83,29.83,0,1,1,143,88.2,29.86,29.86,0,0,1,112.31,59.25ZM172.4,73V83.44l-4.06-4A33.61,33.61,0,0,0,172.4,73Zm0-69.16V15.94H3.79V3.79Zm0,117H3.79v-101H172.4V43.79a33.58,33.58,0,0,0-58-4.41H36.63a1.9,1.9,0,0,0-1.9,1.9V52.5a1.9,1.9,0,0,0,1.9,1.89h72.11c-.11,1-.18,1.92-.21,2.89h-27a1.89,1.89,0,0,0-1.89,1.89V96.48a1.9,1.9,0,0,0,1.89,1.9h58.08a1.9,1.9,0,0,0,1.9-1.9V92c.55,0,1.1,0,1.65,0a33.46,33.46,0,0,0,22.69-9.77l6.6,6.58Z" fill="#231f20"/></svg>