<svg xmlns="http://www.w3.org/2000/svg" viewBox="0 0 116.92 142.51"><defs><style>.cls-1{fill:#231f20;}</style></defs><g id="Layer_2" data-name="Layer 2"><g id="Layer_1-2" data-name="Layer 1"><path class="cls-1" d="M70.33,114.28a1.89,1.89,0,0,1-.42-3.74A54.18,54.18,0,0,0,93.08,98.83a1.89,1.89,0,0,1,2.47,2.87,57.9,57.9,0,0,1-24.8,12.54A2,2,0,0,1,70.33,114.28Z"/><path class="cls-1" d="M53.26,115.49H53.1a57.84,57.84,0,1,1,62.58-57.65,57.44,57.44,0,0,1-11.05,34,1.9,1.9,0,0,1-3.07-2.23A54.05,54.05,0,1,0,3.79,57.84,54.31,54.31,0,0,0,53.4,111.71a1.89,1.89,0,0,1-.14,3.78Z"/><path class="cls-1" d="M48.84,114.71a1.9,1.9,0,0,1-1.16-.4c-16.83-13.09-26.87-35.49-26.87-59.9,0-19.25,6.18-37.26,17.4-50.7a1.89,1.89,0,1,1,2.9,2.42C30.46,18.9,24.6,36,24.6,54.41c0,23.26,9.49,44.53,25.41,56.91a1.9,1.9,0,0,1-1.17,3.39Z"/><path class="cls-1" d="M70.33,109.92A1.89,1.89,0,0,1,69,106.68,62.48,62.48,0,0,0,78,95.4a1.92,1.92,0,0,1,2.62-.59,1.89,1.89,0,0,1,.59,2.61,66.54,66.54,0,0,1-9.59,12A1.9,1.9,0,0,1,70.33,109.92Z"/><path class="cls-1" d="M86.44,84.45a1.92,1.92,0,0,1-.66-.12,1.89,1.89,0,0,1-1.12-2.43,79.89,79.89,0,0,0,4.82-27.65c0-18.67-6.07-36-17.09-48.8A1.89,1.89,0,1,1,75.26,3c11.61,13.48,18,31.69,18,51.27a83.77,83.77,0,0,1-5,29A1.9,1.9,0,0,1,86.44,84.45Z"/><path class="cls-1" d="M57.84,35.4c-16.9,0-33.22-2.2-47.19-6.38a1.9,1.9,0,1,1,1.09-3.63c13.62,4.07,29.56,6.22,46.1,6.22s32.58-2.16,46.24-6.26a1.9,1.9,0,0,1,2.35,1.28A1.87,1.87,0,0,1,105.16,29C91.16,33.18,74.8,35.4,57.84,35.4Z"/><path class="cls-1" d="M10.84,90.05a1.89,1.89,0,0,1-.55-3.7c14.05-4.25,30.5-6.49,47.55-6.49,5.18,0,10.36.21,15.41.62a1.89,1.89,0,0,1,1.73,2,1.85,1.85,0,0,1-2,1.74c-4.94-.41-10-.61-15.1-.61-16.69,0-32.75,2.19-46.45,6.32A1.79,1.79,0,0,1,10.84,90.05Z"/><path class="cls-1" d="M57.84,95.78A1.9,1.9,0,0,1,56,93.88v-92a1.9,1.9,0,0,1,3.79,0v92A1.9,1.9,0,0,1,57.84,95.78Z"/><path class="cls-1" d="M113.85,59.53H2a1.9,1.9,0,0,1,0-3.79H113.85a1.9,1.9,0,1,1,0,3.79Z"/><path class="cls-1" d="M84.1,142.51a33.43,33.43,0,0,1-5.73-.5,1.89,1.89,0,0,1-1.53-1.44L76,136.91a28.44,28.44,0,0,1-7.17-3.25l-3.39,1.74a1.89,1.89,0,0,1-2.06-.21,32.89,32.89,0,0,1-4.94-4.93,1.89,1.89,0,0,1-.22-2l1.74-3.4a28.18,28.18,0,0,1-3.26-7.15L53,116.83a1.89,1.89,0,0,1-1.44-1.52,33.14,33.14,0,0,1-.51-5.82c0-.44,0-.88,0-1.31a1.9,1.9,0,0,1,1.15-1.66l3.6-1.53a27.93,27.93,0,0,1,2.05-7l-2.26-3a1.91,1.91,0,0,1-.13-2.1,33.39,33.39,0,0,1,4.5-6A1.9,1.9,0,0,1,62,86.38l3.81,1.17A28.68,28.68,0,0,1,71.12,84l.19-3.77a1.86,1.86,0,0,1,1.22-1.68,32.89,32.89,0,0,1,7.74-1.87,2,2,0,0,1,1.81.85l2.17,3.36a28.6,28.6,0,0,1,5.63.58l2.62-2.83a1.9,1.9,0,0,1,2-.51,32.42,32.42,0,0,1,7.42,3.54,1.9,1.9,0,0,1,.86,1.83l-.48,3.91a29.11,29.11,0,0,1,3.81,3.8l3.91-.5a1.87,1.87,0,0,1,1.83.85,32.58,32.58,0,0,1,3.57,7.4,1.89,1.89,0,0,1-.5,2l-2.83,2.63a28.91,28.91,0,0,1,.61,5.65l3.36,2.17a1.89,1.89,0,0,1,.86,1.8,33,33,0,0,1-1.83,7.74,1.91,1.91,0,0,1-1.68,1.23l-3.77.19a27.9,27.9,0,0,1-3.55,5.39l1.18,3.8a1.89,1.89,0,0,1-.5,1.94,32.85,32.85,0,0,1-6,4.51,1.91,1.91,0,0,1-2.09-.12l-3-2.25a28.51,28.51,0,0,1-7,2.08l-1.51,3.6a1.87,1.87,0,0,1-1.65,1.15C85,142.5,84.57,142.51,84.1,142.51Zm-3.85-4a31.11,31.11,0,0,0,3.85.25h0l1.46-3.47a1.89,1.89,0,0,1,1.52-1.14,24.72,24.72,0,0,0,8-2.37,1.89,1.89,0,0,1,2,.18l2.86,2.16a29.07,29.07,0,0,0,3.39-2.54l-1.14-3.66a1.91,1.91,0,0,1,.4-1.82,24.67,24.67,0,0,0,4.13-6.3,1.91,1.91,0,0,1,1.63-1.11l3.62-.19A29.24,29.24,0,0,0,113,114l-3.23-2.09a1.87,1.87,0,0,1-.87-1.64v-.73a25.18,25.18,0,0,0-.74-6.08,1.89,1.89,0,0,1,.54-1.85L111.41,99a30.34,30.34,0,0,0-2.13-4.41l-3.77.48a1.85,1.85,0,0,1-1.73-.73,24.81,24.81,0,0,0-4.65-4.62A1.91,1.91,0,0,1,98.4,88l.46-3.77a28.89,28.89,0,0,0-4.42-2.11l-2.52,2.72a1.89,1.89,0,0,1-1.84.55,25,25,0,0,0-6-.72h-.82a1.94,1.94,0,0,1-1.64-.87l-2.09-3.22A30.07,30.07,0,0,0,75,81.7l-.18,3.61a1.88,1.88,0,0,1-1.1,1.63,24.93,24.93,0,0,0-6.26,4.14,1.89,1.89,0,0,1-1.83.4L62,90.36a28.2,28.2,0,0,0-2.54,3.41l2.17,2.85a1.91,1.91,0,0,1,.19,2,24.1,24.1,0,0,0-2.34,7.94,1.89,1.89,0,0,1-1.14,1.52l-3.46,1.47a29.55,29.55,0,0,0,.25,3.89l3.51.79a1.9,1.9,0,0,1,1.42,1.38,24.56,24.56,0,0,0,3.65,8,1.88,1.88,0,0,1,.13,1.94l-1.67,3.27a30.24,30.24,0,0,0,2.66,2.65l3.26-1.68a1.88,1.88,0,0,1,1.94.13,24.64,24.64,0,0,0,8,3.63A1.9,1.9,0,0,1,79.44,135Zm3.85-12.89a16.09,16.09,0,1,1,16.1-16.09A16.11,16.11,0,0,1,84.1,125.58Zm0-28.39a12.3,12.3,0,1,0,12.31,12.3A12.32,12.32,0,0,0,84.1,97.19Z"/></g></g></svg>