<svg xmlns="http://www.w3.org/2000/svg" viewBox="0 0 150.48 138.62"><defs><style>.cls-1{fill:#231f20;}</style></defs><g id="Layer_2" data-name="Layer 2"><g id="Layer_1-2" data-name="Layer 1"><path class="cls-1" d="M12.31,15.36a4.95,4.95,0,1,1,4.94-4.94A5,5,0,0,1,12.31,15.36Zm0-6.1a1.16,1.16,0,1,0,1.16,1.16A1.16,1.16,0,0,0,12.31,9.26Z"/><path class="cls-1" d="M23.68,15.36a4.95,4.95,0,1,1,4.94-4.94A4.94,4.94,0,0,1,23.68,15.36Zm0-6.1a1.16,1.16,0,1,0,1.15,1.16A1.16,1.16,0,0,0,23.68,9.26Z"/><path class="cls-1" d="M34.19,15.36a4.95,4.95,0,1,1,4.94-4.94A5,5,0,0,1,34.19,15.36Zm0-6.1a1.16,1.16,0,1,0,1.15,1.16A1.16,1.16,0,0,0,34.19,9.26Z"/><path class="cls-1" d="M77.31,124.56H1.89A1.89,1.89,0,0,1,0,122.67V1.89A1.89,1.89,0,0,1,1.89,0H129.07A1.9,1.9,0,0,1,131,1.89V61a1.9,1.9,0,1,1-3.79,0V3.79H3.79v117H77.31a1.9,1.9,0,1,1,0,3.79Z"/><path class="cls-1" d="M129.07,19.73H1.89a1.9,1.9,0,0,1,0-3.79H129.07a1.9,1.9,0,1,1,0,3.79Z"/><path class="cls-1" d="M108.1,138.62a42.9,42.9,0,0,1-7.42-.65,1.88,1.88,0,0,1-1.52-1.44L98,131.41a36.34,36.34,0,0,1-9.85-4.47l-4.75,2.44a1.89,1.89,0,0,1-2-.21,42.29,42.29,0,0,1-6.39-6.37,1.89,1.89,0,0,1-.21-2L77.16,116a36.3,36.3,0,0,1-4.49-9.83L67.55,105a1.87,1.87,0,0,1-1.44-1.51A42.66,42.66,0,0,1,65.44,96c0-.56,0-1.13,0-1.69a1.88,1.88,0,0,1,1.15-1.66l5-2.12a36.31,36.31,0,0,1,2.83-9.65l-3.17-4.17a1.89,1.89,0,0,1-.13-2.09A42.64,42.64,0,0,1,77,66.79a1.91,1.91,0,0,1,1.94-.52l5.29,1.63A36.67,36.67,0,0,1,91.66,63l.26-5.28A1.91,1.91,0,0,1,93.15,56a42.72,42.72,0,0,1,10-2.41,1.88,1.88,0,0,1,1.81.86l3,4.65h.13a36.75,36.75,0,0,1,7.77.83l3.66-4a1.89,1.89,0,0,1,2-.51,42.23,42.23,0,0,1,9.59,4.58,1.89,1.89,0,0,1,.86,1.82l-.68,5.45a37.07,37.07,0,0,1,5.36,5.34L142.1,72a1.91,1.91,0,0,1,1.82.85,42.56,42.56,0,0,1,4.61,9.56,1.87,1.87,0,0,1-.5,2l-3.94,3.68A36.67,36.67,0,0,1,145,96h0l4.67,3a1.91,1.91,0,0,1,.85,1.81,42.67,42.67,0,0,1-2.36,10,1.91,1.91,0,0,1-1.68,1.23l-5.28.28a37,37,0,0,1-4.92,7.48l1.64,5.29a1.89,1.89,0,0,1-.51,1.94,42,42,0,0,1-7.77,5.82,1.89,1.89,0,0,1-2.09-.12l-4.18-3.16a36.08,36.08,0,0,1-9.68,2.87l-2.11,5a1.89,1.89,0,0,1-1.66,1.16C109.28,138.61,108.69,138.62,108.1,138.62Zm-5.53-4.18a34.68,34.68,0,0,0,5.94.39l2.06-4.89a1.88,1.88,0,0,1,1.52-1.15,32.5,32.5,0,0,0,10.61-3.16,1.89,1.89,0,0,1,2,.19l4.08,3.07a38.44,38.44,0,0,0,5.13-3.86l-1.6-5.15a1.93,1.93,0,0,1,.4-1.83,32.83,32.83,0,0,0,5.51-8.39,1.87,1.87,0,0,1,1.63-1.11l5.13-.27a38,38,0,0,0,1.6-6.76L142,98.59a1.9,1.9,0,0,1-.87-1.66l0-1a33.16,33.16,0,0,0-1-8.1A1.91,1.91,0,0,1,140.7,86l3.84-3.57a39.34,39.34,0,0,0-3.17-6.57l-5.31.68a1.92,1.92,0,0,1-1.74-.73,32.94,32.94,0,0,0-6.2-6.17,1.91,1.91,0,0,1-.73-1.74l.66-5.31a37.79,37.79,0,0,0-6.58-3.14l-3.57,3.85a1.9,1.9,0,0,1-1.85.55,33,33,0,0,0-8-1l-1.09,0a2,2,0,0,1-1.65-.86l-2.94-4.54a38.49,38.49,0,0,0-6.78,1.63l-.25,5.13a1.88,1.88,0,0,1-1.1,1.63,33.41,33.41,0,0,0-8.35,5.51,1.92,1.92,0,0,1-1.82.41L79,70.25a39.54,39.54,0,0,0-3.85,5.16l3.08,4.06a1.91,1.91,0,0,1,.19,2A32.71,32.71,0,0,0,75.26,92a1.87,1.87,0,0,1-1.14,1.52l-4.89,2.07V96a38.83,38.83,0,0,0,.41,5.62l5,1.13A1.92,1.92,0,0,1,76,104.1a32.69,32.69,0,0,0,4.87,10.69,1.9,1.9,0,0,1,.13,1.94l-2.37,4.63a40.39,40.39,0,0,0,4.09,4.08l4.63-2.38a1.88,1.88,0,0,1,1.94.13A32.75,32.75,0,0,0,100,128a1.88,1.88,0,0,1,1.38,1.42Zm5.53-14A24.47,24.47,0,1,1,132.56,96,24.49,24.49,0,0,1,108.1,120.43Zm0-45.14A20.68,20.68,0,1,0,128.77,96,20.7,20.7,0,0,0,108.1,75.29Z"/><path class="cls-1" d="M112,46.29H15.36a1.88,1.88,0,0,1-1.89-1.89V31.93A1.89,1.89,0,0,1,15.36,30H112a1.89,1.89,0,0,1,1.89,1.9V44.4A1.88,1.88,0,0,1,112,46.29ZM17.25,42.51h92.88V33.82H17.25Z"/><path class="cls-1" d="M51.39,109.22h-36a1.89,1.89,0,0,1-1.89-1.9V53.71a1.89,1.89,0,0,1,1.89-1.89h36a1.9,1.9,0,0,1,1.9,1.89v53.61A1.9,1.9,0,0,1,51.39,109.22Zm-34.14-3.79H49.5V55.61H17.25Z"/><path class="cls-1" d="M112,80.71H93.43a1.9,1.9,0,0,1,0-3.79h16.7V73.74a1.89,1.89,0,0,1,3.78,0v5.08A1.89,1.89,0,0,1,112,80.71Z"/><path class="cls-1" d="M74.52,80.71H59.68a1.89,1.89,0,0,1-1.89-1.89V53.71a1.89,1.89,0,0,1,1.89-1.89H112a1.89,1.89,0,0,1,1.89,1.89v7.52a1.89,1.89,0,0,1-3.78,0V55.61H61.58V76.92H74.52a1.9,1.9,0,1,1,0,3.79Z"/><path class="cls-1" d="M75.53,110.55H59.68a1.89,1.89,0,0,1-1.89-1.89V85.16a1.9,1.9,0,0,1,1.89-1.9H74.86a1.9,1.9,0,0,1,0,3.79H61.58v19.71h14a1.9,1.9,0,0,1,0,3.79Z"/><path class="cls-1" d="M112,110.55H89.43a1.9,1.9,0,1,1,0-3.79h20.7V87.05H88.28a1.9,1.9,0,1,1,0-3.79H112a1.89,1.89,0,0,1,1.89,1.9v23.5A1.89,1.89,0,0,1,112,110.55Z"/></g></g></svg>