<svg xmlns="http://www.w3.org/2000/svg" viewBox="0 0 147.48 105.94"><defs><style>.cls-1{fill:#231f20;}</style></defs><g id="Layer_2" data-name="Layer 2"><g id="Layer_1-2" data-name="Layer 1"><path class="cls-1" d="M17.62,99a1.73,1.73,0,0,1-.64-.12,1.88,1.88,0,0,1-1.26-1.78V79.76H1.89A1.89,1.89,0,0,1,0,77.87v-76A1.89,1.89,0,0,1,1.89,0H118.58a1.9,1.9,0,0,1,1.9,1.89V32.18a1.9,1.9,0,0,1-3.79,0V3.79H3.79V76H17.62a1.89,1.89,0,0,1,1.89,1.89V91.81L32.05,76.66A1.9,1.9,0,0,1,33.51,76H78a1.89,1.89,0,1,1,0,3.78H34.4L19.08,98.28A1.92,1.92,0,0,1,17.62,99Z"/><path class="cls-1" d="M118.58,79.76H91.22a1.89,1.89,0,0,1,0-3.78h25.47V48.32a1.9,1.9,0,0,1,3.79,0V77.87A1.89,1.89,0,0,1,118.58,79.76Z"/><path class="cls-1" d="M108.17,105.94a39.63,39.63,0,0,1-6.88-.6,1.88,1.88,0,0,1-1.52-1.43L98.7,99.25a33.91,33.91,0,0,1-9-4.07L85.4,97.39a1.91,1.91,0,0,1-2.06-.21,39.31,39.31,0,0,1-5.92-5.9,1.91,1.91,0,0,1-.21-2.06l2.2-4.32a33.55,33.55,0,0,1-4.09-9l-4.65-1.05a1.89,1.89,0,0,1-1.44-1.52,39.53,39.53,0,0,1-.62-7q0-.78,0-1.56a1.9,1.9,0,0,1,1.16-1.67l4.56-1.93a33.65,33.65,0,0,1,2.58-8.79l-2.87-3.79a1.86,1.86,0,0,1-.13-2.09,39.66,39.66,0,0,1,5.38-7.24,1.9,1.9,0,0,1,1.94-.51l4.81,1.47a34.55,34.55,0,0,1,6.77-4.48L93.08,31a1.9,1.9,0,0,1,1.22-1.68,39.08,39.08,0,0,1,9.27-2.23,1.83,1.83,0,0,1,1.81.85l2.79,4.24a34.65,34.65,0,0,1,7.13.74l3.33-3.59a1.88,1.88,0,0,1,2-.51,39.16,39.16,0,0,1,8.88,4.24,1.89,1.89,0,0,1,.86,1.82l-.61,5a33.69,33.69,0,0,1,4.86,4.84l5-.63a1.91,1.91,0,0,1,1.83.85,39.63,39.63,0,0,1,4.27,8.87,1.9,1.9,0,0,1-.5,2l-3.58,3.33a34.67,34.67,0,0,1,.78,7.2l4.24,2.74a1.89,1.89,0,0,1,.86,1.8,38.81,38.81,0,0,1-2.2,9.26,1.87,1.87,0,0,1-1.67,1.23l-4.79.26a34.54,34.54,0,0,1-4.48,6.81l1.49,4.81a1.9,1.9,0,0,1-.51,1.94,39.6,39.6,0,0,1-7.2,5.4,1.91,1.91,0,0,1-2.1-.13l-3.79-2.86a34,34,0,0,1-8.83,2.62l-1.91,4.56a1.9,1.9,0,0,1-1.67,1.16C109.27,105.93,108.72,105.94,108.17,105.94Zm-5-4.13a41.93,41.93,0,0,0,5.28.34l1.86-4.43a1.88,1.88,0,0,1,1.52-1.15,29.81,29.81,0,0,0,9.76-2.9,1.91,1.91,0,0,1,2,.18l3.69,2.78a36.33,36.33,0,0,0,4.57-3.43l-1.44-4.67a1.88,1.88,0,0,1,.4-1.83A30.83,30.83,0,0,0,135.86,79a1.89,1.89,0,0,1,1.62-1.11l4.65-.24a35.84,35.84,0,0,0,1.43-6l-4.13-2.66a1.9,1.9,0,0,1-.87-1.66l0-.88a30.41,30.41,0,0,0-.92-7.45,1.9,1.9,0,0,1,.54-1.85l3.48-3.24A36.5,36.5,0,0,0,138.84,48l-4.81.61a1.89,1.89,0,0,1-1.74-.73,30.3,30.3,0,0,0-5.7-5.67,1.91,1.91,0,0,1-.73-1.74l.59-4.81a35.68,35.68,0,0,0-5.88-2.82l-3.23,3.49a1.91,1.91,0,0,1-1.85.56,30,30,0,0,0-7.32-.9l-1,0a1.84,1.84,0,0,1-1.65-.86L102.85,31a36.52,36.52,0,0,0-6,1.45l-.23,4.65a1.88,1.88,0,0,1-1.1,1.63,30.5,30.5,0,0,0-7.67,5.07,1.94,1.94,0,0,1-1.83.41L81.3,42.78a35.76,35.76,0,0,0-3.44,4.6l2.79,3.68a1.89,1.89,0,0,1,.19,2A30.09,30.09,0,0,0,78,62.77a1.87,1.87,0,0,1-1.14,1.52L72.4,66.17v.22a36,36,0,0,0,.36,5.08l4.51,1a1.9,1.9,0,0,1,1.42,1.38,30.15,30.15,0,0,0,4.47,9.82,1.9,1.9,0,0,1,.13,2l-2.14,4.19a36.48,36.48,0,0,0,3.63,3.62L89,91.3a1.86,1.86,0,0,1,1.94.12,30.09,30.09,0,0,0,9.84,4.46,1.9,1.9,0,0,1,1.39,1.41Zm5-12.67a22.75,22.75,0,1,1,22.75-22.75A22.78,22.78,0,0,1,108.17,89.14Zm0-41.71a19,19,0,1,0,19,19A19,19,0,0,0,108.17,47.43Z"/></g></g></svg>