<svg xmlns="http://www.w3.org/2000/svg" viewBox="0 0 157.07 155.1"><defs><style>.cls-1{fill:#fff;}.cls-2{fill:#231f20;}.cls-3{fill:#d40725;}</style></defs><g id="Layer_2" data-name="Layer 2"><g id="Layer_1-2" data-name="Layer 1"><path class="cls-1" d="M149.49,42.05,113,5.6,91.29,1.5.93,91.86l62.3,62.3L153.59,63.8Zm-23.21-6.12-5.83-5.82a3.81,3.81,0,0,1,5.39-5.39l5.82,5.83a3.8,3.8,0,1,1-5.38,5.38Z"/><path class="cls-2" d="M125.88,32.75a1.44,1.44,0,0,1-1.06-.42c-2.52-2.52,9.5-14.93,13.24-18.67a122.83,122.83,0,0,1,11.51-10.3c5-3.84,6.41-3.68,7.16-2.94,2.52,2.52-9.5,14.93-13.24,18.67-2.08,2.08-4.16,4.05-6.17,5.85-1,.88-2.72,2.33-2.72,2.33l-1.2-1.42s1.7-1.43,2.67-2.3c2-1.78,4.05-3.72,6.1-5.78C150,9.92,154.47,4,155.18,2c-2,.71-8,5.16-15.8,13s-12.26,13.75-13,15.77a8.94,8.94,0,0,0,1.29-.65,16.82,16.82,0,0,0,1.72-1.26.93.93,0,0,1,1.28,1.35,16.2,16.2,0,0,1-2,1.49A6.19,6.19,0,0,1,125.88,32.75Z"/><path class="cls-2" d="M63.23,155.1a.92.92,0,0,1-.66-.28L.27,92.52a.94.94,0,0,1,0-1.32L90.63.84a.93.93,0,0,1,.84-.25l21.74,4.1a.89.89,0,0,1,.49.25L150.15,41.4a.85.85,0,0,1,.26.48l4.1,21.75a.92.92,0,0,1-.26.83L63.89,154.82A.91.91,0,0,1,63.23,155.1Zm-61-63.24,61,61,89.36-89.36-4-21-36-36-21-4Z"/><path class="cls-2" d="M129,38.33a3.9,3.9,0,0,1-2.75-1.13h0l-7-7a3.89,3.89,0,0,1,0-5.5l1.2-1.2a3.89,3.89,0,0,1,5.5,0l7,7a3.89,3.89,0,0,1,0,5.5l-1.2,1.21A3.92,3.92,0,0,1,129,38.33Zm-1.43-2.45a2.08,2.08,0,0,0,2.86,0l1.21-1.21a2,2,0,0,0,0-2.86l-7-7a2,2,0,0,0-2.86,0L120.5,26a2,2,0,0,0,0,2.86Z"/><rect class="cls-3" x="54.84" y="107.74" width="9.88" height="28.8" transform="translate(-68.86 78.04) rotate(-45)"/></g></g></svg>