<svg xmlns="http://www.w3.org/2000/svg" viewBox="0 0 116.11 200.89"><defs><style>.cls-1{fill:#d40725;}.cls-2{fill:#231f20;}</style></defs><g id="Layer_2" data-name="Layer 2"><g id="Layer_1-2" data-name="Layer 1"><path class="cls-1" d="M3.88,112.05h0a9.29,9.29,0,0,1,10.52-9.4l11.9,1.25a12,12,0,0,1,10.52,11.62h0a9.29,9.29,0,0,1-10.52,9.4l-11.9-1.25A12,12,0,0,1,3.88,112.05Z"/><path class="cls-1" d="M.73,132.75h0a9.28,9.28,0,0,1,10.51-9.41l23.1,2.43a12,12,0,0,1,10.51,11.62h0a9.29,9.29,0,0,1-10.51,9.4l-23.1-2.42A12,12,0,0,1,.73,132.75Z"/><path class="cls-1" d="M10,181.59c16.94,22.48,97.55,31,104.18-12,8.22-53.2-27.51-56.33-27.51-56.33L70,111.55A9.3,9.3,0,0,0,59.47,121h0A12,12,0,0,0,70,132.58l1.69.18a11.54,11.54,0,0,1,2.63.59v.89a6.38,6.38,0,0,1-6.38,6.38H64.12a6.54,6.54,0,0,1,6.54,6.54h0a6.54,6.54,0,0,1-6.54,6.53H60.73A4.23,4.23,0,0,1,65,157.92h0a4.23,4.23,0,0,1-4.23,4.23H31.41l-12.06,2.67L10,181.59"/><path class="cls-1" d="M6.27,154.36h0A9.29,9.29,0,0,1,16.79,145l11.9,1.25A12,12,0,0,1,39.2,157.82h0a9.29,9.29,0,0,1-10.51,9.41L16.79,166A12,12,0,0,1,6.27,154.36Z"/><path class="cls-1" d="M8.21,175.59h0a9.29,9.29,0,0,1,10.51-9.41l5.61.59a12,12,0,0,1,10.51,11.61h0a9.29,9.29,0,0,1-10.51,9.41l-5.61-.59A12,12,0,0,1,8.21,175.59Z"/><path class="cls-2" d="M72,112.22a.63.63,0,0,1-.19,0,.72.72,0,0,1-.51-.89A29,29,0,0,1,79.17,98,44.1,44.1,0,0,0,47.9,22.21,44.46,44.46,0,0,0,4.46,65.29,43.63,43.63,0,0,0,17.83,97.94,30.92,30.92,0,0,1,22,103a.73.73,0,0,1-1.21.8,29.33,29.33,0,0,0-4-4.8A45.07,45.07,0,0,1,3,65.26a46,46,0,0,1,44.88-44.5,45.55,45.55,0,0,1,32.3,78.32,27.52,27.52,0,0,0-7.46,12.6A.72.72,0,0,1,72,112.22Z"/><path class="cls-2" d="M61.45,128H38.91a.73.73,0,1,1,0-1.46H61.45a.73.73,0,0,1,0,1.46Z"/><path class="cls-2" d="M67.77,141.35H44.32a.73.73,0,0,1-.72-.73.72.72,0,0,1,.72-.72H67.77a5.81,5.81,0,0,0,5.81-5.81.73.73,0,0,1,.73-.73.73.73,0,0,1,.72.73A7.27,7.27,0,0,1,67.77,141.35Z"/><path class="cls-2" d="M64.22,154.41H38.4a.72.72,0,0,1-.72-.72.73.73,0,0,1,.72-.73H64.22a5.81,5.81,0,1,0,0-11.61H44.32a.73.73,0,0,1-.72-.73.72.72,0,0,1,.72-.72h19.9a7.26,7.26,0,1,1,0,14.51Z"/><path class="cls-2" d="M60.73,162.88H38.4a.73.73,0,0,1,0-1.45H60.73a3.51,3.51,0,0,0,0-7H38.4a.72.72,0,0,1-.72-.72.73.73,0,0,1,.72-.73H60.73a5,5,0,0,1,0,9.92Z"/><path class="cls-2" d="M27.43,125.71a9.66,9.66,0,0,1-1.2-.07l-11.91-1.25A12.72,12.72,0,0,1,3.16,112.05a10,10,0,0,1,11.31-10.12l11.91,1.25a12.72,12.72,0,0,1,11.16,12.34,10,10,0,0,1-10.11,10.19Zm-14.15-22.4a8.53,8.53,0,0,0-8.67,8.74A11.23,11.23,0,0,0,14.47,123l11.91,1.25a8.78,8.78,0,0,0,6.89-2.13,8.66,8.66,0,0,0,2.82-6.55,11.24,11.24,0,0,0-9.86-10.9l-11.91-1.25A9.2,9.2,0,0,0,13.28,103.31Z"/><path class="cls-2" d="M35.46,147.58a9.89,9.89,0,0,1-1.2-.07l-23.1-2.42A12.73,12.73,0,0,1,0,132.75a10.08,10.08,0,0,1,3.3-7.63,10.2,10.2,0,0,1,8-2.5l23.09,2.43a12.72,12.72,0,0,1,11.17,12.34,10,10,0,0,1-10.12,10.19ZM10.12,124a8.53,8.53,0,0,0-8.67,8.74,11.24,11.24,0,0,0,9.87,10.89l23.09,2.43a8.82,8.82,0,0,0,6.9-2.13,8.7,8.7,0,0,0,2.81-6.55,11.23,11.23,0,0,0-9.86-10.9l-23.1-2.43C10.81,124,10.47,124,10.12,124Z"/><path class="cls-2" d="M64,200.89c-22.49,0-46-7.45-54.62-18.86a.73.73,0,1,1,1.16-.87c10.82,14.36,48,22.41,73.65,16,11.85-3,26.54-10.19,29.24-27.61,3-19.23.54-34-7.22-43.92A30.94,30.94,0,0,0,86.58,114l-16.67-1.75A8.56,8.56,0,0,0,60.2,121a11.23,11.23,0,0,0,9.86,10.9l1.7.18a12.07,12.07,0,0,1,10.59,9.59l.59,2.83A10.7,10.7,0,0,0,93.38,153a.73.73,0,0,1,.72.73.72.72,0,0,1-.72.72,12.15,12.15,0,0,1-11.86-9.66l-.59-2.82a10.62,10.62,0,0,0-9.33-8.45l-1.69-.18A12.72,12.72,0,0,1,58.75,121a10.11,10.11,0,0,1,3.3-7.63,10.23,10.23,0,0,1,8-2.5l16.66,1.75a31.81,31.81,0,0,1,20.62,12.1c8,10.24,10.57,25.4,7.53,45.07-2.81,18.2-18,25.7-30.31,28.78A85.16,85.16,0,0,1,64,200.89Z"/><path class="cls-2" d="M29.81,168c-.39,0-.79,0-1.19-.06L16.71,166.7A12.73,12.73,0,0,1,5.55,154.36a10.1,10.1,0,0,1,3.29-7.63,10.22,10.22,0,0,1,8-2.5l11.91,1.25a12.72,12.72,0,0,1,11.16,12.34A10,10,0,0,1,29.81,168Zm-14.14-22.4A8.55,8.55,0,0,0,7,154.36a11.23,11.23,0,0,0,9.86,10.89l11.91,1.25a8.56,8.56,0,0,0,9.71-8.68,11.24,11.24,0,0,0-9.86-10.9l-11.91-1.25A9.2,9.2,0,0,0,15.67,145.61Z"/><path class="cls-2" d="M25.45,188.58a9.66,9.66,0,0,1-1.2-.07l-5.6-.59A12.7,12.7,0,0,1,7.49,175.59,10,10,0,0,1,18.8,165.46l5.6.58a12.72,12.72,0,0,1,11.16,12.34,10,10,0,0,1-10.11,10.2Zm-7.84-21.74a8.53,8.53,0,0,0-8.67,8.75,11.23,11.23,0,0,0,9.86,10.89l5.6.59a8.78,8.78,0,0,0,6.89-2.13,8.68,8.68,0,0,0,2.82-6.56,11.23,11.23,0,0,0-9.86-10.89l-5.6-.59A9.2,9.2,0,0,0,17.61,166.84Z"/><path class="cls-2" d="M56.85,128a.73.73,0,0,1-.73-.73V107.75a.88.88,0,0,1,.07-.32L68.54,82l-4.15,3.45a.74.74,0,0,1-.9,0l-6.92-5.26-6.92,5.26a.74.74,0,0,1-.87,0l-6.92-5.26L35,85.47a.75.75,0,0,1-.88,0l-7.35-5.6a.72.72,0,1,1,.88-1.15L34.51,84l6.91-5.26a.72.72,0,0,1,.88,0L49.22,84l6.91-5.26a.72.72,0,0,1,.88,0L63.91,84l6.29-5.22a.72.72,0,0,1,1.11.87L57.57,107.92v19.37A.73.73,0,0,1,56.85,128Z"/><path class="cls-2" d="M72.24,17.94a.73.73,0,0,1-.65-1.06l4.14-8.25a.73.73,0,0,1,1.3.65l-4.15,8.26A.72.72,0,0,1,72.24,17.94Z"/><path class="cls-2" d="M85.53,27.8a.73.73,0,0,1-.3-1.39l8.37-3.89a.73.73,0,1,1,.61,1.32l-8.37,3.89A.67.67,0,0,1,85.53,27.8Z"/><path class="cls-2" d="M12.69,29.74a.67.67,0,0,1-.31-.07L4,25.78a.72.72,0,0,1-.36-1,.74.74,0,0,1,1-.35L13,28.36a.72.72,0,0,1-.3,1.38Z"/><path class="cls-2" d="M24.86,17.94a.73.73,0,0,1-.65-.4L20.07,9.28a.72.72,0,0,1,.32-1,.73.73,0,0,1,1,.32l4.14,8.25a.74.74,0,0,1-.32,1A.8.8,0,0,1,24.86,17.94Z"/><path class="cls-2" d="M46.65,12.14a.73.73,0,0,1-.73-.73V.73A.73.73,0,0,1,46.65,0a.72.72,0,0,1,.72.73V11.41A.72.72,0,0,1,46.65,12.14Z"/></g></g></svg>