<svg xmlns="http://www.w3.org/2000/svg" viewBox="0 0 211.91 110.2"><defs><style>.cls-1{fill:#d40725;}.cls-2{fill:#231f20;}</style></defs><g id="Layer_2" data-name="Layer 2"><g id="Layer_1-2" data-name="Layer 1"><circle class="cls-1" cx="105.95" cy="89.33" r="5.52"/><path class="cls-1" d="M91.7,75.08a20.16,20.16,0,0,0,28.51,28.5c20.1-20.1,29.1-49.2,29.1-49.2S107.6,59.18,91.7,75.08Zm28.79,21.45a16.91,16.91,0,0,1-1,1.8l-2.5-.92a13,13,0,0,1-2.91,2.91l.92,2.5a16.91,16.91,0,0,1-1.8,1.05l-1.71-2.05a13.33,13.33,0,0,1-4,1.08l-.46,2.61c-.35,0-.69,0-1,0s-.71,0-1.06,0l-.45-2.61a13.33,13.33,0,0,1-4-1.08l-1.71,2.05a18,18,0,0,1-1.8-1.05l.91-2.5A13.56,13.56,0,0,1,95,97.42l-2.49.91a16.91,16.91,0,0,1-1-1.8l2-1.71a13.3,13.3,0,0,1-1.06-4l-2.62-.46c0-.35,0-.69,0-1s0-.7,0-1l2.62-.46a13.3,13.3,0,0,1,1.06-4l-2-1.71a18,18,0,0,1,1-1.8l2.49.91a13.84,13.84,0,0,1,2.91-2.91L97,75.85a16.23,16.23,0,0,1,1.8-1l1.71,2a13.3,13.3,0,0,1,4-1.06l.46-2.62c.35,0,.7,0,1,0s.69,0,1,0l.46,2.62a13.3,13.3,0,0,1,4,1.06l1.71-2a15.37,15.37,0,0,1,1.8,1L114,78.34a13.39,13.39,0,0,1,2.91,2.91l2.5-.91a18,18,0,0,1,1,1.8l-2,1.71a13.62,13.62,0,0,1,1.07,4l2.62.46c0,.34,0,.7,0,1s0,.7,0,1l-2.62.46a13.62,13.62,0,0,1-1.07,4Z"/><path class="cls-2" d="M211.18,106.11h-.09L127.33,95.82a.73.73,0,0,1,.18-1.44l83,10.18V99.49l-78.58-9.65a.73.73,0,0,1,.17-1.44l79.22,9.73a.72.72,0,0,1,.64.72v6.53a.69.69,0,0,1-.25.54A.71.71,0,0,1,211.18,106.11Z"/><path class="cls-2" d="M85.8,90.71h-.09L.64,80.26A.72.72,0,0,1,0,79.54V73a.73.73,0,0,1,.25-.55.69.69,0,0,1,.56-.17L86.73,82.84a.71.71,0,0,1,.63.8.72.72,0,0,1-.8.64L1.45,73.83V78.9L85.89,89.27a.71.71,0,0,1,.63.8A.72.72,0,0,1,85.8,90.71Z"/><path class="cls-2" d="M106,106.27c-.37,0-.74,0-1.1,0a.71.71,0,0,1-.66-.6l-.37-2.09a14.22,14.22,0,0,1-3.15-.84l-1.36,1.63a.74.74,0,0,1-.88.19,16.71,16.71,0,0,1-1.88-1.09.73.73,0,0,1-.28-.86l.73-2a14.71,14.71,0,0,1-2.3-2.3l-2,.73a.72.72,0,0,1-.85-.28,18.7,18.7,0,0,1-1.09-1.88A.73.73,0,0,1,91,96l1.63-1.36a14.37,14.37,0,0,1-.84-3.15l-2.1-.37a.73.73,0,0,1-.6-.66c0-.36,0-.73,0-1.1s0-.73,0-1.09a.73.73,0,0,1,.6-.66l2.1-.37a14.37,14.37,0,0,1,.84-3.15L91,82.7a.73.73,0,0,1-.19-.88,17,17,0,0,1,1.09-1.88.72.72,0,0,1,.85-.28l2,.73a14.71,14.71,0,0,1,2.3-2.3l-.73-2a.72.72,0,0,1,.28-.85,17.65,17.65,0,0,1,1.88-1.09.73.73,0,0,1,.88.19L100.68,76a14.24,14.24,0,0,1,3.15-.85L104.2,73a.72.72,0,0,1,.66-.6,16,16,0,0,1,2.19,0,.74.74,0,0,1,.67.6l.36,2.09a14.39,14.39,0,0,1,3.15.85l1.36-1.63a.72.72,0,0,1,.88-.19,17,17,0,0,1,1.88,1.09.72.72,0,0,1,.28.85l-.73,2a14.71,14.71,0,0,1,2.3,2.3l2-.73a.74.74,0,0,1,.86.28,17.65,17.65,0,0,1,1.09,1.88.72.72,0,0,1-.19.88l-1.63,1.36a14.37,14.37,0,0,1,.84,3.15l2.1.37a.73.73,0,0,1,.6.66c0,.36,0,.73,0,1.09s0,.74,0,1.1a.73.73,0,0,1-.6.66l-2.1.37a14.14,14.14,0,0,1-.84,3.14L121,96a.72.72,0,0,1,.19.88,18.4,18.4,0,0,1-1.09,1.88.73.73,0,0,1-.86.28l-2-.73a14.71,14.71,0,0,1-2.3,2.3l.73,2a.73.73,0,0,1-.28.86,17.65,17.65,0,0,1-1.88,1.09.74.74,0,0,1-.88-.19l-1.36-1.63a14.37,14.37,0,0,1-3.15.84l-.36,2.09a.73.73,0,0,1-.67.6C106.69,106.26,106.32,106.27,106,106.27Zm-.44-1.46h.87l.35-2a.74.74,0,0,1,.64-.6,12.69,12.69,0,0,0,3.77-1,.73.73,0,0,1,.85.2l1.33,1.59c.25-.13.5-.27.74-.42l-.72-2a.72.72,0,0,1,.25-.83A12.68,12.68,0,0,0,116.36,97a.72.72,0,0,1,.83-.25l2,.72c.15-.25.29-.49.42-.74L118,95.38a.73.73,0,0,1-.2-.85,12.69,12.69,0,0,0,1-3.77.74.74,0,0,1,.6-.64l2-.36v-.85l-2-.36a.74.74,0,0,1-.6-.64,12.61,12.61,0,0,0-1-3.77.73.73,0,0,1,.2-.85l1.6-1.33-.43-.74-2,.72a.72.72,0,0,1-.83-.25,12.46,12.46,0,0,0-2.76-2.76.73.73,0,0,1-.25-.84l.72-2c-.24-.15-.49-.29-.74-.43L112,77.31a.73.73,0,0,1-.85.2,12.69,12.69,0,0,0-3.77-1,.74.74,0,0,1-.64-.6l-.35-2.05h-.86l-.36,2.05a.74.74,0,0,1-.64.6,12.53,12.53,0,0,0-3.77,1,.73.73,0,0,1-.85-.2l-1.33-1.6c-.25.14-.5.28-.74.43l.72,2a.73.73,0,0,1-.25.84,12.63,12.63,0,0,0-2.76,2.75.73.73,0,0,1-.83.26l-2-.72c-.15.24-.29.49-.42.74l1.59,1.33a.72.72,0,0,1,.2.85,12.69,12.69,0,0,0-1,3.77.74.74,0,0,1-.6.64l-2,.36v.85l2,.36a.74.74,0,0,1,.6.64,12.69,12.69,0,0,0,1,3.77.72.72,0,0,1-.2.85l-1.59,1.33c.13.25.27.49.42.74l2-.72a.72.72,0,0,1,.83.25,12.46,12.46,0,0,0,2.76,2.76.72.72,0,0,1,.25.83l-.72,2c.24.15.49.29.74.42l1.33-1.59a.73.73,0,0,1,.85-.2,12.53,12.53,0,0,0,3.77,1,.74.74,0,0,1,.64.6Zm16.61-14.43h0ZM106,99.52a10.19,10.19,0,1,1,10.19-10.19A10.21,10.21,0,0,1,106,99.52Zm0-18.92a8.74,8.74,0,1,0,8.74,8.73A8.74,8.74,0,0,0,106,80.6Z"/><path class="cls-2" d="M106,95.58a6.25,6.25,0,1,1,6.25-6.25A6.25,6.25,0,0,1,106,95.58Zm0-11a4.8,4.8,0,1,0,4.8,4.79A4.8,4.8,0,0,0,106,84.54Z"/><path class="cls-2" d="M194.43,89.76h-.08L152.68,84.9a.73.73,0,0,1-.64-.65,46.38,46.38,0,0,0-6.95-19.92.72.72,0,0,1,.22-1,.74.74,0,0,1,1,.22,48,48,0,0,1,7.11,20l40.28,4.7A87.76,87.76,0,0,0,20.78,68l40.28,4.7a47.81,47.81,0,0,1,78.53-17.52.72.72,0,0,1-1,1A46.36,46.36,0,0,0,62.24,73.77a.72.72,0,0,1-.77.48L19.8,69.39a.74.74,0,0,1-.51-.31.71.71,0,0,1-.11-.58A89.2,89.2,0,0,1,195.15,89a.72.72,0,0,1-.24.55A.7.7,0,0,1,194.43,89.76Z"/><path class="cls-2" d="M133.59,51.46a.7.7,0,0,1-.51-.22.72.72,0,0,1,0-1L162.35,21a.72.72,0,1,1,1,1L134.11,51.24A.72.72,0,0,1,133.59,51.46Z"/><path class="cls-2" d="M87.75,46.56a.74.74,0,0,1-.66-.42L69.74,8.55a.73.73,0,0,1,1.32-.61L88.41,45.53a.72.72,0,0,1-.36,1A.66.66,0,0,1,87.75,46.56Z"/><path class="cls-2" d="M106,110.2A20.87,20.87,0,0,1,91.19,74.57c15.9-15.9,56.32-20.72,58-20.92a.75.75,0,0,1,.65.26.76.76,0,0,1,.13.68c-.09.29-9.28,29.51-29.28,49.51A20.81,20.81,0,0,1,106,110.2Zm42.3-55c-6.78.92-42,6.27-56,20.36a19.42,19.42,0,1,0,27.47,27.47C137.26,85.5,146.4,60.69,148.26,55.24Z"/></g></g></svg>