<svg xmlns="http://www.w3.org/2000/svg" viewBox="0 0 173.14 65.5"><defs><style>.cls-1{fill:#231f20;}.cls-2{fill:#d40725;}</style></defs><g id="Layer_2" data-name="Layer 2"><g id="Layer_1-2" data-name="Layer 1"><path class="cls-1" d="M3.67,50.32,0,0H6.84L8.42,25.2h.22L10.8,0h5.61l2.38,25.2h.14L20.66,0h6.19L23.11,50.32H16.2L13.68,28.8h-.07L11.45,50.32Z"/><path class="cls-1" d="M44.42,0V50.32H37.29V27.86H35.13V50.32H28V0h7.13V22.53h2.16V0Z"/><path class="cls-1" d="M53.27,0V50.32H46.15V0Z"/><path class="cls-1" d="M71.49,6h-5V50.32H59.32V6h-5V0H71.49Z"/><path class="cls-1" d="M79.69,6V22.53h4.76v5.33H79.69V44.35h6.56v6H72.57V0h13.1V6Z"/><path class="cls-1" d="M101.58,0V45h5.83v5.32h-13V0Z"/><path class="cls-1" d="M117.85,37.65h-3l-.94,12.67h-6.12L112,0h9.14l4.54,50.32h-6.84Zm-2.59-5.32h2.16l-.94-12.82h-.21Z"/><path class="cls-1" d="M143.12,19.58A6.4,6.4,0,0,1,142.4,23a3.33,3.33,0,0,1-1.78,1.48,3,3,0,0,1,1.78,1.4,6.45,6.45,0,0,1,.72,3.42V42.76a8.58,8.58,0,0,1-.64,3.46,6.64,6.64,0,0,1-1.68,2.34,6.75,6.75,0,0,1-2.39,1.33,9,9,0,0,1-2.78.43H126.7V0h8.93a9,9,0,0,1,2.78.43A6.55,6.55,0,0,1,140.8,1.8a6.93,6.93,0,0,1,1.68,2.41,8.87,8.87,0,0,1,.64,3.49Zm-8,2.23a.7.7,0,0,0,.72-.64,10.87,10.87,0,0,0,.14-2V8.78c0-1.87-.31-2.8-.94-2.8h-1.22V21.81Zm.86,8a8.18,8.18,0,0,0-.18-2,.76.76,0,0,0-.76-.65h-1.22V44.35H135c.67,0,1-.89,1-2.67Z"/><path class="cls-1" d="M152,6V22.53h4.75v5.33H152V44.35h6.55v6H144.85V0H158V6Z"/><path class="cls-1" d="M167,0V45h5.83v5.32h-13V0Z"/><path class="cls-2" d="M4.14,65.37V57.61h.94L9.33,63.7h.05V57.61h1v7.76H9.4L5.15,59.29H5.1v6.08Z"/><path class="cls-2" d="M20,65.37H15.15V57.61H20v.87H16.12V61h3.64v.86H16.12V64.5H20Z"/><path class="cls-2" d="M28.8,63.15H25.71l-.78,2.22h-1l2.86-7.76h1l2.86,7.76h-1ZM26,62.32h2.52l-1.25-3.54h0Z"/><path class="cls-2" d="M35.76,65.37h-1V57.61h3a2.25,2.25,0,0,1,2.48,2.31,2.23,2.23,0,0,1-1.56,2.23l1.8,3.22H39.33L37.67,62.3H35.76Zm0-3.93h1.91A1.39,1.39,0,0,0,39.23,60a1.42,1.42,0,0,0-1.6-1.48H35.76Z"/><path class="cls-2" d="M45.35,63.23c.09.84.89,1.4,2,1.4s1.81-.56,1.81-1.32-.46-1.06-1.5-1.33l-1-.26c-1.43-.36-2.06-1-2.06-2,0-1.29,1.13-2.19,2.74-2.19a2.44,2.44,0,0,1,2.71,2.21h-1a1.57,1.57,0,0,0-1.77-1.34c-1,0-1.71.52-1.71,1.28,0,.58.43.93,1.49,1.21l.81.21c1.61.41,2.26,1,2.26,2.14,0,1.42-1.12,2.31-2.9,2.31s-2.79-.9-2.88-2.27Z"/><path class="cls-2" d="M59.82,65.37V61.83H55.56v3.54h-1V57.61h1V61h4.26V57.61h1v7.76Z"/><path class="cls-2" d="M72.45,61.49c0,2.46-1.37,4-3.57,4s-3.58-1.55-3.58-4,1.38-4,3.58-4S72.45,59,72.45,61.49Zm-6.15,0c0,1.91,1,3.11,2.58,3.11s2.58-1.2,2.58-3.11-1-3.12-2.58-3.12S66.3,59.57,66.3,61.49Z"/><path class="cls-2" d="M77.93,65.37H77V57.61h3a2.25,2.25,0,0,1,2.47,2.31,2.22,2.22,0,0,1-1.56,2.23l1.8,3.22H81.5L79.84,62.3H77.93Zm0-3.93h1.91A1.38,1.38,0,0,0,81.4,60a1.42,1.42,0,0,0-1.6-1.48H77.93Z"/><path class="cls-2" d="M91.73,65.37H86.92V57.61h4.81v.87H87.89V61h3.64v.86H87.89V64.5h3.84Z"/><path class="cls-2" d="M102.85,63.23c.1.84.89,1.4,2,1.4s1.81-.56,1.81-1.32-.45-1.06-1.5-1.33l-1-.26c-1.43-.36-2.07-1-2.07-2,0-1.29,1.13-2.19,2.75-2.19a2.43,2.43,0,0,1,2.7,2.21h-1a1.57,1.57,0,0,0-1.77-1.34c-1,0-1.7.52-1.7,1.28,0,.58.43.93,1.48,1.21l.81.21c1.61.41,2.26,1,2.26,2.14,0,1.42-1.12,2.31-2.9,2.31s-2.79-.9-2.88-2.27Z"/><path class="cls-2" d="M116.91,65.37H112.1V57.61h4.81v.87h-3.84V61h3.64v.86h-3.64V64.5h3.84Z"/><path class="cls-2" d="M122.45,65.37h-1V57.61h3a2.24,2.24,0,0,1,2.47,2.31,2.22,2.22,0,0,1-1.56,2.23l1.8,3.22H126l-1.67-3.07h-1.91Zm0-3.93h1.91A1.38,1.38,0,0,0,125.92,60a1.42,1.42,0,0,0-1.6-1.48h-1.87Z"/><path class="cls-2" d="M133.69,65.37l-2.86-7.76h1l2.31,6.58h0l2.31-6.58h1l-2.86,7.76Z"/><path class="cls-2" d="M141.7,65.37V57.61h1v7.76Z"/><path class="cls-2" d="M147.18,61.48c0-2.43,1.37-4,3.49-4a3.09,3.09,0,0,1,3.23,2.57h-1a2.23,2.23,0,0,0-2.25-1.68c-1.51,0-2.5,1.23-2.5,3.11s1,3.12,2.51,3.12a2.14,2.14,0,0,0,2.24-1.49h1a3,3,0,0,1-3.23,2.39C148.53,65.5,147.18,63.94,147.18,61.48Z"/><path class="cls-2" d="M163.15,65.37h-4.81V57.61h4.81v.87h-3.84V61H163v.86h-3.64V64.5h3.84Z"/><path class="cls-2" d="M168.33,63.23c.09.84.89,1.4,2,1.4s1.81-.56,1.81-1.32-.46-1.06-1.5-1.33l-1-.26c-1.43-.36-2.06-1-2.06-2,0-1.29,1.13-2.19,2.74-2.19A2.44,2.44,0,0,1,173,59.69h-1a1.57,1.57,0,0,0-1.77-1.34c-1,0-1.71.52-1.71,1.28,0,.58.44.93,1.49,1.21l.81.21c1.61.41,2.26,1,2.26,2.14,0,1.42-1.12,2.31-2.9,2.31s-2.79-.9-2.88-2.27Z"/></g></g></svg>