<svg xmlns="http://www.w3.org/2000/svg" viewBox="0 0 274.4 104.02"><defs><style>.cls-1{fill:#fff;}.cls-2{fill:#d40725;}</style></defs><g id="Layer_2" data-name="Layer 2"><g id="Layer_1-2" data-name="Layer 1"><path class="cls-1" d="M5.83,79.92,0,0H10.86l2.52,40h.34L17.15,0h8.92l3.77,40h.23L32.81,0h9.84L36.7,79.92h-11l-4-34.18h-.11L18.18,79.92Z"/><path class="cls-1" d="M70.55,0V79.92H59.23V44.25H55.8V79.92H44.48V0H55.8V35.79h3.43V0Z"/><path class="cls-1" d="M84.61,0V79.92H73.29V0Z"/><path class="cls-1" d="M113.54,9.49h-8V79.92H94.21V9.49h-8V0h27.33Z"/><path class="cls-1" d="M126.57,9.49v26.3h7.55v8.46h-7.55V70.43H137v9.49H115.25V0h20.81V9.49Z"/><path class="cls-1" d="M161.33,0V71.46h9.26v8.46H150V0Z"/><path class="cls-1" d="M187.17,59.8h-4.81l-1.48,20.12h-9.72L177.9,0h14.53l7.2,79.92H188.77Zm-4.12-8.46h3.43L185,31h-.34Z"/><path class="cls-1" d="M227.3,31.1a10.32,10.32,0,0,1-1.13,5.43,5.42,5.42,0,0,1-2.83,2.34,4.9,4.9,0,0,1,2.83,2.23,10.38,10.38,0,0,1,1.13,5.44V67.92a13.45,13.45,0,0,1-1,5.49,10.55,10.55,0,0,1-2.66,3.71,10.74,10.74,0,0,1-3.8,2.12,14.61,14.61,0,0,1-4.41.68H201.23V0h14.18a14.31,14.31,0,0,1,4.41.69,10.13,10.13,0,0,1,3.8,2.17,11.06,11.06,0,0,1,2.66,3.83,13.8,13.8,0,0,1,1,5.54Zm-12.69,3.54a1.11,1.11,0,0,0,1.14-1,16.46,16.46,0,0,0,.23-3.21V14c0-3-.5-4.46-1.49-4.46h-1.94V34.64ZM216,47.34a13.09,13.09,0,0,0-.29-3.21,1.19,1.19,0,0,0-1.2-1h-1.94V70.43h1.83c1.06,0,1.6-1.41,1.6-4.23Z"/><path class="cls-1" d="M241.36,9.49v26.3h7.55v8.46h-7.55V70.43h10.41v9.49H230V0h20.81V9.49Z"/><path class="cls-1" d="M265.14,0V71.46h9.26v8.46H253.82V0Z"/><path class="cls-2" d="M3,103.82V91.49H4.49l6.75,9.68h.08V91.49h1.52v12.33H11.35L4.6,94.17H4.52v9.65Z"/><path class="cls-2" d="M28.12,103.82H20.48V91.49h7.64v1.38H22v4H27.8V98.2H22v4.23h6.1Z"/><path class="cls-2" d="M42.17,100.29H37.26L36,103.82H34.41L39,91.49h1.53L45,103.82H43.4ZM37.72,99h4l-2-5.62h-.05Z"/><path class="cls-2" d="M53.22,103.82H51.68V91.49h4.71c2.37,0,3.93,1.45,3.93,3.67a3.53,3.53,0,0,1-2.48,3.54l2.85,5.12h-1.8l-2.64-4.88h-3Zm0-6.24h3a2.2,2.2,0,0,0,2.48-2.37,2.26,2.26,0,0,0-2.55-2.35h-3Z"/><path class="cls-2" d="M68.45,100.42c.15,1.34,1.41,2.22,3.17,2.22s2.88-.88,2.88-2.09c0-1-.73-1.69-2.38-2.12L70.53,98c-2.27-.58-3.28-1.58-3.28-3.25,0-2,1.8-3.49,4.36-3.49s4.23,1.46,4.3,3.52H74.37c-.14-1.32-1.2-2.13-2.81-2.13s-2.71.83-2.71,2c0,.93.69,1.49,2.36,1.92L72.5,97c2.55.64,3.59,1.62,3.59,3.39,0,2.25-1.78,3.66-4.61,3.66-2.62,0-4.43-1.42-4.58-3.6Z"/><path class="cls-2" d="M91.43,103.82V98.2H84.67v5.62H83.13V91.49h1.54v5.33h6.76V91.49H93v12.33Z"/><path class="cls-2" d="M111.5,97.66c0,3.91-2.19,6.36-5.68,6.36s-5.69-2.45-5.69-6.36,2.19-6.38,5.69-6.38S111.5,93.74,111.5,97.66Zm-9.78,0c0,3,1.58,4.94,4.1,4.94s4.1-1.91,4.1-4.94-1.59-5-4.1-5S101.72,94.62,101.72,97.66Z"/><path class="cls-2" d="M120.2,103.82h-1.54V91.49h4.71c2.37,0,3.92,1.45,3.92,3.67a3.53,3.53,0,0,1-2.47,3.54l2.85,5.12h-1.8l-2.64-4.88h-3Zm0-6.24h3a2.2,2.2,0,0,0,2.48-2.37,2.26,2.26,0,0,0-2.55-2.35h-3Z"/><path class="cls-2" d="M142.11,103.82h-7.63V91.49h7.63v1.38H136v4h5.79V98.2H136v4.23h6.1Z"/><path class="cls-2" d="M159.78,100.42c.14,1.34,1.41,2.22,3.17,2.22s2.88-.88,2.88-2.09c0-1-.73-1.69-2.39-2.12L161.86,98c-2.27-.58-3.28-1.58-3.28-3.25,0-2,1.79-3.49,4.36-3.49s4.23,1.46,4.29,3.52H165.7c-.14-1.32-1.21-2.13-2.81-2.13s-2.71.83-2.71,2c0,.93.68,1.49,2.36,1.92l1.29.35c2.55.64,3.58,1.62,3.58,3.39,0,2.25-1.77,3.66-4.61,3.66-2.61,0-4.42-1.42-4.57-3.6Z"/><path class="cls-2" d="M182.09,103.82h-7.63V91.49h7.63v1.38H176v4h5.78V98.2H176v4.23h6.09Z"/><path class="cls-2" d="M190.91,103.82h-1.54V91.49h4.71c2.37,0,3.92,1.45,3.92,3.67a3.53,3.53,0,0,1-2.47,3.54l2.85,5.12h-1.8l-2.64-4.88h-3Zm0-6.24h3a2.2,2.2,0,0,0,2.48-2.37,2.26,2.26,0,0,0-2.55-2.35h-3Z"/><path class="cls-2" d="M208.75,103.82,204.2,91.49h1.62L209.48,102h.05l3.67-10.46h1.61l-4.54,12.33Z"/><path class="cls-2" d="M221.47,103.82V91.49H223v12.33Z"/><path class="cls-2" d="M230.17,97.65c0-3.87,2.18-6.37,5.55-6.37a4.9,4.9,0,0,1,5.12,4.1h-1.55a3.54,3.54,0,0,0-3.57-2.68c-2.41,0-4,2-4,5s1.55,4.95,4,4.95a3.41,3.41,0,0,0,3.56-2.37h1.55c-.56,2.43-2.39,3.79-5.12,3.79C232.32,104,230.17,101.55,230.17,97.65Z"/><path class="cls-2" d="M255.54,103.82H247.9V91.49h7.64v1.38h-6.1v4h5.78V98.2h-5.78v4.23h6.1Z"/><path class="cls-2" d="M263.77,100.42c.14,1.34,1.41,2.22,3.17,2.22s2.88-.88,2.88-2.09c0-1-.73-1.69-2.39-2.12L265.85,98c-2.27-.58-3.28-1.58-3.28-3.25,0-2,1.8-3.49,4.36-3.49s4.23,1.46,4.29,3.52h-1.53c-.14-1.32-1.21-2.13-2.81-2.13s-2.71.83-2.71,2c0,.93.68,1.49,2.36,1.92l1.29.35c2.55.64,3.58,1.62,3.58,3.39,0,2.25-1.77,3.66-4.61,3.66-2.61,0-4.42-1.42-4.57-3.6Z"/></g></g></svg>