<svg xmlns="http://www.w3.org/2000/svg" viewBox="0 0 124.66 160.04"><defs><style>.cls-1{fill:#231f20;}</style></defs><g id="Layer_2" data-name="Layer 2"><g id="Layer_1-2" data-name="Layer 1"><path class="cls-1" d="M104.72,30H19.94a1.89,1.89,0,0,1-1.89-1.89V17.64a1.89,1.89,0,0,1,1.89-1.9h84.78a1.89,1.89,0,0,1,1.89,1.9V28.13A1.89,1.89,0,0,1,104.72,30ZM21.84,26.23h81v-6.7h-81Z"/><path class="cls-1" d="M62.33,134.93H51.84A1.89,1.89,0,0,1,50,133V105.57a1.89,1.89,0,0,1,1.89-1.89H62.33a1.9,1.9,0,0,1,1.9,1.89V133A1.9,1.9,0,0,1,62.33,134.93Zm-8.59-3.79h6.7V107.47h-6.7Z"/><path class="cls-1" d="M72.82,134.93H62.33A1.89,1.89,0,0,1,60.44,133V109.35a1.89,1.89,0,0,1,1.89-1.9H72.82a1.89,1.89,0,0,1,1.89,1.9V133A1.89,1.89,0,0,1,72.82,134.93Zm-8.59-3.79h6.69v-19.9H64.23Z"/><path class="cls-1" d="M51.84,134.93H41.35A1.89,1.89,0,0,1,39.46,133V119.31a1.9,1.9,0,0,1,1.89-1.9H51.84a1.9,1.9,0,0,1,1.9,1.9V133A1.9,1.9,0,0,1,51.84,134.93Zm-8.59-3.79H50V121.2h-6.7Z"/><path class="cls-1" d="M83.31,134.93H72.82a1.9,1.9,0,0,1-1.9-1.89V94.52a1.9,1.9,0,0,1,1.9-1.89H83.31a1.89,1.89,0,0,1,1.89,1.89V133A1.89,1.89,0,0,1,83.31,134.93Zm-8.6-3.79h6.7V96.42h-6.7Z"/><path class="cls-1" d="M41.35,105.76a1.9,1.9,0,0,1-1.43-3.13l13-15.13A1.9,1.9,0,0,1,55.08,87l10.8,4.42,13-8.85A1.89,1.89,0,1,1,81,85.68L67.17,95.11a1.88,1.88,0,0,1-1.78.18L54.91,91,42.79,105.1A1.86,1.86,0,0,1,41.35,105.76Z"/><path class="cls-1" d="M122.77,160H1.89A1.9,1.9,0,0,1,0,158.14V1.89A1.89,1.89,0,0,1,1.89,0H122.77a1.89,1.89,0,0,1,1.89,1.89V158.14A1.9,1.9,0,0,1,122.77,160Zm-119-3.79H120.87V3.79H3.79Z"/><path class="cls-1" d="M102.69,47H22a1.9,1.9,0,1,1,0-3.79h80.72a1.9,1.9,0,1,1,0,3.79Z"/><path class="cls-1" d="M102.69,69.22H22a1.9,1.9,0,1,1,0-3.79h80.72a1.9,1.9,0,1,1,0,3.79Z"/><path class="cls-1" d="M102.69,57.4H22a1.9,1.9,0,1,1,0-3.79h80.72a1.9,1.9,0,1,1,0,3.79Z"/></g></g></svg>