<svg xmlns="http://www.w3.org/2000/svg" viewBox="0 0 179.6 197.2"><defs><style>.cls-1{fill:#fff;}.cls-2{fill:#d40725;}</style></defs><g id="Layer_2" data-name="Layer 2"><g id="Layer_1-2" data-name="Layer 1"><rect class="cls-1" x="75.25" y="33.93" width="88.09" height="144.26" transform="translate(26.83 -24.06) rotate(12.96)"/><path d="M146.79,187.44,59,167.23,91.8,24.68l87.8,20.21ZM61.4,165.71,145.27,185,177.18,46.41,93.31,27.1Z"/><rect class="cls-1" x="93.82" y="46.3" width="65.15" height="62.95" transform="translate(20.67 -26.37) rotate(12.96)"/><path d="M151.84,117,86.38,101.9,101,38.58l65.45,15.07Zm-63-16.58,61.52,14.16L164,55.17,102.47,41Z"/><line class="cls-1" x1="84.08" y1="116.39" x2="147.57" y2="131.01"/><rect x="114.82" y="91.12" width="2.02" height="65.15" transform="translate(-30.7 208.82) rotate(-77.04)"/><line class="cls-1" x1="144.67" y1="143.58" x2="81.19" y2="128.96"/><rect x="111.92" y="103.69" width="2.02" height="65.15" transform="translate(-45.2 215.75) rotate(-77.04)"/><line class="cls-1" x1="141.78" y1="156.15" x2="78.29" y2="141.54"/><rect x="109.03" y="116.27" width="2.02" height="65.15" transform="translate(-59.7 222.68) rotate(-77.04)"/><circle class="cls-1" cx="127.56" cy="72.7" r="11.12"/><path d="M127.56,84.83a12.12,12.12,0,1,1,11.82-9.4h0A12.15,12.15,0,0,1,127.56,84.83Zm0-22.24a10.12,10.12,0,1,0,2.29.26A10.44,10.44,0,0,0,127.54,62.59Z"/><path d="M145.9,114.56l-2-.45a24.47,24.47,0,0,0-47.7-11l-2-.45a26.49,26.49,0,0,1,51.64,11.88Z"/><rect class="cls-1" x="50.81" y="1.01" width="88.09" height="144.26"/><path d="M139.91,146.28H49.8V0h90.11Zm-88.09-2h86.07V2H51.82Z"/><rect class="cls-1" x="62.86" y="12.5" width="65.15" height="62.95"/><path d="M129,76.47H61.85v-65H129Zm-65.15-2H127V13.51H63.87Z"/><line class="cls-1" x1="62.86" y1="91.1" x2="128.01" y2="91.1"/><rect x="62.86" y="90.09" width="65.15" height="2.02"/><line class="cls-1" x1="128.01" y1="104.01" x2="62.86" y2="104.01"/><rect x="62.86" y="103" width="65.15" height="2.02"/><line class="cls-1" x1="128.01" y1="116.91" x2="62.86" y2="116.91"/><rect x="62.86" y="115.9" width="65.15" height="2.02"/><circle class="cls-1" cx="95.44" cy="38.78" r="11.12"/><path d="M95.44,50.9a12.13,12.13,0,1,1,12.12-12.12A12.14,12.14,0,0,1,95.44,50.9Zm0-22.23a10.11,10.11,0,1,0,10.1,10.11A10.11,10.11,0,0,0,95.44,28.67Z"/><path d="M122.69,75.46h-2a24.48,24.48,0,1,0-48.95,0h-2a26.49,26.49,0,1,1,53,0Z"/><rect class="cls-1" x="11.76" y="33.93" width="88.09" height="144.26" transform="translate(-15.71 9.89) rotate(-8.88)"/><path d="M22.58,185.28,0,40.75,89,26.84l22.58,144.52ZM2.31,42.44,24.27,183l85-13.29-22-140.53Z"/><rect class="cls-1" x="19.3" y="45.69" width="65.15" height="62.95" transform="translate(-11.29 8.94) rotate(-8.88)"/><path d="M23.71,114.44l-10-64.19L80,39.88l10,64.19ZM16,51.94l9.4,60.2,62.38-9.75-9.41-60.2Z"/><line class="cls-1" x1="26.97" y1="128.75" x2="91.34" y2="118.69"/><rect x="26.58" y="122.71" width="65.15" height="2.02" transform="translate(-18.38 10.61) rotate(-8.87)"/><line class="cls-1" x1="93.33" y1="131.44" x2="28.96" y2="141.5"/><rect x="28.57" y="135.46" width="65.15" height="2.02" transform="translate(-20.32 11.07) rotate(-8.87)"/><line class="cls-1" x1="95.32" y1="144.18" x2="30.95" y2="154.24"/><rect x="30.56" y="148.2" width="65.15" height="2.02" transform="translate(-22.26 11.53) rotate(-8.87)"/><circle class="cls-1" cx="51.07" cy="72.02" r="11.12"/><path d="M51,84.15A12.14,12.14,0,0,1,39.09,73.89,12.14,12.14,0,0,1,49.2,60,12.13,12.13,0,0,1,63.05,70.15h0a12.15,12.15,0,0,1-12,14Zm0-22.24a10.47,10.47,0,0,0-1.57.12,10.11,10.11,0,0,0-8.42,11.55,10.11,10.11,0,1,0,20-3.12h0A10.13,10.13,0,0,0,51.08,61.91Z"/><path d="M31.31,112.23a26.49,26.49,0,0,1,52.35-8.18l-2,.31a24.47,24.47,0,0,0-48.36,7.56Z"/><circle class="cls-2" cx="96.2" cy="170.72" r="25.47"/><path d="M96.2,197.2a26.48,26.48,0,1,1,26.48-26.48A26.51,26.51,0,0,1,96.2,197.2Zm0-50.94a24.46,24.46,0,1,0,24.46,24.46A24.49,24.49,0,0,0,96.2,146.26Z"/><polygon class="cls-1" points="96.29 179.23 87.39 171.24 90.09 168.24 95.87 173.43 105.51 161.85 108.61 164.44 96.29 179.23"/></g></g></svg>