<svg xmlns="http://www.w3.org/2000/svg" viewBox="0 0 125.96 160.04"><defs><style>.cls-1{fill:#231f20;}</style></defs><g id="Layer_2" data-name="Layer 2"><g id="Layer_1-2" data-name="Layer 1"><path class="cls-1" d="M96.85,71.3A1.88,1.88,0,0,1,95,69.41V8.25A4.46,4.46,0,0,0,90.5,3.79H27.7a4.46,4.46,0,0,0-4.46,4.46V35.9a1.9,1.9,0,1,1-3.79,0V8.25A8.26,8.26,0,0,1,27.7,0H90.5a8.25,8.25,0,0,1,8.24,8.25V69.41A1.88,1.88,0,0,1,96.85,71.3Z"/><path class="cls-1" d="M90.5,160H27.7a8.26,8.26,0,0,1-8.25-8.25V54.37a1.9,1.9,0,0,1,3.79,0v97.42a4.47,4.47,0,0,0,4.46,4.46H90.5A4.47,4.47,0,0,0,95,151.79V115.06a1.89,1.89,0,1,1,3.78,0v36.73A8.26,8.26,0,0,1,90.5,160Z"/><path class="cls-1" d="M59.1,151.49a8.56,8.56,0,1,1,8.55-8.55A8.56,8.56,0,0,1,59.1,151.49Zm0-13.32a4.77,4.77,0,1,0,4.76,4.77A4.77,4.77,0,0,0,59.1,138.17Z"/><path class="cls-1" d="M72.38,11.63H49.19A1.93,1.93,0,0,1,47.75,11L41,3.13A1.89,1.89,0,0,1,42.44,0H75.76A1.89,1.89,0,0,1,77.5,2.64l-3.38,7.85A1.89,1.89,0,0,1,72.38,11.63ZM50.06,7.84H71.14l1.74-4H46.57Z"/><path class="cls-1" d="M68.21,56.27H11.06a3.75,3.75,0,0,1-3.74-3.74V42.09L.8,37.44A1.89,1.89,0,0,1,1.9,34H68.21a3.73,3.73,0,0,1,3.73,3.73V52.53A3.74,3.74,0,0,1,68.21,56.27ZM7.82,37.79l2.5,1.78a1.88,1.88,0,0,1,.79,1.54V52.53l57-.05V37.74Z"/><path class="cls-1" d="M124.07,117H56.34a1.89,1.89,0,0,1-1.9-1.89V69.41a1.9,1.9,0,0,1,1.9-1.9h67.73a1.89,1.89,0,0,1,1.89,1.9v45.65A1.88,1.88,0,0,1,124.07,117Zm-65.84-3.79h63.94V71.3H58.23Z"/><path class="cls-1" d="M56.34,106.71a1.89,1.89,0,0,1-.82-3.6l12.16-5.78a2,2,0,0,1,1.21-.14l15.93,3.39,18.26-12.85a1.91,1.91,0,0,1,2-.1L125,99.07a1.89,1.89,0,1,1-1.88,3.28L104.28,91.52l-18,12.64a2,2,0,0,1-1.49.3L68.73,101l-11.58,5.5A2,2,0,0,1,56.34,106.71Z"/><path class="cls-1" d="M80.91,93a8.32,8.32,0,1,1,8.32-8.32A8.32,8.32,0,0,1,80.91,93Zm0-12.84a4.53,4.53,0,1,0,4.53,4.52A4.53,4.53,0,0,0,80.91,80.14Z"/></g></g></svg>