<svg xmlns="http://www.w3.org/2000/svg" viewBox="0 0 130.97 124.57"><defs><style>.cls-1{fill:#231f20;}</style></defs><g id="Layer_2" data-name="Layer 2"><g id="Layer_1-2" data-name="Layer 1"><path class="cls-1" d="M64.64,112.84H47.5a1.9,1.9,0,0,1-1.89-1.9V66.07a1.89,1.89,0,0,1,1.89-1.89H64.64a1.9,1.9,0,0,1,1.9,1.89v44.87A1.9,1.9,0,0,1,64.64,112.84ZM49.4,109.05H62.75V68H49.4Z"/><path class="cls-1" d="M81.78,112.84H64.64a1.89,1.89,0,0,1-1.89-1.9V72.24a1.89,1.89,0,0,1,1.89-1.9H81.78a1.9,1.9,0,0,1,1.89,1.9v38.7A1.9,1.9,0,0,1,81.78,112.84Zm-15.24-3.79H79.88V74.13H66.54Z"/><path class="cls-1" d="M47.5,112.84H30.37a1.9,1.9,0,0,1-1.9-1.9V88.51a1.9,1.9,0,0,1,1.9-1.9H47.5a1.9,1.9,0,0,1,1.9,1.9v22.43A1.9,1.9,0,0,1,47.5,112.84Zm-15.24-3.79H45.61V90.4H32.26Z"/><path class="cls-1" d="M98.91,112.84H81.78a1.9,1.9,0,0,1-1.9-1.9V48a1.9,1.9,0,0,1,1.9-1.9H98.91a1.9,1.9,0,0,1,1.9,1.9v62.92A1.9,1.9,0,0,1,98.91,112.84Zm-15.24-3.79H97V49.91H83.67Z"/><path class="cls-1" d="M30.37,65.18a1.9,1.9,0,0,1-1.44-3.13L50.18,37.32a1.89,1.89,0,0,1,2.15-.52l18.25,7.47L92.36,29.45a1.9,1.9,0,0,1,2.14,3.13L71.88,48a1.9,1.9,0,0,1-1.79.19L52.16,40.82,31.8,64.52A1.86,1.86,0,0,1,30.37,65.18Z"/><path class="cls-1" d="M12.31,15.36a4.94,4.94,0,1,1,4.94-4.94A5,5,0,0,1,12.31,15.36Zm0-6.09a1.15,1.15,0,1,0,1.16,1.15A1.15,1.15,0,0,0,12.31,9.27Z"/><path class="cls-1" d="M23.68,15.36a4.94,4.94,0,1,1,4.94-4.94A4.94,4.94,0,0,1,23.68,15.36Zm0-6.09a1.15,1.15,0,1,0,1.15,1.15A1.15,1.15,0,0,0,23.68,9.27Z"/><path class="cls-1" d="M34.19,15.36a4.94,4.94,0,1,1,4.94-4.94A5,5,0,0,1,34.19,15.36Zm0-6.09a1.15,1.15,0,1,0,1.15,1.15A1.15,1.15,0,0,0,34.19,9.27Z"/><path class="cls-1" d="M129.07,124.57H1.89A1.9,1.9,0,0,1,0,122.67V1.89A1.89,1.89,0,0,1,1.89,0H129.07A1.9,1.9,0,0,1,131,1.89V122.67A1.9,1.9,0,0,1,129.07,124.57ZM3.79,120.78H127.18V3.79H3.79Z"/><path class="cls-1" d="M129.07,19.73H1.89a1.9,1.9,0,0,1,0-3.79H129.07a1.9,1.9,0,1,1,0,3.79Z"/></g></g></svg>