<svg xmlns="http://www.w3.org/2000/svg" viewBox="0 0 79.29 160.04"><defs><style>.cls-1{fill:#231f20;}</style></defs><g id="Layer_2" data-name="Layer 2"><g id="Layer_1-2" data-name="Layer 1"><path class="cls-1" d="M77.4,160H1.89A1.9,1.9,0,0,1,0,158.14V1.89A1.89,1.89,0,0,1,1.89,0H77.4a1.89,1.89,0,0,1,1.89,1.89V158.14A1.9,1.9,0,0,1,77.4,160ZM3.79,156.25H75.5V3.79H3.79Z"/><path class="cls-1" d="M69.16,19.46a1.88,1.88,0,0,1-1.34-.55l-7.37-7.37a1.9,1.9,0,0,1,2.68-2.68l7.37,7.37a1.89,1.89,0,0,1-1.34,3.23Z"/><path class="cls-1" d="M61.79,19.46a1.89,1.89,0,0,1-1.34-3.23l7.37-7.37a1.9,1.9,0,0,1,2.68,2.68l-7.37,7.37A1.88,1.88,0,0,1,61.79,19.46Z"/><path class="cls-1" d="M53.1,138.35H26.19a7.38,7.38,0,0,1,0-14.76H53.1a7.38,7.38,0,1,1,0,14.76Zm-26.91-11a3.59,3.59,0,1,0,0,7.18H53.1a3.59,3.59,0,1,0,0-7.18Z"/><path class="cls-1" d="M77.4,60.25H1.89a1.9,1.9,0,0,1,0-3.79H77.4a1.9,1.9,0,0,1,0,3.79Z"/><path class="cls-1" d="M67.88,87.33H11.41a1.89,1.89,0,0,1-1.89-1.89V75a1.89,1.89,0,0,1,1.89-1.9H67.88A1.89,1.89,0,0,1,69.77,75V85.44A1.89,1.89,0,0,1,67.88,87.33ZM13.3,83.54H66V76.91H13.3Z"/><path class="cls-1" d="M46.14,111.91H11.41A1.89,1.89,0,0,1,9.52,110V93.33a1.89,1.89,0,0,1,1.89-1.9H46.14a1.9,1.9,0,0,1,1.9,1.9V110A1.9,1.9,0,0,1,46.14,111.91ZM13.3,108.12h31V95.22H13.3Z"/><path class="cls-1" d="M67.88,111.42H53.72a1.88,1.88,0,0,1-1.89-1.89V92.85A1.89,1.89,0,0,1,53.72,91H67.88a1.89,1.89,0,0,1,1.89,1.9v16.68A1.88,1.88,0,0,1,67.88,111.42Zm-12.26-3.79H66V94.74H55.62Z"/></g></g></svg>