<svg xmlns="http://www.w3.org/2000/svg" viewBox="0 0 106.37 148.01"><defs><style>.cls-1{fill:#231f20;}</style></defs><g id="Layer_2" data-name="Layer 2"><g id="Layer_1-2" data-name="Layer 1"><path class="cls-1" d="M81.15,148H1.89A1.89,1.89,0,0,1,0,146.12V24.93A1.9,1.9,0,0,1,1.89,23h30.9a1.9,1.9,0,1,1,0,3.79h-29v117.4H79.26V108.7a1.89,1.89,0,1,1,3.78,0v37.42A1.88,1.88,0,0,1,81.15,148Z"/><path class="cls-1" d="M81.3,64.24a1.88,1.88,0,0,1-1.89-1.89V26.82H50.93a1.9,1.9,0,0,1,0-3.79H81.3a1.89,1.89,0,0,1,1.89,1.9V62.35A1.88,1.88,0,0,1,81.3,64.24Z"/><path class="cls-1" d="M58.1,44.66H25a5.92,5.92,0,0,1,0-11.84h7.19a1.9,1.9,0,1,1,0,3.79H25a2.13,2.13,0,1,0,0,4.26H58.1a2.13,2.13,0,0,0,0-4.26H50.93a1.9,1.9,0,0,1,0-3.79H58.1a5.92,5.92,0,0,1,0,11.84Z"/><path class="cls-1" d="M50.25,39.85H32.79A1.9,1.9,0,0,1,30.9,38V1.89A1.89,1.89,0,0,1,32.79,0H50.25a1.89,1.89,0,0,1,1.89,1.89V38A1.89,1.89,0,0,1,50.25,39.85ZM34.69,36.06H48.36V3.79H34.69Z"/><path class="cls-1" d="M81.15,53.66H1.89a1.9,1.9,0,0,1,0-3.79H81.15a1.9,1.9,0,0,1,0,3.79Z"/><path class="cls-1" d="M87.35,110.59H75.25a1.9,1.9,0,0,1-1.9-1.89V93.47H58.13a1.9,1.9,0,0,1-1.9-1.89V79.47a1.9,1.9,0,0,1,1.9-1.9H73.35V62.35a1.89,1.89,0,0,1,1.9-1.89h12.1a1.89,1.89,0,0,1,1.9,1.89V77.57h15.22a1.9,1.9,0,0,1,1.9,1.9V91.58a1.9,1.9,0,0,1-1.9,1.89H89.25V108.7A1.9,1.9,0,0,1,87.35,110.59ZM77.14,106.8h8.32V91.58a1.9,1.9,0,0,1,1.89-1.9h15.23V81.36H87.35a1.89,1.89,0,0,1-1.89-1.89V64.24H77.14V79.47a1.89,1.89,0,0,1-1.89,1.89H60v8.32H75.25a1.9,1.9,0,0,1,1.89,1.9Z"/><path class="cls-1" d="M41.52,98.86A12.28,12.28,0,1,1,53.8,86.58,12.3,12.3,0,0,1,41.52,98.86Zm0-20.77A8.49,8.49,0,1,0,50,86.58,8.5,8.5,0,0,0,41.52,78.09Z"/><path class="cls-1" d="M62.13,119.46H20.92A1.89,1.89,0,0,1,19,117.57a22.5,22.5,0,1,1,45,0A1.89,1.89,0,0,1,62.13,119.46Zm-39.22-3.79H60.14a18.71,18.71,0,0,0-37.23,0Z"/></g></g></svg>