<svg xmlns="http://www.w3.org/2000/svg" viewBox="0 0 163.83 123.12"><defs><style>.cls-1{fill:#fff;}.cls-2{fill:#d40725;}</style></defs><g id="Layer_2" data-name="Layer 2"><g id="Layer_1-2" data-name="Layer 1"><rect class="cls-1" x="1.01" y="27" width="140.63" height="95.12"/><path d="M142.65,123.12H0V26H142.65ZM2,121.11H140.63V28H2Z"/><path class="cls-1" d="M141.64,31.39,80.36,79.19a15.82,15.82,0,0,1-19.58-.11L1,31.39"/><path d="M70.64,83.55a16.81,16.81,0,0,1-10.49-3.68L.38,32.18l1.26-1.57L61.41,78.29a14.77,14.77,0,0,0,18.33.1L141,30.6l1.24,1.59L81,80A16.81,16.81,0,0,1,70.64,83.55Z"/><line class="cls-1" x1="86.31" y1="74.56" x2="141.64" y2="118.69"/><rect x="112.96" y="61.24" width="2.02" height="70.77" transform="translate(-32.64 125.46) rotate(-51.42)"/><line class="cls-1" x1="1.01" y1="118.69" x2="56.34" y2="75.54"/><rect x="-6.41" y="96.1" width="70.17" height="2.02" transform="translate(-53.65 38.16) rotate(-37.94)"/><circle class="cls-2" cx="130.68" cy="33.15" r="32.14"/><path d="M130.68,66.3a33.15,33.15,0,1,1,33.15-33.15A33.19,33.19,0,0,1,130.68,66.3Zm0-64.28a31.13,31.13,0,1,0,31.14,31.13A31.17,31.17,0,0,0,130.68,2Z"/><path class="cls-1" d="M141.64,47.7H129.42V30.79a21.58,21.58,0,0,1-3.63,1.11,39.3,39.3,0,0,1-6.06.87V25.63a27.81,27.81,0,0,0,6.8-1.55,26.7,26.7,0,0,0,2.58-1l2.18-1h10.35Z"/><path d="M142.65,48.71H128.41V32.24c-.66.21-1.46.44-2.41.65a40.39,40.39,0,0,1-6.21.89l-1.07.07V24.71l.91-.09a26.8,26.8,0,0,0,6.56-1.49,25.06,25.06,0,0,0,2.5-1l2.19-1,.41-.08h11.36Zm-12.22-2h10.2V23.11H131.5l-2,.87c-.78.36-1.68.71-2.66,1.06a29.64,29.64,0,0,1-6.13,1.49v5.15a40.25,40.25,0,0,0,4.83-.76A20.06,20.06,0,0,0,129,29.86l1.41-.6Z"/></g></g></svg>