<svg xmlns="http://www.w3.org/2000/svg" viewBox="0 0 215.24 175.82"><defs><style>.cls-1{fill:#d40725;}.cls-2{fill:#231f20;}</style></defs><g id="Layer_2" data-name="Layer 2"><g id="Layer_1-2" data-name="Layer 1"><path class="cls-1" d="M.73.73V139.92h28.8V175.1l29.12-35.18H214.52V.73Zm67.92,110.1H55.92V57.66H68.65Zm32.76,0H88.67V30.11h12.74Zm33.66,0H122.33V44.15h12.74Zm31.23,0H153.56V77.49H166.3Z"/><path class="cls-2" d="M29.53,175.82a.67.67,0,0,1-.24,0,.72.72,0,0,1-.48-.68V140.64H.73a.72.72,0,0,1-.73-.72V.73A.72.72,0,0,1,.73,0H214.52a.72.72,0,0,1,.72.73V139.92a.72.72,0,0,1-.72.72H59l-28.9,34.92A.71.71,0,0,1,29.53,175.82ZM1.45,139.19H29.53a.73.73,0,0,1,.73.73v33.16l27.83-33.62a.72.72,0,0,1,.56-.27H213.79V1.45H1.45Z"/><path class="cls-2" d="M68.65,111.55H55.92a.73.73,0,0,1-.73-.72V57.66a.73.73,0,0,1,.73-.72H68.65a.72.72,0,0,1,.73.72v53.17A.72.72,0,0,1,68.65,111.55Zm-12-1.45H67.93V58.39H56.64Z"/><path class="cls-2" d="M101.41,111.55H88.67a.73.73,0,0,1-.73-.72V30.11a.73.73,0,0,1,.73-.73h12.74a.72.72,0,0,1,.72.73v80.72A.72.72,0,0,1,101.41,111.55Zm-12-1.45h11.29V30.83H89.39Z"/><path class="cls-2" d="M135.07,111.55H122.33a.73.73,0,0,1-.73-.72V44.15a.73.73,0,0,1,.73-.72h12.74a.72.72,0,0,1,.72.72v66.68A.72.72,0,0,1,135.07,111.55Zm-12-1.45h11.28V44.88H123.06Z"/><path class="cls-2" d="M166.3,111.55H153.56a.72.72,0,0,1-.72-.72V77.49a.73.73,0,0,1,.72-.73H166.3a.73.73,0,0,1,.73.73v33.34A.73.73,0,0,1,166.3,111.55Zm-12-1.45h11.29V78.22H154.29Z"/></g></g></svg>