<svg xmlns="http://www.w3.org/2000/svg" viewBox="0 0 77.2 153.21"><defs><style>.cls-1{fill:#231f20;}</style></defs><g id="Layer_2" data-name="Layer 2"><g id="Layer_1-2" data-name="Layer 1"><path class="cls-1" d="M43.91,147.05H33.78a1.9,1.9,0,0,1-1.9-1.9V72.56a1.9,1.9,0,0,1,3.79,0v70.7H42V72.56a1.9,1.9,0,0,1,3.79,0v72.59A1.9,1.9,0,0,1,43.91,147.05Z"/><path class="cls-1" d="M43.91,57.12a1.9,1.9,0,0,1-1.9-1.9V43.53a1.9,1.9,0,1,1,3.79,0V55.22A1.9,1.9,0,0,1,43.91,57.12Z"/><path class="cls-1" d="M43.91,28.08A1.89,1.89,0,0,1,42,26.19V7a3.17,3.17,0,1,0-6.34,0V26.19a1.9,1.9,0,0,1-3.79,0V7A7,7,0,1,1,45.8,7V26.19A1.89,1.89,0,0,1,43.91,28.08Z"/><path class="cls-1" d="M33.78,57.12a1.9,1.9,0,0,1-1.9-1.9V43.53a1.9,1.9,0,1,1,3.79,0V55.22A1.9,1.9,0,0,1,33.78,57.12Z"/><path class="cls-1" d="M66.64,45.42H1.89A1.88,1.88,0,0,1,.16,44.29a1.91,1.91,0,0,1,.34-2L7.23,35,.49,27.46a1.9,1.9,0,0,1,1.4-3.17H66.64a10.57,10.57,0,0,1,0,21.13ZM6.22,41.63H66.64a6.78,6.78,0,0,0,0-13.55H6.15l5,5.61a1.9,1.9,0,0,1,0,2.55Z"/><path class="cls-1" d="M75.31,74.46H10.56a10.57,10.57,0,0,1,0-21.13H75.31a1.9,1.9,0,0,1,1.39,3.18L70,63.81l6.74,7.49a1.9,1.9,0,0,1-1.41,3.16ZM10.56,57.12a6.78,6.78,0,0,0,0,13.55h60.5l-5-5.61a1.89,1.89,0,0,1,0-2.55l5-5.39Z"/><path class="cls-1" d="M65.36,153.21H12.79a1.9,1.9,0,0,1-1.9-1.9v-6.16a1.9,1.9,0,0,1,1.9-1.89H65.36a1.9,1.9,0,0,1,1.9,1.89v6.16A1.9,1.9,0,0,1,65.36,153.21Zm-50.68-3.79H63.47v-2.37H14.68Z"/></g></g></svg>