<svg xmlns="http://www.w3.org/2000/svg" viewBox="0 0 136.74 139.04"><defs><style>.cls-1{fill:#231f20;}</style></defs><g id="Layer_2" data-name="Layer 2"><g id="Layer_1-2" data-name="Layer 1"><path class="cls-1" d="M33.62,139a33.62,33.62,0,1,1,33.62-33.62A33.66,33.66,0,0,1,33.62,139Zm0-63.45a29.83,29.83,0,1,0,29.83,29.83A29.86,29.86,0,0,0,33.62,75.59Z"/><path class="cls-1" d="M109.27,139a15,15,0,1,1,15-15A15,15,0,0,1,109.27,139Zm0-26.18a11.2,11.2,0,1,0,11.2,11.19A11.21,11.21,0,0,0,109.27,112.86Z"/><path class="cls-1" d="M33.62,120.4a15,15,0,1,1,15-15A15,15,0,0,1,33.62,120.4Zm0-26.18a11.2,11.2,0,1,0,11.19,11.2A11.21,11.21,0,0,0,33.62,94.22Z"/><path class="cls-1" d="M31.59,75.59A1.89,1.89,0,0,1,29.7,73.7V13.27a9.49,9.49,0,0,0-9.48-9.48H7A1.9,1.9,0,0,1,7,0H20.22A13.28,13.28,0,0,1,33.49,13.27V73.7A1.9,1.9,0,0,1,31.59,75.59Z"/><path class="cls-1" d="M109.27,112.86a1.89,1.89,0,0,1-1.89-1.9V66.53A23.61,23.61,0,0,0,83.8,43H31.59a1.9,1.9,0,0,1,0-3.79H83.8a27.4,27.4,0,0,1,27.37,27.37V111A1.9,1.9,0,0,1,109.27,112.86Z"/><path class="cls-1" d="M134.85,126H122.36a1.9,1.9,0,0,1,0-3.79h12.49a1.9,1.9,0,0,1,0,3.79Z"/><path class="cls-1" d="M109.27,90H60.17a1.9,1.9,0,0,1,0-3.79h49.1a1.9,1.9,0,1,1,0,3.79Z"/><path class="cls-1" d="M109.27,80.36h-59a1.9,1.9,0,0,1,0-3.79h59.05a1.9,1.9,0,1,1,0,3.79Z"/></g></g></svg>