<svg xmlns="http://www.w3.org/2000/svg" viewBox="0 0 202.03 165.25"><defs><style>.cls-1{fill:#fff;}.cls-2{fill:#d40725;}</style></defs><g id="Layer_2" data-name="Layer 2"><g id="Layer_1-2" data-name="Layer 1"><polygon class="cls-1" points="173.84 39.98 173.84 137.74 64.35 137.74 43.88 162.44 43.88 137.74 23.65 137.74 23.65 39.98 173.84 39.98"/><path d="M42.87,165.25v-26.5H22.65V39h152.2v99.78h-110ZM24.66,136.73H44.89v22.92l19-22.92h109V41H24.66Z"/><path class="cls-2" d="M47.18,99.19a7.43,7.43,0,0,1-4.25-1.34L4.15,70.61a7.39,7.39,0,0,1,8.49-12.09L42.87,79.75,52.92,43.66A7.38,7.38,0,0,1,66.08,41.4L81.27,63.05,90.49,7.19a7.38,7.38,0,0,1,14-1.9L121.92,43a7.39,7.39,0,0,1-13.41,6.2l-7.36-15.91-8.25,50a7.38,7.38,0,0,1-13.33,3L63,62.67,54.29,93.78a7.38,7.38,0,0,1-7.11,5.41Z"/><path d="M47.18,100.2a8.35,8.35,0,0,1-4.83-1.53L3.57,71.44A8.4,8.4,0,0,1,13.22,57.7L42.28,78.1,52,43.39a8.39,8.39,0,0,1,15-2.57L80.68,60.45,89.49,7a8.36,8.36,0,0,1,7.16-7,8.48,8.48,0,0,1,8.74,4.8l17.45,37.71a8.39,8.39,0,1,1-15.24,7l-6-12.93L93.9,83.47a8.4,8.4,0,0,1-15.16,3.46L63.36,65l-8.1,29.05A8.4,8.4,0,0,1,50,99.71,8.6,8.6,0,0,1,47.18,100.2Zm-38.77-42A6.39,6.39,0,0,0,3.18,60.9a6.38,6.38,0,0,0,1.55,8.88L43.51,97a6.37,6.37,0,0,0,9.81-3.51L62,62.4a1,1,0,0,1,1.79-.31L80.39,85.77a6.38,6.38,0,0,0,11.52-2.63l8.25-50a1,1,0,0,1,1.91-.26l7.36,15.91A6.38,6.38,0,1,0,121,43.42L103.56,5.71A6.38,6.38,0,0,0,91.48,7.35L82.27,63.22a1,1,0,0,1-1.83.41L65.26,42a6.38,6.38,0,0,0-11.37,2L43.84,80a1,1,0,0,1-1.55.56L12.06,59.35A6.34,6.34,0,0,0,8.41,58.19Z"/><polygon class="cls-2" points="179.88 59.26 171.15 55.28 170.43 45.72 191.57 30.96 188 43.52 201.02 44.49 179.88 59.26"/><path d="M179.88,60.27a1.06,1.06,0,0,1-.42-.09l-8.73-4a1,1,0,0,1-.59-.84l-.72-9.56a1,1,0,0,1,.43-.9L191,30.13a1,1,0,0,1,1.17,0,1,1,0,0,1,.38,1.09L189.31,42.6l11.79.88a1,1,0,0,1,.9.75,1,1,0,0,1-.4,1.09L180.46,60.09A1,1,0,0,1,179.88,60.27Zm-7.77-5.66,7.66,3.49,18.35-12.81-10.2-.76a1,1,0,0,1-.75-.43,1,1,0,0,1-.14-.86l2.79-9.83L171.48,46.22Z"/><polygon class="cls-2" points="127.69 95.93 112.49 96.39 118.4 81.92 127.69 95.93"/><path d="M112.49,97.41a1,1,0,0,1-.83-.44,1,1,0,0,1-.11-1l5.91-14.48a1,1,0,0,1,1.78-.18l9.29,14a1,1,0,0,1,.06,1,1,1,0,0,1-.87.55l-15.2.47Zm6.12-13.34L114,95.34,125.85,95Z"/><line class="cls-1" x1="188.59" y1="43.56" x2="122.6" y2="89.16"/><rect x="115.5" y="65.35" width="80.2" height="2.02" transform="translate(-10.13 100.24) rotate(-34.65)"/></g></g></svg>