<svg xmlns="http://www.w3.org/2000/svg" viewBox="0 0 130.31 144.76"><defs><style>.cls-1{fill:#231f20;}</style></defs><g id="Layer_2" data-name="Layer 2"><g id="Layer_1-2" data-name="Layer 1"><path class="cls-1" d="M66.64,144.76a33.11,33.11,0,0,1-5.74-.5,1.89,1.89,0,0,1-1.52-1.44l-.84-3.65a28.15,28.15,0,0,1-7.17-3.26L48,137.66a1.89,1.89,0,0,1-2-.21A32.89,32.89,0,0,1,41,132.52a1.91,1.91,0,0,1-.22-2.06l1.74-3.39a28.62,28.62,0,0,1-3.27-7.16l-3.65-.83a1.89,1.89,0,0,1-1.44-1.51,33.43,33.43,0,0,1-.52-5.83q0-.64,0-1.29a1.9,1.9,0,0,1,1.15-1.68l3.6-1.52a28.48,28.48,0,0,1,2.05-7l-2.26-3a1.89,1.89,0,0,1-.12-2.1,32.77,32.77,0,0,1,4.49-6,1.88,1.88,0,0,1,1.94-.51l3.81,1.16a28.84,28.84,0,0,1,5.35-3.54l.18-3.77a1.88,1.88,0,0,1,1.23-1.67A31.94,31.94,0,0,1,62.81,79a1.91,1.91,0,0,1,1.81.85l2.17,3.35a28.61,28.61,0,0,1,5.63.59L75,80.9a1.9,1.9,0,0,1,2-.51,33.25,33.25,0,0,1,7.42,3.54,1.92,1.92,0,0,1,.86,1.83l-.48,3.92a29,29,0,0,1,3.8,3.79l3.92-.5a1.88,1.88,0,0,1,1.83.85,33.46,33.46,0,0,1,3.57,7.4,1.89,1.89,0,0,1-.51,2l-2.82,2.64a28.91,28.91,0,0,1,.61,5.65l3.36,2.17a1.93,1.93,0,0,1,.86,1.8,32.62,32.62,0,0,1-1.84,7.73,1.87,1.87,0,0,1-1.68,1.23l-3.76.2A28.69,28.69,0,0,1,88.62,130l1.18,3.8a1.89,1.89,0,0,1-.5,1.94,33.26,33.26,0,0,1-6,4.5,1.88,1.88,0,0,1-2.09-.12l-3-2.25a27.92,27.92,0,0,1-7,2.08l-1.51,3.6A1.9,1.9,0,0,1,68,144.73C67.56,144.75,67.1,144.76,66.64,144.76Zm-3.85-4a15.23,15.23,0,0,0,3.87.25l1.46-3.46a1.88,1.88,0,0,1,1.52-1.15,24.6,24.6,0,0,0,8-2.36,1.91,1.91,0,0,1,2,.18l2.86,2.16a29.15,29.15,0,0,0,3.39-2.55l-1.14-3.65a1.93,1.93,0,0,1,.4-1.83,24.67,24.67,0,0,0,4.13-6.3,1.91,1.91,0,0,1,1.63-1.11l3.62-.18a30.28,30.28,0,0,0,1.06-4.52l-3.23-2.08a1.9,1.9,0,0,1-.87-1.65v-.73a24.8,24.8,0,0,0-.75-6.07,1.88,1.88,0,0,1,.55-1.85L94,101.3a29.88,29.88,0,0,0-2.13-4.41l-3.77.47a1.87,1.87,0,0,1-1.74-.72A24.51,24.51,0,0,0,81.67,92a1.89,1.89,0,0,1-.73-1.74l.46-3.76A28.94,28.94,0,0,0,77,84.39l-2.52,2.73a1.93,1.93,0,0,1-1.85.55,24.28,24.28,0,0,0-6-.73h-.83a2,2,0,0,1-1.64-.86l-2.08-3.22A29,29,0,0,0,57.56,84l-.18,3.62a1.89,1.89,0,0,1-1.09,1.63A25,25,0,0,0,50,93.33a1.87,1.87,0,0,1-1.82.4l-3.66-1.12A30.26,30.26,0,0,0,42,96l2.17,2.86a1.89,1.89,0,0,1,.19,2A24.24,24.24,0,0,0,42,108.79a1.88,1.88,0,0,1-1.15,1.52l-3.46,1.47a29.78,29.78,0,0,0,.26,3.89l3.51.8a1.87,1.87,0,0,1,1.41,1.38,24.89,24.89,0,0,0,3.66,8,1.93,1.93,0,0,1,.13,1.94l-1.67,3.27a30,30,0,0,0,2.65,2.64L50.62,132a1.9,1.9,0,0,1,2,.13,24.25,24.25,0,0,0,8,3.63A1.91,1.91,0,0,1,62,137.21Zm3.85-12.88a16.1,16.1,0,1,1,16.1-16.1A16.11,16.11,0,0,1,66.64,127.84Zm0-28.4A12.31,12.31,0,1,0,79,111.74,12.32,12.32,0,0,0,66.64,99.44Z"/><path class="cls-1" d="M107.51,127.56H89.25a1.9,1.9,0,1,1,0-3.79H107a1.42,1.42,0,0,1,.41-.08,20.8,20.8,0,0,0-1.65-41.54A20.52,20.52,0,0,0,96,84.55a1.9,1.9,0,0,1-2.78-1.82c.06-.79.11-1.45.11-2.12a28,28,0,0,0-56,0c0,.8.06,1.58.12,2.36a1.89,1.89,0,0,1-.86,1.75,1.92,1.92,0,0,1-1.95.06,20.8,20.8,0,1,0-10.1,39H43.88a1.9,1.9,0,0,1,0,3.79H24.6a24.6,24.6,0,1,1,9-47.48,31.78,31.78,0,0,1,63.55-.17,24.59,24.59,0,0,1,33.15,23,24.7,24.7,0,0,1-22.11,24.45A1.62,1.62,0,0,1,107.51,127.56Z"/><path class="cls-1" d="M118.52,85a1.9,1.9,0,0,1-1.9-1.9V3.79H76.47V52.17a1.9,1.9,0,1,1-3.79,0V1.89A1.89,1.89,0,0,1,74.57,0h44a1.89,1.89,0,0,1,1.89,1.89V83.12A1.9,1.9,0,0,1,118.52,85Z"/><path class="cls-1" d="M118.52,22.26H74.57a1.9,1.9,0,0,1,0-3.79h44a1.9,1.9,0,0,1,0,3.79Z"/><path class="cls-1" d="M118.52,41.21H74.57a1.9,1.9,0,0,1,0-3.79h44a1.9,1.9,0,0,1,0,3.79Z"/><path class="cls-1" d="M118.52,62h-31a1.9,1.9,0,0,1,0-3.79h31a1.9,1.9,0,0,1,0,3.79Z"/><path class="cls-1" d="M104.17,31.73h-.89a1.9,1.9,0,0,1,0-3.79h.89a1.9,1.9,0,1,1,0,3.79Z"/><path class="cls-1" d="M109.93,31.73H109a1.9,1.9,0,0,1,0-3.79h.89a1.9,1.9,0,1,1,0,3.79Z"/><path class="cls-1" d="M104.62,73.77h-.89a1.9,1.9,0,1,1,0-3.79h.89a1.9,1.9,0,0,1,0,3.79Z"/><path class="cls-1" d="M110.38,73.77h-.89a1.9,1.9,0,1,1,0-3.79h.89a1.9,1.9,0,0,1,0,3.79Z"/><path class="cls-1" d="M81.73,50.8h-.89a1.9,1.9,0,0,1,0-3.79h.89a1.9,1.9,0,0,1,0,3.79Z"/><path class="cls-1" d="M87.49,50.8H86.6a1.9,1.9,0,0,1,0-3.79h.89a1.9,1.9,0,1,1,0,3.79Z"/><path class="cls-1" d="M22.73,59.44a1.89,1.89,0,0,1-1.34-.56l-8.64-8.64a1.9,1.9,0,0,1,2.68-2.68l7.3,7.3,7.3-7.3a1.9,1.9,0,0,1,2.68,2.68l-8.64,8.64A1.9,1.9,0,0,1,22.73,59.44Z"/><path class="cls-1" d="M50.37,56.66a1.89,1.89,0,0,1-1.89-1.89V7.28a1.9,1.9,0,0,1,3.79,0V54.77A1.89,1.89,0,0,1,50.37,56.66Z"/><path class="cls-1" d="M22.73,58.32a1.9,1.9,0,0,1-1.9-1.89V8.94a1.9,1.9,0,0,1,3.79,0V56.43A1.89,1.89,0,0,1,22.73,58.32Z"/></g></g></svg>