<svg xmlns="http://www.w3.org/2000/svg" viewBox="0 0 163.26 153.97"><defs><style>.cls-1{fill:#231f20;}</style></defs><g id="Layer_2" data-name="Layer 2"><g id="Layer_1-2" data-name="Layer 1"><path class="cls-1" d="M12.31,15.36a4.94,4.94,0,1,1,4.94-4.94A5,5,0,0,1,12.31,15.36Zm0-6.09a1.15,1.15,0,1,0,1.16,1.15A1.15,1.15,0,0,0,12.31,9.27Z"/><path class="cls-1" d="M23.68,15.36a4.94,4.94,0,1,1,4.94-4.94A4.94,4.94,0,0,1,23.68,15.36Zm0-6.09a1.15,1.15,0,1,0,1.15,1.15A1.15,1.15,0,0,0,23.68,9.27Z"/><path class="cls-1" d="M34.19,15.36a4.94,4.94,0,1,1,4.94-4.94A5,5,0,0,1,34.19,15.36Zm0-6.09a1.15,1.15,0,1,0,1.15,1.15A1.15,1.15,0,0,0,34.19,9.27Z"/><path class="cls-1" d="M11.38,124.56H1.89A1.89,1.89,0,0,1,0,122.67V1.89A1.89,1.89,0,0,1,1.89,0H129.07A1.9,1.9,0,0,1,131,1.89V38.37a1.9,1.9,0,1,1-3.79,0V3.79H3.79v117h7.59a1.9,1.9,0,1,1,0,3.79Z"/><path class="cls-1" d="M53,124.56H23.86a1.9,1.9,0,0,1,0-3.79H53a1.9,1.9,0,0,1,0,3.79Z"/><path class="cls-1" d="M129.07,19.73H1.89a1.9,1.9,0,0,1,0-3.79H129.07a1.9,1.9,0,1,1,0,3.79Z"/><path class="cls-1" d="M53.91,69.63H12.31a1.89,1.89,0,0,1-1.89-1.89V30.79a1.89,1.89,0,0,1,1.89-1.89h69.2a1.9,1.9,0,0,1,1.9,1.89v8.5a1.9,1.9,0,1,1-3.79,0v-6.6H14.21V65.84h39.7a1.9,1.9,0,1,1,0,3.79Z"/><path class="cls-1" d="M120.21,33.66h-28a1.9,1.9,0,1,1,0-3.79h28a1.9,1.9,0,0,1,0,3.79Z"/><path class="cls-1" d="M52.91,83.39H12.73a1.89,1.89,0,1,1,0-3.78H52.91a1.89,1.89,0,0,1,0,3.78Z"/><path class="cls-1" d="M52.91,96H12.73a1.9,1.9,0,0,1,0-3.79H52.91a1.9,1.9,0,0,1,0,3.79Z"/><path class="cls-1" d="M52.91,107.31H12.73a1.9,1.9,0,0,1,0-3.79H52.91a1.9,1.9,0,0,1,0,3.79Z"/><path class="cls-1" d="M53.91,54.9a1.92,1.92,0,0,1-.89-.22L11.42,32.47a1.9,1.9,0,0,1,1.79-3.35l41.6,22.21a1.9,1.9,0,0,1-.9,3.57Z"/><path class="cls-1" d="M12.31,69.63a1.89,1.89,0,0,1-.89-3.56L53,43.86a1.89,1.89,0,1,1,1.79,3.34L13.21,69.41A1.93,1.93,0,0,1,12.31,69.63Z"/><path class="cls-1" d="M65.6,41.19a1.9,1.9,0,0,1-.9-3.57l15.92-8.5a1.9,1.9,0,0,1,1.79,3.35L66.49,41A1.92,1.92,0,0,1,65.6,41.19Z"/><path class="cls-1" d="M62.69,53a4.94,4.94,0,1,1,4.94-4.94A4.94,4.94,0,0,1,62.69,53Zm0-6.09a1.15,1.15,0,1,0,1.15,1.15A1.15,1.15,0,0,0,62.69,46.93Z"/><path class="cls-1" d="M74.06,53A4.94,4.94,0,1,1,79,48.08,4.95,4.95,0,0,1,74.06,53Zm0-6.09a1.15,1.15,0,1,0,1.15,1.15A1.16,1.16,0,0,0,74.06,46.93Z"/><path class="cls-1" d="M84.56,53a4.94,4.94,0,1,1,4.94-4.94A4.94,4.94,0,0,1,84.56,53Zm0-6.09a1.15,1.15,0,1,0,1.15,1.15A1.16,1.16,0,0,0,84.56,46.93Z"/><path class="cls-1" d="M161.36,142.51H77.91a1.9,1.9,0,1,1,0-3.79h81.56V41.45H55.81v97.27h9.73a1.9,1.9,0,0,1,0,3.79H53.91a1.9,1.9,0,0,1-1.89-1.9V39.56a1.9,1.9,0,0,1,1.89-1.9H161.36a1.9,1.9,0,0,1,1.9,1.9V140.61A1.9,1.9,0,0,1,161.36,142.51Z"/><path class="cls-1" d="M161.36,57.4H53.91a1.9,1.9,0,0,1,0-3.79H161.36a1.9,1.9,0,1,1,0,3.79Z"/><path class="cls-1" d="M150.3,85H65.48a1.88,1.88,0,0,1-1.89-1.89V67.74a1.89,1.89,0,0,1,1.89-1.9H150.3a1.89,1.89,0,0,1,1.89,1.9v15.4A1.88,1.88,0,0,1,150.3,85ZM67.38,81.24h81V69.63h-81Z"/><path class="cls-1" d="M113.05,132.39H65.48a1.89,1.89,0,0,1-1.89-1.89V90.08a1.89,1.89,0,0,1,1.89-1.89h47.57a1.9,1.9,0,0,1,1.9,1.89V130.5A1.9,1.9,0,0,1,113.05,132.39ZM67.38,128.6h43.78V92H67.38Z"/><path class="cls-1" d="M113.05,132.39a1.88,1.88,0,0,1-1.22-.45L64.26,91.53a1.89,1.89,0,0,1,2.45-2.89l47.57,40.41a1.89,1.89,0,0,1-1.23,3.34Z"/><path class="cls-1" d="M65.48,132.39a1.89,1.89,0,0,1-1.22-3.34l47.57-40.41a1.89,1.89,0,1,1,2.45,2.89L66.71,131.94A1.93,1.93,0,0,1,65.48,132.39Z"/><path class="cls-1" d="M150.05,98.52H120.21a1.89,1.89,0,1,1,0-3.78h29.84a1.89,1.89,0,0,1,0,3.78Z"/><path class="cls-1" d="M150.05,112.73H120.21a1.9,1.9,0,1,1,0-3.79h29.84a1.9,1.9,0,0,1,0,3.79Z"/><path class="cls-1" d="M150.05,126.94H120.21a1.9,1.9,0,1,1,0-3.79h29.84a1.9,1.9,0,0,1,0,3.79Z"/><path class="cls-1" d="M17.62,130.81a8.14,8.14,0,1,1,8.14-8.14A8.15,8.15,0,0,1,17.62,130.81Zm0-12.48A4.35,4.35,0,1,0,22,122.67,4.35,4.35,0,0,0,17.62,118.33Z"/><path class="cls-1" d="M71.72,148.75a8.14,8.14,0,1,1,8.14-8.14A8.14,8.14,0,0,1,71.72,148.75Zm0-12.49a4.35,4.35,0,1,0,4.35,4.35A4.35,4.35,0,0,0,71.72,136.26Z"/><path class="cls-1" d="M71.72,154H17.62a1.89,1.89,0,0,1-1.89-1.9V128.91a1.9,1.9,0,0,1,3.79,0v21.27H69.83v-3.33a1.9,1.9,0,0,1,3.79,0v5.22A1.9,1.9,0,0,1,71.72,154Z"/></g></g></svg>