<svg xmlns="http://www.w3.org/2000/svg" viewBox="0 0 129.87 122.37"><defs><style>.cls-1{fill:#231f20;}</style></defs><g id="Layer_2" data-name="Layer 2"><g id="Layer_1-2" data-name="Layer 1"><path class="cls-1" d="M12.19,17.37a5.48,5.48,0,1,1,5.47-5.47A5.48,5.48,0,0,1,12.19,17.37Zm0-7.16a1.69,1.69,0,1,0,1.68,1.69A1.69,1.69,0,0,0,12.19,10.21Z"/><path class="cls-1" d="M25.53,17.37A5.48,5.48,0,1,1,31,11.9,5.48,5.48,0,0,1,25.53,17.37Zm0-7.16a1.69,1.69,0,1,0,1.68,1.69A1.69,1.69,0,0,0,25.53,10.21Z"/><path class="cls-1" d="M37.86,17.37a5.48,5.48,0,1,1,5.47-5.47A5.48,5.48,0,0,1,37.86,17.37Zm0-7.16a1.69,1.69,0,1,0,1.68,1.69A1.69,1.69,0,0,0,37.86,10.21Z"/><path class="cls-1" d="M128,122.37H1.89A1.89,1.89,0,0,1,0,120.48V1.89A1.89,1.89,0,0,1,1.89,0H128a1.89,1.89,0,0,1,1.89,1.89V120.48A1.89,1.89,0,0,1,128,122.37ZM3.79,118.58H126.08V3.79H3.79Z"/><path class="cls-1" d="M128,22.5H1.89a1.9,1.9,0,0,1,0-3.79H128a1.9,1.9,0,0,1,0,3.79Z"/><path class="cls-1" d="M115,54.93H15.47a1.9,1.9,0,0,1-1.9-1.9V35a1.89,1.89,0,0,1,1.9-1.89H115A1.88,1.88,0,0,1,116.89,35V53A1.89,1.89,0,0,1,115,54.93ZM17.36,51.14H113.1V36.86H17.36Z"/><path class="cls-1" d="M71.29,110.5H61.82a1.9,1.9,0,1,1,0-3.79H69.4V99.13a1.89,1.89,0,0,1,3.78,0v9.47A1.89,1.89,0,0,1,71.29,110.5Z"/><path class="cls-1" d="M49.53,110.5H37.23a1.9,1.9,0,0,1,0-3.79h12.3a1.9,1.9,0,0,1,0,3.79Z"/><path class="cls-1" d="M24.94,110.5H15.47a1.9,1.9,0,0,1-1.9-1.9V99.13a1.9,1.9,0,0,1,3.79,0v7.58h7.58a1.9,1.9,0,0,1,0,3.79Z"/><path class="cls-1" d="M15.47,91.53a1.89,1.89,0,0,1-1.9-1.89V80.15a1.9,1.9,0,1,1,3.79,0v9.49A1.89,1.89,0,0,1,15.47,91.53Z"/><path class="cls-1" d="M15.47,72.55a1.9,1.9,0,0,1-1.9-1.89V61.18a1.9,1.9,0,0,1,1.9-1.89h9.47a1.9,1.9,0,0,1,0,3.79H17.36v7.58A1.89,1.89,0,0,1,15.47,72.55Z"/><path class="cls-1" d="M49.53,63.08H37.23a1.9,1.9,0,0,1,0-3.79h12.3a1.9,1.9,0,0,1,0,3.79Z"/><path class="cls-1" d="M71.29,72.55a1.89,1.89,0,0,1-1.89-1.89V63.08H61.82a1.9,1.9,0,1,1,0-3.79h9.47a1.89,1.89,0,0,1,1.89,1.89v9.48A1.89,1.89,0,0,1,71.29,72.55Z"/><path class="cls-1" d="M71.29,91.53a1.88,1.88,0,0,1-1.89-1.89V80.15a1.89,1.89,0,1,1,3.78,0v9.49A1.88,1.88,0,0,1,71.29,91.53Z"/><path class="cls-1" d="M114.7,70.76h-35a1.9,1.9,0,0,1,0-3.79h35a1.9,1.9,0,1,1,0,3.79Z"/><path class="cls-1" d="M114.7,87.43h-35a1.89,1.89,0,0,1,0-3.78h35a1.89,1.89,0,1,1,0,3.78Z"/><path class="cls-1" d="M114.7,104.11h-35a1.9,1.9,0,0,1,0-3.79h35a1.9,1.9,0,1,1,0,3.79Z"/><path class="cls-1" d="M52.37,86.79h-18a1.9,1.9,0,0,1,0-3.79h18a1.9,1.9,0,0,1,0,3.79Z"/><path class="cls-1" d="M43.38,95.78a1.9,1.9,0,0,1-1.9-1.9v-18a1.9,1.9,0,1,1,3.79,0v18A1.89,1.89,0,0,1,43.38,95.78Z"/></g></g></svg>