<svg xmlns="http://www.w3.org/2000/svg" viewBox="0 0 141.78 126.9"><defs><style>.cls-1{fill:#FFFFFF;}</style></defs><g id="Layer_2" data-name="Layer 2"><g id="Layer_1-2" data-name="Layer 1"><path class="cls-1" d="M124.09,57.15a1.89,1.89,0,0,1-1.89-1.89,51.47,51.47,0,0,0-102.94,0,1.9,1.9,0,0,1-3.79,0,55.26,55.26,0,1,1,110.52,0A1.9,1.9,0,0,1,124.09,57.15Z"/><path class="cls-1" d="M124.09,63.18a1.89,1.89,0,0,1-1.89-1.89,51.47,51.47,0,0,0-102.94,0,1.9,1.9,0,0,1-3.79,0,55.26,55.26,0,1,1,110.52,0A1.9,1.9,0,0,1,124.09,63.18Z"/><path class="cls-1" d="M131.23,77.44h-7.14a1.9,1.9,0,0,1-1.89-1.9V50.28a1.89,1.89,0,0,1,1.89-1.89h7.14a10.56,10.56,0,0,1,10.55,10.55v8A10.56,10.56,0,0,1,131.23,77.44ZM126,73.65h5.24A6.77,6.77,0,0,0,138,66.89v-8a6.77,6.77,0,0,0-6.76-6.76H126Z"/><path class="cls-1" d="M17.68,77.44H10.55A10.56,10.56,0,0,1,0,66.89v-8A10.56,10.56,0,0,1,10.55,48.39h7.13a1.9,1.9,0,0,1,1.9,1.89V75.54A1.9,1.9,0,0,1,17.68,77.44ZM10.55,52.18a6.76,6.76,0,0,0-6.76,6.76v8a6.76,6.76,0,0,0,6.76,6.76h5.24V52.18Z"/><path class="cls-1" d="M60,121a1.58,1.58,0,0,1-.38,0A55.42,55.42,0,0,1,15.47,66.83a1.9,1.9,0,1,1,3.79,0,51.62,51.62,0,0,0,41.09,50.42A1.89,1.89,0,0,1,60,121Z"/><path class="cls-1" d="M74,126.9a5.74,5.74,0,0,1-.71,0l-10-1.2a5.92,5.92,0,0,1-2.95-10.53,5.85,5.85,0,0,1,4.36-1.22l10,1.19a5.92,5.92,0,0,1-.7,11.8Zm-10-9.25a2.14,2.14,0,0,0-2.11,1.88,2.14,2.14,0,0,0,1.87,2.37l10,1.19h0a2.16,2.16,0,0,0,1.57-.43,2.17,2.17,0,0,0,.36-3,2.18,2.18,0,0,0-1.43-.8l-10-1.19Z"/></g></g></svg>