<svg xmlns="http://www.w3.org/2000/svg" viewBox="0 0 227.04 165.78"><defs><style>.cls-1{fill:#FFFFFF;}</style></defs><g id="Layer_2" data-name="Layer 2"><g id="Layer_1-2" data-name="Layer 1"><path class="cls-1" d="M225.14,148.57H1.89A1.89,1.89,0,0,1,0,146.68V20.2a1.9,1.9,0,0,1,1.89-1.9H225.14a1.9,1.9,0,0,1,1.9,1.9V146.68A1.89,1.89,0,0,1,225.14,148.57ZM3.79,144.78H223.25V22.09H3.79Z"/><path class="cls-1" d="M121.41,129.9H22.26A1.89,1.89,0,0,1,20.37,128V37.85A1.89,1.89,0,0,1,22.26,36H151.65a1.9,1.9,0,1,1,0,3.79H24.16v86.37h97.25a1.9,1.9,0,1,1,0,3.79Z"/><path class="cls-1" d="M29.84,84.31H14.68a1.89,1.89,0,0,1,0-3.78H29.84a1.89,1.89,0,0,1,0,3.78Z"/><path class="cls-1" d="M113,47.57a1.89,1.89,0,0,1-1.89-1.89V30.52a1.9,1.9,0,0,1,3.79,0V45.68A1.89,1.89,0,0,1,113,47.57Z"/><path class="cls-1" d="M113,137.48a1.9,1.9,0,0,1-1.89-1.9V120.43a1.9,1.9,0,1,1,3.79,0v15.15A1.9,1.9,0,0,1,113,137.48Z"/><path class="cls-1" d="M112,165.78a1.8,1.8,0,0,1-.6-.1,1.9,1.9,0,0,1-1.2-2.4l54.49-162a1.9,1.9,0,0,1,3.6,1.21l-54.49,162A1.91,1.91,0,0,1,112,165.78Z"/></g></g></svg>